<svg width="80" height="40" viewBox="0 0 80 40" fill="none" xmlns="http://www.w3.org/2000/svg">
<g clip-path="url(#clip0_189_3366)">
<g opacity="0.7">
<path fill-rule="evenodd" clip-rule="evenodd" d="M35.7607 7.79114C38.0123 9.04543 40.1585 10.24 42.3415 11.4568C41.7151 12.3467 40.9741 13.11 40.1912 13.8379C40.0899 13.931 40.0285 13.9067 39.9394 13.8247C38.1075 12.1594 36.7177 10.1975 35.7607 7.79114Z" fill="white"/>
<path fill-rule="evenodd" clip-rule="evenodd" d="M39.5647 8.28445C39.8134 8.38771 40.0273 8.45655 40.0202 8.75924C40.0181 8.87161 40.0836 9.04371 40.2453 9.02042C40.3999 8.99916 40.3344 8.83618 40.3425 8.73494C40.361 8.48894 40.3323 8.27129 40.1061 8.09008C39.9055 7.9281 39.9598 7.77422 40.2013 7.68008C40.4111 7.59808 40.3855 7.27008 40.1215 6.94815C40.0181 7.04736 40.0468 7.37232 39.7397 7.16074C39.4951 6.99269 39.5228 6.81047 39.5934 6.61306C39.6763 6.38124 39.8585 6.35289 40.0857 6.44299C40.6189 6.6566 40.9494 7.29943 40.7662 7.89773C40.6997 8.11538 40.7018 8.28546 40.7734 8.49097C40.8276 8.64788 40.8348 8.82605 40.8348 8.99511C40.8338 9.20264 40.8696 9.44864 40.6322 9.56101C40.3702 9.68351 40.1593 9.52052 39.97 9.36968C39.6374 9.10647 39.5269 8.79771 39.5647 8.28445Z" fill="white"/>
<path fill-rule="evenodd" clip-rule="evenodd" d="M37.1369 7.72939C36.7551 7.6565 36.6477 7.46922 36.6671 7.14324C36.6958 6.67452 36.6804 6.20176 36.6722 5.73102C36.6681 5.46376 36.7725 5.15499 36.3918 5.0163C36.2895 4.97885 36.2936 4.82598 36.3652 4.75512C36.4645 4.65692 36.6057 4.55872 36.7469 4.60934C36.9455 4.68324 37.143 4.77638 37.1399 5.05376C37.1318 5.93754 37.1369 6.82233 37.1369 7.72939Z" fill="white"/>
<path fill-rule="evenodd" clip-rule="evenodd" d="M42.1701 8.92742C41.9517 8.95678 41.9264 8.73913 41.908 8.5893C41.8815 8.37671 41.7873 8.01834 42.0276 8.00518C42.3277 7.98999 42.261 8.3433 42.2759 8.5731C42.2334 8.6875 42.3713 8.9011 42.1701 8.92742ZM41.9655 7.45851C41.7344 7.38157 41.5562 7.40182 41.4343 7.6053C41.2411 7.92824 41.3595 8.92034 41.7056 9.13394C42.0954 9.37488 41.9885 9.58545 41.8114 9.84866C41.7631 9.92155 41.7275 10.0025 41.678 10.0754C41.5711 10.2293 41.6654 10.3073 41.8114 10.37C41.9632 10.4348 42.1437 10.5057 42.2299 10.3285C42.476 9.82537 42.8473 9.35565 42.8221 8.70977C42.8244 8.10844 42.5139 7.64174 41.9655 7.45851Z" fill="white"/>
<path fill-rule="evenodd" clip-rule="evenodd" d="M38.6521 7.03818C38.1313 6.66664 38.3403 6.29815 38.2992 5.86892C38.8166 6.20906 38.6144 6.58667 38.6521 7.03818ZM39.1854 6.73751C39.2083 6.16857 39.005 5.71504 38.4111 5.46398C38.1884 5.36882 37.8984 5.31618 37.8196 5.60672C37.6814 6.11087 37.5957 6.67879 38.0537 7.0564C38.4271 7.36618 38.3734 7.58585 38.1553 7.88855C38.1222 7.93613 38.1062 7.99383 38.0708 8.0404C37.9326 8.22161 38.0765 8.28336 38.2238 8.36131C38.3917 8.4504 38.5356 8.45445 38.619 8.28235C38.8588 7.7782 39.2414 7.31353 39.1854 6.73751Z" fill="white"/>
<path fill-rule="evenodd" clip-rule="evenodd" d="M12.9414 23.5358L9.55793 31.344H16.3525L12.9414 23.5358ZM23.2874 39.0975H19.6224L17.6206 34.3841H8.28887L6.25939 39.0975H2.70703L11.3899 19.4368H13.8062C14.2903 19.4368 14.7304 19.7202 14.9238 20.1606L23.2874 39.0975Z" fill="white"/>
<mask id="mask0_189_3366" style="mask-type:luminance" maskUnits="userSpaceOnUse" x="21" y="19" width="22" height="21">
<g opacity="0.7">
<path d="M21.9341 19.241H42.5717V39.432H21.9341V19.241Z" fill="white"/>
</g>
</mask>
<g mask="url(#mask0_189_3366)">
<path fill-rule="evenodd" clip-rule="evenodd" d="M32.2248 22.3924C28.306 22.3924 25.5714 25.4882 25.5714 29.3087C25.5714 33.1293 28.3633 36.2808 32.2821 36.2808C36.2008 36.2808 38.9354 33.185 38.9354 29.3644C38.9354 25.5438 36.1435 22.3924 32.2248 22.3924ZM32.2248 39.4322C26.164 39.4322 21.9341 34.8858 21.9341 29.3644C21.9341 23.8431 26.2202 19.241 32.2821 19.241C38.3439 19.241 42.5717 23.7864 42.5717 29.3087C42.5717 34.8311 38.2866 39.4322 32.2248 39.4322Z" fill="white"/>
</g>
<path fill-rule="evenodd" clip-rule="evenodd" d="M52.0446 22.6995H48.0133V29.7272H52.0446C54.6677 29.7272 56.3021 28.3049 56.3021 26.2134C56.3021 23.8991 54.638 22.6995 52.0446 22.6995ZM51.9321 32.823H48.0133V37.8847C48.0133 38.5549 47.4637 39.0975 46.7872 39.0975H44.5459V19.5764H52.3261C56.9223 19.5764 59.8269 22.1417 59.8269 26.1293C59.8269 30.5361 56.2735 32.823 51.9321 32.823Z" fill="white"/>
<path fill-rule="evenodd" clip-rule="evenodd" d="M67.0713 23.5358L63.6878 31.344H70.4834L67.0713 23.5358ZM77.4182 39.0975H73.7533L71.7514 34.3841H62.4197L60.3902 39.0975H56.8379L65.5207 19.4368H67.935C68.4202 19.4368 68.8613 19.7212 69.0547 20.1616L77.4182 39.0975Z" fill="white"/>
<path fill-rule="evenodd" clip-rule="evenodd" d="M71.991 21.4761H71.7321V20.2694H71.2705V20.0345H72.4526V20.2694H71.991V21.4761Z" fill="white"/>
<path fill-rule="evenodd" clip-rule="evenodd" d="M73.44 21.1217H73.4308L72.9754 20.4464V21.476H72.7236V20.0344H72.9959L73.44 20.7157L73.8832 20.0344H74.1554V21.476H73.8996V20.4424L73.44 21.1217Z" fill="white"/>
<path fill-rule="evenodd" clip-rule="evenodd" d="M45.2407 3.93103C45.2387 3.93103 45.2387 3.929 45.2366 3.92799C45.2366 3.92799 45.2295 3.92192 45.2162 3.91179C45.2121 3.90977 45.209 3.90774 45.2049 3.90471C45.0135 3.77209 43.9328 3.09686 41.4223 2.84073C41.3036 2.82757 41.1859 2.81441 41.0682 2.8053C40.7622 2.77797 40.5309 2.76886 40.405 2.76582C40.3374 2.76379 40.2996 2.76379 40.2996 2.76379L40.3006 2.76683C38.9189 2.74253 37.526 2.96525 36.1045 3.43295C38.834 4.9616 41.4673 6.43253 44.0975 7.91258C44.3391 8.04824 44.3503 7.88424 44.4056 7.74251C44.8426 6.60463 45.1394 5.43234 45.3175 4.22765C45.34 4.07984 45.3134 3.99379 45.2407 3.93103Z" fill="white"/>
<path fill-rule="evenodd" clip-rule="evenodd" d="M72.6894 9.5963C72.581 9.63578 72.4919 9.58111 72.3978 9.55378C67.4853 8.15168 62.5738 6.74857 57.6623 5.34546C57.6101 5.33027 57.5579 5.308 57.3952 5.24827C58.2385 5.02961 58.9938 4.94862 59.7562 4.9142C62.1849 4.80385 64.5613 5.16526 66.9172 5.70079C70.0213 6.40741 73.1234 7.11807 76.2264 7.8257C76.3237 7.84798 76.4291 7.84696 76.5243 7.96136C75.2746 8.59104 73.9933 9.12049 72.6894 9.5963ZM70.2383 10.3404C68.5936 10.7575 66.9295 11.0176 65.2316 10.7443C64.4303 10.6157 63.718 10.2088 62.9698 9.91924C61.2402 9.2521 59.5188 8.56573 57.7227 7.86012C58.9702 7.01482 60.2547 6.59368 61.6629 6.9804C65.0177 7.90062 68.3572 8.87956 71.7868 9.85951C71.2474 10.1065 70.7388 10.2128 70.2383 10.3404ZM57.5108 10.7757C56.7709 10.313 56.0043 9.8919 55.2081 9.42723C56.4608 8.74795 57.739 8.47867 59.0409 8.93017C60.6937 9.50316 62.3036 10.1986 63.983 10.8617C61.7673 11.7172 59.6304 12.0978 57.5108 10.7757ZM54.4988 12.0917C53.5429 11.9642 52.8859 11.3163 52.2442 10.6714C53.7098 9.7441 56.6962 10.3566 58.5762 12.0006C57.1884 12.1008 55.8447 12.2719 54.4988 12.0917ZM51.5841 12.0229C51.1246 12.0037 50.664 11.9935 50.2014 12.0107C49.4697 12.0381 49.2332 11.8508 48.9528 11.0966C50.4675 10.8972 51.9116 10.8243 53.108 12.114C52.5604 12.0806 52.0723 12.0431 51.5841 12.0229ZM47.4228 12.3246C46.8896 12.3813 46.5129 11.9632 46.5836 11.4408C46.5969 11.3436 46.6521 11.3396 46.7197 11.3163C47.4218 11.0682 48.5148 11.4469 48.9006 12.1029C48.3889 12.1818 47.9069 12.2719 47.4228 12.3246ZM46.4198 10.2432C46.3512 10.1399 46.2407 10.0205 46.3011 9.9C46.3318 9.83825 46.3912 9.82914 46.4556 9.83319C46.4556 9.83319 46.9602 9.83724 47.4289 9.79978V9.80282C47.52 9.79269 47.6049 9.80282 47.6725 9.87469C47.87 10.0893 47.9826 10.3809 48.1259 10.6441C48.1678 10.722 48.1781 10.7888 48.0501 10.8293C47.6162 10.966 46.6849 10.6421 46.4198 10.2432ZM46.2837 12.6151C46.1813 12.7042 45.2285 12.9148 45.1241 12.8662C44.9276 12.7741 44.8406 12.5119 44.8417 12.0199C44.8427 11.3831 44.902 11.3385 45.5366 11.5066C45.9634 11.619 46.2888 11.9986 46.3226 12.4207C46.3277 12.4886 46.3523 12.5564 46.2837 12.6151ZM44.0608 13.3774C43.8571 13.4402 43.6657 13.5404 43.4662 13.6204C43.3423 13.67 43.2144 13.7064 43.1161 13.5789C43.0302 13.4695 43.0742 13.3511 43.1407 13.262C43.4017 12.9067 43.676 12.5604 43.9421 12.2081C44.0618 12.0492 44.1396 12.1616 44.2061 12.2497C44.3535 12.442 44.3218 12.6819 44.3606 12.9006C44.4118 13.1537 44.3115 13.3015 44.0608 13.3774ZM45.6932 10.9377C45.4199 10.883 45.0781 10.9164 45.0126 10.5499C44.9737 10.3343 45.4496 9.74005 45.5806 9.79674C46.0022 9.982 45.8354 10.4264 45.9582 10.7453C46.0514 10.9862 45.8139 10.9093 45.6932 10.9377ZM40.3007 14.8514C40.1164 15.0093 40.011 14.9951 39.835 14.8443C36.5641 12.035 34.595 8.5222 33.9912 4.2744C33.852 3.29647 33.7343 3.55462 34.6329 3.12741C36.1445 2.40965 37.8372 2.01282 40.1093 1.93891C40.5135 1.93385 42.4243 1.95714 44.6012 2.74474C45.0361 2.90874 45.4782 3.094 45.9142 3.30356C46.1742 3.42706 46.2581 3.57385 46.2223 3.86136C45.6645 8.27316 43.6995 11.9379 40.3007 14.8514ZM37.0154 13.589C36.8865 13.7469 36.7268 13.6376 36.5846 13.5789C36.4126 13.509 36.2458 13.4199 36.0677 13.3713C35.8272 13.3045 35.7433 13.1598 35.7627 13.0494C35.7873 12.8439 35.8027 12.7599 35.8078 12.6759C35.8211 12.4714 35.8487 12.2254 36.0432 12.1626C36.1404 12.1302 36.2028 12.1697 36.2509 12.2335L36.951 13.1871C36.9704 13.2124 36.9898 13.2377 37.0072 13.263C37.0738 13.3612 37.1127 13.4685 37.0154 13.589ZM34.1866 10.6684C34.244 10.4467 34.3033 10.225 34.3371 10.0002C34.3576 9.86153 34.4087 9.79775 34.5489 9.78864C34.6748 9.78054 34.7751 9.79978 34.8273 9.93037C34.8539 9.99617 34.8918 10.0579 34.9256 10.1207C35.1589 10.5661 35.1159 10.8121 34.7659 10.8972L34.3934 10.9306H34.3913C34.3903 10.9316 34.3893 10.9316 34.3883 10.9316L34.3023 10.9397C34.1733 10.9356 34.1426 10.8374 34.1866 10.6684ZM35.3042 12.1859V12.194C35.3042 12.196 35.3042 12.197 35.3032 12.199C35.2971 12.3063 35.2899 12.4106 35.2653 12.5098C35.1845 12.8206 34.99 12.9694 34.6554 12.8621C34.5182 12.8186 34.3831 12.771 34.246 12.7295C33.7281 12.5766 33.7066 12.5291 33.9523 12.0371C34.1559 11.6301 34.6523 11.3588 35.0985 11.4519C35.2326 11.4803 35.2838 11.543 35.3012 11.62C35.3012 11.622 35.3012 11.623 35.3022 11.625C35.3022 11.6291 35.3032 11.6341 35.3042 11.6412C35.3053 11.6493 35.3063 11.6584 35.3063 11.6676C35.3114 11.7242 35.3165 11.8356 35.3114 12.0259C35.3124 12.029 35.3124 12.033 35.3145 12.0371C35.3104 12.0867 35.3073 12.1363 35.3042 12.1859ZM32.368 10.8324C32.017 10.8779 31.9801 10.8071 32.0958 10.4538C32.37 9.61452 33.0271 9.86862 33.6033 9.84027C33.9277 9.82407 33.8909 9.96783 33.7721 10.1652C33.4508 10.6957 32.9227 10.798 32.368 10.8324ZM32.7323 12.3256C32.2472 12.275 31.7672 12.1828 31.2504 12.1049C31.6055 11.4621 32.8388 11.0389 33.4549 11.3223C33.4549 11.3213 33.4559 11.3223 33.4549 11.3223C33.505 11.3547 33.5613 11.4195 33.5716 11.543C33.59 11.9885 33.2093 12.3752 32.7323 12.3256ZM30.053 12.0178C29.5627 12.0178 29.0725 12.0067 28.5833 12.0219C28.0941 12.0391 27.6049 12.0836 27.1106 12.115C27.7533 11.131 29.2066 10.7747 31.1849 11.1148C31.0211 11.7192 30.6558 12.0188 30.053 12.0178ZM24.8232 12.1666C23.7496 12.1393 22.677 12.1029 21.5523 11.9976C23.504 10.5833 25.4966 9.66514 27.9109 10.635C27.087 11.5643 26.1393 12.2001 24.8232 12.1666ZM18.9446 11.6149C18.0276 11.4347 17.1177 11.2292 16.1424 10.885C16.9448 10.5611 17.6653 10.2695 18.3858 9.97795C19.1319 9.67729 19.8759 9.37156 20.624 9.07696C22.0896 8.4979 23.4989 8.66696 24.9522 9.43027C23.3597 10.2776 21.9903 11.4013 20.1901 11.6382C19.7715 11.6939 19.3611 11.6959 18.9446 11.6149ZM13.2553 10.8496C11.5993 10.7949 10.012 10.4163 8.44204 9.92632C8.4533 9.7522 8.59351 9.79978 8.66719 9.77852C11.9146 8.84311 15.1568 7.89252 18.4144 6.99153C19.8534 6.59368 21.1603 7.00064 22.4171 7.8581C20.8093 8.49385 19.2649 9.10328 17.7205 9.71373C17.2395 9.90304 16.7452 10.064 16.2795 10.2867C15.3185 10.7463 14.3094 10.884 13.2553 10.8496ZM7.39199 9.57403C6.10757 9.10733 4.85386 8.57484 3.51827 7.91479C5.0391 7.56654 6.42586 7.24361 7.81467 6.9318C10.2883 6.37805 12.7466 5.74635 15.2428 5.29788C17.696 4.85751 20.1604 4.68845 22.6371 5.19867C22.6085 5.3981 22.4345 5.35761 22.3332 5.38696C17.4923 6.77691 12.6514 8.15978 7.80751 9.53961C7.67753 9.57706 7.55267 9.63173 7.39199 9.57403ZM20.8922 4.03143C20.9004 4.02941 20.9096 4.0284 20.9178 4.02738L22.3362 3.74494C22.3557 3.74089 22.3762 3.73684 22.3956 3.73279L24.0413 3.4058C25.5007 3.12336 26.9632 2.86015 28.4298 2.61516C29.1708 2.49064 29.4205 2.65565 29.6303 3.3643C29.7388 3.73178 29.8544 4.10027 30.0018 4.45459C30.098 4.68338 30.0898 4.79575 29.8278 4.88889C29.3141 5.0701 28.8095 5.27864 28.308 5.49225C27.7021 5.7504 27.1331 5.71091 26.5866 5.34141C25.7228 4.76032 24.7771 4.41815 23.7752 4.23795C23.767 4.23694 23.7578 4.2339 23.7506 4.23289C23.7107 4.2258 23.6708 4.22074 23.6309 4.21467C23.3208 4.16911 22.9738 4.14178 22.6218 4.12862C22.5604 4.12659 22.4979 4.12457 22.4365 4.12254C22.4202 4.12153 22.4028 4.12153 22.3874 4.12153C22.3403 4.12052 22.2933 4.11951 22.2472 4.11849C22.2298 4.11849 22.2134 4.11748 22.1971 4.11748C22.1387 4.11647 22.0824 4.11647 22.0251 4.11647C22.022 4.11647 22.019 4.11546 22.0159 4.11546C21.9545 4.11546 21.8921 4.11546 21.8317 4.11647H21.7969C21.7467 4.11647 21.6966 4.11748 21.6464 4.11849H21.6137C21.4285 4.12153 21.2514 4.12659 21.0887 4.13267C20.9147 4.13874 20.7571 4.14583 20.621 4.15393C20.3897 4.16607 20.2208 4.17721 20.1512 4.18328C20.1502 4.18328 20.1492 4.18328 20.1481 4.18328C20.1379 4.1843 20.1307 4.1843 20.1246 4.18531C20.1236 4.18531 20.1225 4.18531 20.1225 4.18531C20.1174 4.18632 20.1144 4.18632 20.1144 4.18632L20.8922 4.03143ZM30.449 5.39101C30.8257 6.04398 31.3067 6.60178 31.9924 7.00975C31.6884 7.28511 31.4182 7.55946 31.1173 7.79533C30.797 8.04538 30.4409 7.9897 30.1 7.81963C29.2588 7.40153 28.5158 6.84373 27.7277 6.22114C28.5618 5.88403 29.3478 5.57526 30.1267 5.24827C30.318 5.16728 30.3733 5.25941 30.449 5.39101ZM30.0653 9.36953C30.1441 9.29664 30.2085 9.31183 30.2955 9.34321C30.8165 9.53353 31.3527 9.66817 31.9115 9.74815C31.5155 10.5115 30.5156 10.6977 29.0746 10.2655C29.4379 9.93746 29.7552 9.65704 30.0653 9.36953ZM27.8802 8.2438C28.0368 8.14662 28.1371 8.18914 28.265 8.2762C28.7031 8.5718 29.1585 8.83704 29.6405 9.06077C28.876 10.0944 27.4105 9.84938 26.3553 9.13872C26.8701 8.83805 27.3818 8.55156 27.8802 8.2438ZM21.5216 6.10168C22.2114 5.90326 22.8848 5.70686 23.5603 5.51857C23.6381 5.49731 23.7384 5.5044 23.8151 5.53173C24.4763 5.7757 25.118 6.05714 25.7187 6.50054C23.8427 7.44506 22.6187 7.32763 21.5216 6.10168ZM26.0114 6.90447C26.1404 6.85284 26.2519 6.85385 26.3737 6.94395C26.7739 7.24361 27.1822 7.53212 27.6172 7.84798C25.9889 9.05672 25.0269 8.67 23.8601 7.77914C24.5847 7.48556 25.2981 7.19501 26.0114 6.90447ZM33.635 7.43089C34.0096 7.51896 33.9912 7.97249 34.0403 8.28632C34.0761 8.51916 33.8602 8.61128 33.6289 8.61533C32.848 8.63153 32.0825 8.54953 31.2729 8.29442C31.4203 8.15978 31.5144 8.07373 31.6086 7.98869C32.4898 7.19299 32.4969 7.16464 33.635 7.43089ZM46.8896 7.36104C47.652 7.18691 48.0655 7.50681 48.5066 7.96237C48.6059 8.06462 48.7144 8.15573 48.8689 8.29644C48.0716 8.54143 47.3194 8.63761 46.5518 8.61331C46.1404 8.60116 46.0278 8.4321 46.1435 8.02716C46.252 7.64753 46.4096 7.47138 46.8896 7.36104ZM49.7398 5.31306C49.8207 5.16627 49.9108 5.2098 50.0203 5.25333C50.8022 5.5702 51.5861 5.88605 52.4131 6.22012C51.6179 6.85284 50.8472 7.44101 49.9599 7.85506C49.574 8.03425 49.2097 7.99679 48.8894 7.68296C48.6652 7.46328 48.4247 7.26082 48.1556 7.01988C48.8495 6.58254 49.3601 6.00247 49.7398 5.31306ZM54.4753 6.52788C55.7392 5.28775 57.1413 5.42746 58.5731 6.14926C57.5722 7.31548 56.3185 7.43798 54.4753 6.52788ZM52.5277 7.84899C52.9729 7.52605 53.4048 7.21222 53.8387 6.89941C53.9339 6.83158 54.0342 6.866 54.1283 6.90346C54.8437 7.19299 55.5581 7.48454 56.2817 7.77812C55.1845 8.62748 54.1846 9.08506 52.5277 7.84899ZM51.0509 10.2462C49.8197 10.7301 48.4565 10.4689 48.2395 9.75524C48.7768 9.6621 49.3069 9.54264 49.8156 9.35232C49.9394 9.30677 50.0203 9.31082 50.1206 9.40598C50.4102 9.68032 50.7131 9.94252 51.0509 10.2462ZM50.5146 9.07798C50.8605 8.88057 51.2392 8.72264 51.5462 8.47765C51.9474 8.15573 52.278 8.18003 52.674 8.47563C53.0159 8.72872 53.4068 8.91701 53.7855 9.13973C52.7416 9.84635 51.2678 10.0954 50.5146 9.07798ZM50.141 4.45459C50.2884 4.10027 50.4041 3.73279 50.5136 3.3643C50.7203 2.66477 50.9608 2.48862 51.67 2.61212C53.1602 2.86926 54.6483 3.13753 56.1343 3.41491C57.083 3.59207 59.9302 4.17721 59.9302 4.17721C59.9302 4.17721 57.9581 4.00714 56.7453 4.17721C55.6175 4.33514 54.5521 4.67427 53.5951 5.32116C53.022 5.70889 52.4315 5.75849 51.7959 5.47504C51.3118 5.2584 50.8165 5.06301 50.316 4.88889C50.053 4.79677 50.0458 4.68338 50.141 4.45459ZM73.8459 6.22822L73.848 6.22924C70.9056 5.54388 67.9591 4.87168 65.0065 4.22783C60.6487 3.27825 56.2878 2.34183 51.8829 1.62003C50.6231 1.41351 49.8463 1.91057 49.528 3.12235C49.3428 3.83403 49.0695 4.50926 48.655 5.11869C48.304 5.63499 47.8803 6.08245 47.257 6.2839C46.8701 6.40943 46.8056 6.35375 46.8896 5.97412C47.0697 5.16425 47.1853 4.34425 47.2795 3.52121C47.3368 3.02415 47.2611 2.87128 46.8015 2.62528C46.2039 2.30437 45.5826 2.03914 44.9461 1.80225C44.8621 1.77086 44.7792 1.74151 44.6943 1.71114C43.4518 1.24546 41.8358 0.963013 40.0663 0.963013C38.9026 0.963013 37.8055 1.08551 36.8363 1.30215C36.8261 1.30417 36.8159 1.3062 36.8056 1.30822C36.7074 1.33049 36.6091 1.35378 36.5129 1.37909C36.5037 1.38111 36.4935 1.38314 36.4843 1.38617C36.1455 1.47222 35.8241 1.57042 35.5253 1.67874C34.7813 1.94094 34.0577 2.26995 33.3433 2.6263C32.8777 2.85914 32.806 3.02617 32.8633 3.52121C32.9565 4.33007 33.069 5.1359 33.243 5.93161C33.2696 6.05309 33.3607 6.19583 33.2512 6.29605C33.1274 6.40943 32.9728 6.31427 32.8429 6.26872C32.2298 6.05005 31.8102 5.60158 31.4633 5.08123C31.0293 4.42928 30.7704 3.70647 30.5667 2.95531C30.2966 1.95714 29.4512 1.43173 28.4288 1.59269C27.1311 1.7982 25.8385 2.028 24.5479 2.27805C20.4941 3.05958 16.4586 3.92514 12.4304 4.82916C9.71622 5.43758 7.00615 6.06422 4.29813 6.69795L0.784668 7.51998L1.0436 7.65462V7.65765C1.06509 7.66778 1.08556 7.67689 1.10705 7.68701L1.7948 8.04336C3.94402 9.19035 6.16591 10.1713 8.50651 10.8779C10.7038 11.54 12.9288 11.9733 15.2407 11.5997C15.3748 11.5775 15.4935 11.6068 15.6194 11.6493C19.2915 12.9057 23.0864 13.1911 26.9305 12.9968C28.7645 12.9036 30.5862 12.8004 32.4038 13.1871C35.0873 13.7581 37.5456 14.8321 39.8084 16.3567C40.009 16.4914 40.1349 16.4975 40.3344 16.3567C41.2269 15.723 42.1848 15.1986 43.1755 14.7329C45.7761 13.51 48.4923 12.7558 51.3978 12.8996C53.1714 12.9877 54.941 13.1091 56.7177 13.0201C59.2466 12.8935 61.7448 12.5787 64.155 11.7718C64.548 11.6412 64.9144 11.5896 65.3319 11.6595C65.9716 11.7678 66.6256 11.7566 67.2754 11.7172C69.6641 11.5704 71.9096 10.8658 74.1182 10.0093C75.5152 9.46773 76.8559 8.81477 78.1843 8.13244L78.2211 8.11321L79.1003 7.64753L79.3592 7.50884L73.8459 6.22822Z" fill="white"/>
</g>
</g>
<defs>
<clipPath id="clip0_189_3366">
<rect width="78.5185" height="40" fill="white" transform="translate(0.927734)"/>
</clipPath>
</defs>
</svg>
