<svg width="130" height="41" viewBox="0 0 130 41" fill="none" xmlns="http://www.w3.org/2000/svg">
<g clip-path="url(#clip0_189_3133)">
<g opacity="0.7">
<path fill-rule="evenodd" clip-rule="evenodd" d="M78.1865 22.9405C78.1865 22.9405 77.9299 21.9933 77.9299 21.2937V10.3285H82.3183V31.4487L68.2729 19.8076C67.5216 19.166 67.0794 18.4519 67.0794 18.4519C67.0794 18.4519 67.3005 19.2384 67.3005 19.9209L67.2952 30.9731H62.9082V9.93323L76.8233 21.3438C77.5668 21.9775 78.1865 22.9405 78.1865 22.9405Z" fill="white"/>
<path fill-rule="evenodd" clip-rule="evenodd" d="M117.908 10.328C124.857 10.328 126.638 13.0723 126.638 17.0181C126.638 19.8783 124.536 22.6766 120.295 23.0099L119.831 23.031C119.831 23.031 120.239 23.1047 120.67 23.5184L128.366 30.9726H122.418L111.675 20.0495H117.025C121.817 20.0495 121.954 17.5213 121.989 16.8811C122.079 15.2448 121.554 13.9313 117.898 13.9313H111.784V30.9726H107.222V10.328H117.908Z" fill="white"/>
<path fill-rule="evenodd" clip-rule="evenodd" d="M84.2905 20.9456C84.2905 12.2964 91.5211 10.0251 97.5977 10.0251C100.032 10.0251 102.189 10.2425 104.452 10.7234L104.46 15.1079C103.156 14.71 100.536 13.8287 97.5977 13.8287C91.8382 13.8287 89.0394 16.0697 89.0394 20.9456C89.0394 24.9388 92.054 27.4841 97.5977 27.4841C100.536 27.4841 103.481 26.7846 104.903 26.2563L104.897 30.5117C102.631 30.9912 100.032 31.2876 97.5977 31.2876C91.108 31.2876 84.2905 28.1284 84.2905 20.9456Z" fill="white"/>
<path fill-rule="evenodd" clip-rule="evenodd" d="M34.9268 10.8595L39.2046 14.8936C39.0901 14.9463 38.9559 15.0095 38.7967 15.0899C38.5506 15.2177 38.2546 15.3902 37.9006 15.6353C37.1966 16.1241 36.2755 16.8961 35.0992 18.1688L26.7409 27.0261C25.3053 28.5424 23.85 29.7427 22.4946 30.3777L18.2168 26.3436C18.3326 26.2896 18.4681 26.2277 18.6234 26.1447C18.8708 26.0208 19.1668 25.8456 19.5195 25.6006C20.2235 25.1131 21.1459 24.3411 22.3196 23.0697L30.6792 14.2243C32.1135 12.7105 33.5728 11.4945 34.9268 10.8595Z" fill="white"/>
<path fill-rule="evenodd" clip-rule="evenodd" d="M18.3668 32.2752C20.259 32.2752 21.9959 31.8984 23.1763 31.2871C23.7144 31.0051 24.4829 30.519 25.1461 30.0039C25.8067 29.4887 26.7383 28.6877 27.5304 27.8459L35.9005 19.0136C38.0098 16.7871 39.2796 16.1007 40.0481 15.8293L44.3417 19.9003C43.4456 20.8594 32.7609 32.2528 32.7609 32.2528C32.0306 33.0393 31.2648 33.7982 30.7437 34.279C30.2437 34.7428 29.3844 35.4305 28.9423 35.7559C26.429 37.599 23.0723 39.0943 18.5524 39.0943C8.31242 39.0943 0.027832 30.7469 0.027832 21.1374C0.027832 9.21434 9.33089 2.29768 17.8063 2.29768C20.4025 2.22126 22.4881 2.65602 24.1329 3.21726C25.658 3.73634 26.808 4.36214 27.6409 4.78899C26.6567 5.42269 25.7027 6.28299 24.1276 7.96802L22.4118 9.81379C22.0157 9.66096 20.263 9.05098 18.0102 9.11817C12.5758 9.2789 6.62814 13.6937 6.84262 20.9305C7.04263 27.6983 12.6153 32.2752 18.3668 32.2752Z" fill="white"/>
<path fill-rule="evenodd" clip-rule="evenodd" d="M34.1926 10.0135C33.6518 10.2942 32.8821 10.779 32.2189 11.2954C31.5596 11.8092 30.628 12.6116 29.8359 13.4521L21.4684 22.2857C19.3577 24.5122 18.088 25.1973 17.3195 25.4687L13.0259 21.4004C13.9233 20.4399 24.6054 9.04653 24.6054 9.04653C25.3357 8.26 26.1028 7.50246 26.6239 7.01896C27.1239 6.55653 27.9831 5.86881 28.4266 5.5434C30.9359 3.70027 34.2979 2.20496 38.8179 2.20496C49.0591 2.20496 57.3384 10.5497 57.3384 20.1593C57.3384 32.085 48.0367 39.0003 39.56 39.0003C36.9638 39.0794 34.8782 38.6406 33.2334 38.0794C31.707 37.559 30.553 36.9319 29.7201 36.5037C30.7622 35.8015 31.6531 35.0282 33.24 33.3326L34.9558 31.4855C35.3506 31.6357 37.1046 32.2483 39.356 32.1824C44.7918 32.0204 50.7395 27.6056 50.525 20.3661C50.3236 13.5997 44.7484 9.02413 38.9981 9.02413C37.1046 9.02413 35.3716 9.39961 34.1926 10.0135Z" fill="white"/>
</g>
</g>
<defs>
<clipPath id="clip0_189_3133">
<rect width="129.524" height="40" fill="white" transform="translate(0.0371094 0.649414)"/>
</clipPath>
</defs>
</svg>
