<svg width="108" height="40" viewBox="0 0 108 40" fill="none" xmlns="http://www.w3.org/2000/svg">
<g opacity="0.7">
<mask id="mask0_189_3298" style="mask-type:luminance" maskUnits="userSpaceOnUse" x="37" y="20" width="65" height="20">
<g opacity="0.7">
<path d="M37.8442 20.8818H101.443V39.9527H37.8442V20.8818Z" fill="white"/>
</g>
</mask>
<g mask="url(#mask0_189_3298)">
<path fill-rule="evenodd" clip-rule="evenodd" d="M78.001 27.3708V36.982C78.1739 38.4917 79.503 39.6297 81.0772 39.6152C82.7895 39.6152 84.1551 38.2972 84.1845 36.6448V27.3682H84.8504C86.5654 27.3682 87.9586 26.022 87.9586 24.3979C87.9586 22.7446 86.5636 21.3983 84.8504 21.3983H77.3013C75.5961 21.4035 74.218 22.7411 74.2233 24.3867C74.2233 24.3901 74.2233 24.3944 74.2233 24.3979C74.2233 26.0203 75.588 27.3682 77.3013 27.3682H78.001V27.3708ZM89.6737 30.3394C90.6595 31.3501 91.7684 31.9618 93.1313 32.299C93.5137 32.3919 93.799 32.4512 94.1787 32.5132C94.4328 32.5751 94.6547 32.637 94.9087 32.7291C95.0362 32.8203 95.1628 32.8813 95.2564 33.0052C95.3785 33.1411 95.4462 33.3149 95.4462 33.4955V33.5858C95.4462 33.831 95.3518 34.0142 95.1601 34.2301C95.0166 34.3678 94.8223 34.4452 94.6199 34.4443C94.5887 34.4443 94.5246 34.4134 94.4925 34.4134C94.1841 34.3643 93.8845 34.2714 93.6047 34.1372C93.2659 34.0203 92.937 33.8775 92.6215 33.7097C92.313 33.5876 92.0251 33.4224 91.7666 33.2194C91.0651 32.7626 90.1568 32.7265 89.4196 33.1265C88.7921 33.4499 88.3241 34.0013 88.1182 34.6585C88.0308 34.9355 87.9881 35.2246 87.9925 35.5145C87.9925 36.4022 88.3428 37.1678 89.0078 37.7501C90.6889 39.1583 92.5617 39.8628 94.7804 39.8628C94.8767 39.8628 94.9703 39.8628 95.0665 39.8319H95.128C97.7237 39.8654 100.061 38.3213 100.967 35.9738C101.285 35.2082 101.443 34.5063 101.443 33.6788C101.443 32.5157 101.156 31.5067 100.523 30.496C100.03 29.677 99.3184 29 98.4627 28.5364C98.0134 28.2818 97.5472 28.0564 97.0677 27.8611C96.2262 27.5274 95.4142 27.3553 94.529 27.0947C94.3249 27.0465 94.1324 26.9639 93.9567 26.8521C93.7687 26.7119 93.6528 26.4994 93.6394 26.2697C93.6287 25.9867 93.7892 25.7226 94.0512 25.5944C94.1814 25.5041 94.3347 25.4517 94.4943 25.4422C94.8767 25.4422 95.194 25.5342 95.5104 25.7175C96.047 26.0246 96.523 26.2697 97.1265 26.4839C97.7273 26.6912 98.378 26.7231 98.9975 26.576C99.7276 26.2697 100.267 25.7484 100.489 24.9828C100.55 24.7996 100.55 24.6164 100.55 24.4332C100.55 23.6056 100.171 22.902 99.5029 22.4426C98.7319 21.8938 97.8601 21.4895 96.9349 21.2504C96.146 21.0043 95.3215 20.8805 94.4925 20.882C93.7401 20.877 92.9914 20.9803 92.272 21.1893C91.2612 21.4413 90.3547 21.985 89.6737 22.7471C88.653 23.7631 88.0932 25.1299 88.1182 26.545C88.1209 28.0134 88.629 29.2684 89.6737 30.3394ZM73.5298 24.065V32.6654C73.0859 36.859 69.4705 39.9532 65.1232 39.9532C60.7759 39.9532 57.1917 36.8607 56.7166 32.6654V24.065C56.8868 22.5484 58.2141 21.4 59.7945 21.4009C61.4115 21.4009 62.7102 22.5355 62.9028 24.065V32.0228C62.9714 33.1575 63.9457 34.0435 65.1232 34.0426C66.3052 34.0538 67.2848 33.1626 67.3436 32.0228V24.065C67.5335 22.5355 68.867 21.4009 70.4519 21.4009C72.0368 21.4009 73.3721 22.5329 73.5298 24.065ZM49.1666 38.6353L44.0278 32.3299V36.6465C44.0117 38.2921 42.6247 39.6177 40.9204 39.6177C39.3462 39.6323 38.0172 38.4942 37.8442 36.9846V24.4022C37.8442 22.7188 39.2393 21.4035 40.9525 21.4035H41.2698C42.0935 21.4646 42.7932 21.8026 43.3307 22.4142L48.4695 28.6904V24.4048C48.5016 22.7514 49.8645 21.4052 51.5778 21.4052C53.1626 21.4052 54.4632 22.5398 54.6557 24.0693V36.6508C54.6557 38.3041 53.2607 39.6504 51.5475 39.6504C51.4521 39.6504 51.3576 39.6504 51.2301 39.6194C50.4038 39.5532 49.7068 39.2486 49.1666 38.6353Z" fill="white"/>
</g>
<mask id="mask1_189_3298" style="mask-type:luminance" maskUnits="userSpaceOnUse" x="0" y="0" width="108" height="20">
<g opacity="0.7">
<path d="M0.0932617 0.860229H107.059V19.7452H0.0932617V0.860229Z" fill="white"/>
</g>
</mask>
<g mask="url(#mask1_189_3298)">
<path fill-rule="evenodd" clip-rule="evenodd" d="M107.059 3.85956V3.64536C107.059 2.11418 105.79 0.859985 104.171 0.859985C102.586 0.859985 101.285 2.11418 101.285 3.64536L101.346 6.82988C101.6 8.02386 102.648 8.81869 103.917 8.81869C105.154 8.81869 106.199 8.02386 106.485 6.82988L107.059 3.85956ZM74.5754 16.7791V4.19762C74.5754 2.54429 75.9383 1.19805 77.6507 1.19805C79.3639 1.19805 80.7295 2.54429 80.7295 4.19762V16.4419C80.7295 18.0944 79.3639 19.4098 77.6507 19.4098C76.0782 19.4251 74.7492 18.2879 74.5754 16.7791ZM62.5524 16.4419C62.5462 18.0875 61.1592 19.4165 59.454 19.4105C59.4504 19.4105 59.4477 19.4097 59.4442 19.4097C57.8753 19.4148 56.5525 18.2828 56.3689 16.7791V4.19762C56.3689 2.54429 57.7639 1.19805 59.4763 1.19805C61.1556 1.19805 62.5524 2.54429 62.5524 4.19762V8.48321L67.7233 2.11418C68.325 1.50257 69.0568 1.19547 69.9438 1.19547C71.657 1.19547 73.02 2.54171 73.02 4.19504C73.02 4.89869 72.8301 5.48192 72.3861 6.0316L68.7386 10.134L72.3861 14.6011C72.8301 15.1525 73.02 15.7357 73.02 16.4393C73.0315 18.0849 71.6579 19.4277 69.9536 19.4389C69.95 19.4389 69.9473 19.4389 69.9438 19.4389C69.0542 19.4389 68.325 19.1318 67.7233 18.5185L62.5524 12.1512V16.4419ZM94.1171 18.4325C94.7786 19.1077 95.6058 19.4432 96.5275 19.4432C98.2407 19.4432 99.6357 18.097 99.6357 16.4436V3.85956C99.4663 2.34386 98.14 1.19461 96.5595 1.19541C94.8463 1.19541 93.4513 2.54171 93.4513 4.19504V8.48063L88.3107 2.20622C87.652 1.49999 86.8631 1.19541 85.9004 1.19541C84.1952 1.18515 82.8037 2.50988 82.7921 4.15547C82.7921 4.15891 82.7921 4.16235 82.7921 4.16665V16.7791C82.9758 18.2836 84.3004 19.4157 85.8701 19.4097C87.5753 19.4208 88.9667 18.0961 88.9783 16.4505C88.9783 16.4479 88.9783 16.4445 88.9783 16.4419V12.1245L94.1171 18.4325ZM50.8798 1.19539C49.1986 1.19539 47.8036 2.54171 47.8036 4.19504V8.48063L42.6327 2.20622C42.1246 1.60493 41.3758 1.23762 40.5727 1.19539H40.2545C38.5493 1.18515 37.1578 2.50988 37.1471 4.15547C37.1462 4.15891 37.1462 4.16235 37.1462 4.16665V16.7791C37.3299 18.2828 38.6536 19.4148 40.2224 19.4097C41.9276 19.4208 43.3191 18.0961 43.3307 16.4505C43.3307 16.4479 43.3307 16.4445 43.3307 16.4419V12.1245L48.4695 18.4299C49.13 19.1051 49.9509 19.4406 50.8798 19.4406C52.585 19.4346 53.9622 18.0961 53.9559 16.4505C53.9559 16.4479 53.9559 16.4445 53.9559 16.4419V3.85956C53.7964 2.33869 52.4638 1.18429 50.8798 1.19539ZM18.6198 3.85956C18.7793 2.33869 20.1119 1.18429 21.6959 1.19538C23.3147 1.19538 24.6143 2.33009 24.8042 3.85956V11.789C24.8683 12.9503 25.8194 13.8398 27.0246 13.8398C28.2297 13.8398 29.1808 12.952 29.245 11.789V3.85956C29.4197 2.33353 30.7622 1.18343 32.3533 1.19538C33.9399 1.19538 35.2717 2.33009 35.4312 3.85956V12.46C34.9909 16.6157 31.3523 19.7684 27.0246 19.7453C22.696 19.7684 19.0583 16.6157 18.618 12.46V3.85956H18.6198ZM10.403 12.1555C9.90025 12.86 9.12118 13.3365 8.24584 13.4733H6.24736V7.13697H8.18256C9.13366 7.3202 9.83072 7.77955 10.403 8.48321C10.7827 9.06386 10.9423 9.6445 10.9423 10.3198C10.9423 10.9925 10.7524 11.5731 10.403 12.1555ZM15.5418 5.1774C13.8607 2.87977 11.544 1.53353 8.65766 1.19547H3.93066C1.8065 1.19547 0.0932617 2.8488 0.0932617 4.90128V15.7064C0.0932617 17.7572 1.8065 19.4097 3.93066 19.4097H8.65766C11.544 19.1034 13.8927 17.7572 15.5418 15.4312C16.5892 13.8372 17.0973 12.2157 17.0973 10.3198C17.1196 8.49439 16.5785 6.70429 15.5418 5.1774Z" fill="white"/>
</g>
<path fill-rule="evenodd" clip-rule="evenodd" d="M104.246 37.8604V37.1723H104.722C104.965 37.1723 105.223 37.223 105.223 37.4983C105.223 37.8381 104.959 37.8604 104.662 37.8604H104.246ZM104.246 38.1452H104.646L105.254 39.1121H105.646L104.99 38.1323C105.328 38.0901 105.589 37.9181 105.589 37.5207C105.589 37.0837 105.319 36.8893 104.775 36.8893H103.896V39.1138H104.246V38.1452ZM103.041 37.9903C103.041 37.0794 103.754 36.3886 104.67 36.3886C105.573 36.3886 106.287 37.0768 106.287 37.9903C106.287 38.9202 105.573 39.6015 104.67 39.6015C103.754 39.6041 103.041 38.9202 103.041 37.9903ZM104.67 39.9258C105.758 39.9258 106.689 39.1095 106.689 37.9903C106.688 36.928 105.794 36.0669 104.692 36.0686C104.685 36.0686 104.677 36.0686 104.67 36.0686C103.565 36.0669 102.669 36.9297 102.668 37.9955C102.668 39.0604 103.562 39.925 104.665 39.9258H104.67Z" fill="white"/>
<path fill-rule="evenodd" clip-rule="evenodd" d="M10.403 32.3584C9.86549 33.0931 9.13366 33.524 8.24674 33.6763H6.24737V27.3399H8.18256C9.08018 27.5025 9.87618 27.9963 10.403 28.7171C10.7827 29.2685 10.9405 29.8492 10.9405 30.5219C10.9378 31.1705 10.7524 31.8053 10.403 32.3584ZM15.5418 25.3795C13.8607 23.0845 11.544 21.7382 8.65766 21.3984H3.93066C1.81452 21.4079 0.102176 23.0621 0.0932617 25.1042V35.9094C0.0932617 37.9619 1.8065 39.6152 3.93066 39.6152H8.65766C11.544 39.3081 13.8928 37.9619 15.5418 35.6642C16.5892 34.0427 17.0964 32.4204 17.0964 30.5219C17.0964 28.6242 16.5892 26.9735 15.5418 25.3795Z" fill="white"/>
<path fill-rule="evenodd" clip-rule="evenodd" d="M27.5322 33.9806C25.5569 33.984 23.9525 32.4417 23.9489 30.5354V30.5225C23.9489 28.5931 25.5659 27.0326 27.5322 27.0326C29.5307 27.0326 31.1504 28.5931 31.1504 30.5225C31.1504 32.4511 29.5307 33.9806 27.5322 33.9806ZM27.5322 21.0627C22.1394 21.0627 17.7627 25.3199 17.7627 30.5225C17.7654 35.7285 22.1376 39.9479 27.5322 39.9505C32.934 39.9617 37.3232 35.744 37.3339 30.5311V30.5225C37.3294 25.3002 32.9438 21.0679 27.5322 21.0627Z" fill="white"/>
</g>
</svg>
