<svg width="59" height="40" viewBox="0 0 59 40" fill="none" xmlns="http://www.w3.org/2000/svg">
<g clip-path="url(#clip0_189_3814)">
<g opacity="0.7">
<path fill-rule="evenodd" clip-rule="evenodd" d="M32.7193 22.428C32.7145 22.6936 32.9476 22.8691 33.2196 22.8872L43.8094 22.7944C44.0894 22.7896 44.2713 22.6429 44.3193 22.3853C44.331 22.3235 44.3422 19.3533 44.3316 18.8499C44.3316 18.8499 44.3081 18.4392 43.8041 18.4392C43.3006 18.4392 37.4649 18.3864 37.4649 18.3864C37.4649 18.3864 37.3028 12.6573 37.3012 12.2552L42.7742 12.4253C43.0014 12.4488 43.1732 12.2424 43.1646 12.0691L42.8708 9.11975C42.826 8.80295 42.6121 8.61788 42.2782 8.59815L37.074 8.30375C37.074 8.30375 36.6654 3.86908 36.5572 3.17148C36.5572 3.17148 40.6729 3.42001 42.4004 3.60668C42.5918 3.61521 42.7022 3.50161 42.6782 3.32081C42.6782 3.32081 42.2617 1.59228 42.1385 1.10908C42.0617 0.812545 41.8633 0.684012 41.5934 0.659479C38.0494 0.342145 35.4548 0.189612 32.57 0.0408121C32.4318 0.0333455 32.2788 0.173612 32.2793 0.353345C32.4708 2.00828 32.7881 18.5149 32.7193 22.428Z" fill="white"/>
<path fill-rule="evenodd" clip-rule="evenodd" d="M21.7287 22.8581L24.8492 22.8827C25.1436 22.8789 25.3436 22.7259 25.414 22.4565C26.2636 17.9947 30.6924 0.4064 30.6924 0.4064C30.7468 0.224 30.6482 0 30.3804 0L26.9788 0.04C26.6839 0.0485333 26.5335 0.160533 26.4492 0.432C25.3666 4.21013 23.4146 12.7088 23.4146 12.7088C22.9175 10.7211 22.2775 0.618667 22.2775 0.618667C22.2668 0.397867 22.157 0.303467 21.9212 0.3104L18.8188 0.609067C18.517 0.650667 18.3735 0.803733 18.3655 1.09227C18.3655 1.09227 18.0044 7.75787 21.1676 22.4213C21.2071 22.6389 21.4434 22.8709 21.7287 22.8581Z" fill="white"/>
<path fill-rule="evenodd" clip-rule="evenodd" d="M12.822 7.21718C12.6902 9.40545 12.695 11.5937 12.8028 13.7457L10.894 13.8689C10.894 13.8689 11.7398 9.83851 12.822 7.21718ZM6.66144 22.5697L8.83371 22.6412C9.04171 22.646 9.16917 22.5596 9.23424 22.3756C9.23424 22.3756 9.71317 18.9489 10.0268 17.7809L13.2652 17.7148C13.2652 17.7148 13.8988 21.599 14.0998 22.3564C14.1617 22.6156 14.3372 22.7532 14.6172 22.7692L17.814 22.8161C18.1094 22.8012 18.3004 22.6022 18.278 22.326C18.278 22.326 16.703 15.4268 16.3164 11.9329C15.9292 8.43958 15.551 4.70785 15.7633 1.23425C15.7542 1.13505 15.6694 1.05771 15.5628 1.05078L13.502 1.39798C13.2726 1.43638 13.1164 1.55585 13.0028 1.73505C6.62357 13.4513 6.21392 22.1356 6.21392 22.1356C6.21077 22.4273 6.35157 22.5569 6.66144 22.5697Z" fill="white"/>
<mask id="mask0_189_3814" style="mask-type:luminance" maskUnits="userSpaceOnUse" x="30" y="24" width="10" height="16">
<g opacity="0.7">
<path d="M30.5161 24.219H39.2416V39.9998H30.5161V24.219Z" fill="white"/>
</g>
</mask>
<g mask="url(#mask0_189_3814)">
<path fill-rule="evenodd" clip-rule="evenodd" d="M38.7956 27.1648C39.0169 27.1483 39.1534 27.0091 39.1566 26.8331L39.2414 24.4939C39.2478 24.2998 39.0596 24.2096 38.9097 24.2198C38.9097 24.2198 31.3566 24.2998 30.9305 24.2992C30.7444 24.3286 30.6313 24.4491 30.6153 24.6251L30.5161 39.7494C30.5252 39.8827 30.6078 39.9712 30.7497 39.9936C33.1694 40.0454 37.3657 39.7536 37.3657 39.7536C37.7166 39.7323 37.8148 39.6544 37.8708 39.3339L38.1252 37.751C38.1438 37.5963 38.058 37.5088 37.8937 37.5019C36.9412 37.5456 33.554 37.7104 33.554 37.7104L33.755 34.1275C35.0841 34.087 37.7182 33.9787 37.7182 33.9787C37.8836 33.9616 37.9956 33.8571 38.0292 33.7046C38.0889 33.3392 38.2073 31.6571 38.2073 31.6571C38.203 31.4982 38.1028 31.3867 37.9337 31.3606C37.9337 31.3606 34.178 31.4486 33.9012 31.4459C33.9012 30.5051 34.0057 27.2475 34.0057 27.2475L38.7956 27.1648Z" fill="white"/>
</g>
<path fill-rule="evenodd" clip-rule="evenodd" d="M16.9322 30.9898C15.3898 30.2836 14.8741 30.1418 14.737 28.882C14.6533 28.1146 14.4965 26.8634 15.792 26.9652C17.3274 27.0868 17.1258 28.4932 17.2677 29.1428C17.2949 29.4058 17.409 29.5124 17.6848 29.5348L20.0346 29.6495C20.1957 29.6388 20.3093 29.5908 20.3157 29.3908C20.4037 26.5759 18.7418 24.0527 15.5877 23.9498C12.985 23.865 11.5504 25.9418 12.0874 28.85C12.4197 30.65 13.0613 31.849 15.0869 32.8431C17.2496 33.9039 17.8032 33.9855 18.1018 35.4271C18.264 36.2122 18.4586 37.1892 17.4448 37.1796C15.8666 37.1647 15.7872 35.8575 15.681 35.4372C15.6021 35.122 15.5104 35.0959 15.2549 35.0634L13.3797 34.8282C13.2117 34.817 13.1269 34.8516 13.1621 35.0431C13.7269 38.0847 16.2085 39.3748 18.4672 39.4255C20.376 39.4682 21.3333 38.4068 20.9429 35.5743C20.5248 32.5439 19.2704 32.0602 16.9322 30.9898Z" fill="white"/>
<path fill-rule="evenodd" clip-rule="evenodd" d="M56.1642 28.0552C56.2687 28.0451 57.0351 27.8739 57.1482 27.851C57.2613 27.828 57.3135 27.7555 57.3514 27.659C57.3887 27.563 57.5535 26.715 57.6053 26.3166C57.7439 25.2558 57.5119 23.4568 56.1247 23.4051C54.4954 23.3448 53.2986 25.4275 52.905 27.2739C52.7882 27.8216 52.4165 29.46 52.7263 30.4926C52.9541 31.2515 53.4911 31.4835 54.3018 31.8478C54.8165 32.0792 54.9343 32.2526 54.3871 33.7016C53.8821 35.0376 53.2229 35.2744 52.9178 35.2056C52.6197 35.1384 52.7135 34.7011 53.0234 33.8776C53.0858 33.7118 52.9941 33.643 52.8666 33.6664C52.7391 33.6899 51.625 33.948 51.625 33.948C51.4074 33.9923 51.3023 34.0771 51.2143 34.2963C50.2778 36.6398 51.041 37.2904 51.6058 37.3235C53.4351 37.4318 55.3157 34.7272 55.9199 32.7683C56.6581 30.3752 56.5861 30.0088 55.1162 29.3182C54.465 29.012 54.4069 28.9715 54.6837 27.5112C54.9386 26.1678 55.4149 26.0275 55.7621 26.0494C56.4085 26.0899 56.0778 27.508 56.0143 27.8184C55.9839 27.9651 56.0122 28.0702 56.1642 28.0552Z" fill="white"/>
<path fill-rule="evenodd" clip-rule="evenodd" d="M51.9712 26.2573L52.1787 24.1203C52.191 23.8648 52.1083 23.7885 51.839 23.8029L50.2582 23.8808C50.0507 23.8819 49.9131 24.0045 49.8822 24.1992C49.8118 24.8403 49.5046 27.8856 49.4971 28.2819C49.4955 28.3832 49.5968 28.4205 49.6859 28.3859C49.9131 28.3229 51.7798 26.6109 51.7798 26.6109C51.8907 26.5139 51.9515 26.396 51.9712 26.2573Z" fill="white"/>
<path fill-rule="evenodd" clip-rule="evenodd" d="M4.23089 34.1908C3.62503 32.9054 3.23196 31.7566 3.00689 30.8862C3.31889 30.914 3.72849 31.0708 4.03943 31.6201C4.35089 32.1689 4.93543 33.8249 4.93596 34.2068C4.93649 34.5881 4.23089 34.1908 4.23089 34.1908ZM2.84369 28.9006C2.70876 28.8697 2.41863 28.7924 2.41863 28.7924C2.27569 28.3614 1.87676 26.5966 1.78716 25.6601C2.55409 25.7065 2.84689 26.242 3.05703 27.2782C3.32103 28.5796 3.23729 28.9908 2.84369 28.9006ZM4.39143 30.3081C4.80423 29.8201 4.87623 29.0553 4.36689 26.9124C3.77436 24.4196 3.16636 23.3561 0.721027 23.1977C0.564761 23.1876 0.484761 23.2414 0.493294 23.443C0.501827 24.3497 1.35196 30.5806 3.98023 35.3017C4.09169 35.5188 4.23036 35.6558 4.47569 35.794C4.95943 36.067 6.10769 36.7358 6.45063 36.2473C6.78023 35.778 6.44156 34.6772 5.89649 33.0756C5.54343 32.0398 4.95143 30.7305 4.39143 30.3081Z" fill="white"/>
<path fill-rule="evenodd" clip-rule="evenodd" d="M45.6195 29.0704C45.356 31.1146 44.9155 31.3349 42.9144 31.3616C42.9939 30.6613 43.2723 27.9173 43.3432 27.0016C45.2232 26.8597 45.8952 26.929 45.6195 29.0704ZM44.5107 24.0922C42.4531 24.1429 40.7267 24.1888 40.7267 24.1888C40.5805 24.208 40.4061 24.3077 40.3971 24.5162C40.1421 30.5162 39.5683 35.5408 38.8243 39.3728C38.7923 39.5376 38.8739 39.6064 39.0285 39.6106C39.0285 39.6106 40.1475 39.536 41.0877 39.4138C41.2952 39.3898 41.4323 39.2864 41.4781 39.0896C41.4781 39.0896 42.2099 36.2805 42.5379 33.816C42.8003 33.7909 43.1016 33.7776 43.3416 33.7477C43.3416 33.7477 43.9016 37.1024 43.9731 38.8757C43.9864 38.9434 44.0392 38.9946 44.1112 38.9957C44.1112 38.9957 44.5459 38.9861 46.0248 38.6981C46.2371 38.6624 46.4179 38.5344 46.3928 38.2874C46.3464 35.6773 46.1048 33.8565 45.9261 32.936C47.5155 31.9386 48.1827 30.1877 48.2909 28.5936C48.4467 26.3114 48.0163 24.0053 44.5107 24.0922Z" fill="white"/>
<path fill-rule="evenodd" clip-rule="evenodd" d="M10.6286 24.257C10.6148 24.0309 10.4942 23.9077 10.2361 23.9045L8.52463 23.8319C8.38223 23.8282 8.25476 23.9002 8.26543 24.1402C8.95343 31.5599 10.2537 34.9989 10.2969 35.1541C10.2969 35.1541 10.6089 36.0005 9.99023 36.0005C9.09636 36.0005 8.76676 34.8021 8.76676 34.8021C6.83076 28.7317 6.64249 24.0874 6.64249 24.0874C6.61583 23.6693 6.30223 23.6997 6.30223 23.6997C6.30223 23.6997 5.17849 23.6266 5.02756 23.6122C4.87663 23.5973 4.76783 23.6213 4.74756 23.8383C5.31823 30.3194 7.00196 34.4181 7.00196 34.4181C7.71609 36.3573 9.11983 37.2944 9.11983 37.2944C10.4633 38.2842 11.7262 38.4789 12.3566 37.6671C12.8308 37.0565 12.6718 36.1626 12.4788 35.4991C11.3321 31.5642 10.7769 26.6549 10.6286 24.257Z" fill="white"/>
<path fill-rule="evenodd" clip-rule="evenodd" d="M51.5192 5.19156C51.5192 5.19156 53.0765 6.4161 51.9933 8.48223C51.9933 8.48223 50.6691 6.5937 50.6691 5.5873C50.6691 5.5873 50.6643 4.55103 51.5192 5.19156ZM54.5613 18.239C54.5613 18.239 54.0664 19.2465 53.3069 19.2465C52.5475 19.2465 52.0275 18.2433 51.8552 17.4076C51.7197 16.7478 51.4557 15.3276 52.3501 13.8044C52.3501 13.8044 54.2968 17.4657 54.5613 18.239ZM50.3976 21.6924C51.9912 23.4241 54.2856 23.0822 55.6946 21.0662C55.8712 21.6588 56.0605 22.2172 56.1421 22.3329C56.2237 22.4481 56.2819 22.4801 56.4104 22.4726C56.8867 22.4449 57.3635 22.4262 57.8403 22.399C58.0493 22.3873 58.1555 22.2892 58.1672 22.0449C58.1107 21.278 57.2146 18.695 57.0146 18.2502C57.4546 17.3601 57.8867 16.0641 57.8819 15.662C57.8787 15.4028 57.8322 15.1446 57.6509 14.9185C57.2018 14.231 56.5853 13.5782 56.5853 13.5782C56.4914 13.4812 56.3725 13.4993 56.3245 13.6204C56.1112 14.2038 56.0722 14.5601 55.7704 15.3174C55.6008 14.8353 54.2616 12.158 53.7437 11.3814C53.9928 10.9372 54.5731 9.93663 54.5731 8.55636C54.5731 6.81183 53.6909 5.19423 52.8504 4.23316C52.0104 3.27156 50.5901 2.10943 49.1149 2.2225C47.6397 2.3361 47.4893 3.8065 47.9795 5.75956C48.4696 7.71316 50.3848 10.6321 50.3848 10.6321C50.3848 10.6321 48.5656 12.7756 48.5656 15.8604C48.5656 18.9452 49.2904 20.4892 50.3976 21.6924Z" fill="white"/>
<path fill-rule="evenodd" clip-rule="evenodd" d="M4.48042 6.28566C4.48042 6.28566 5.94388 5.52619 5.52788 6.67979C4.44148 9.69046 3.52468 14.6019 3.41482 17.1374C3.37642 18.0307 3.25002 19.0531 1.85908 18.9123C1.97482 12.6158 3.91722 7.61686 4.48042 6.28566ZM2.19188 22.3577C3.71188 22.4638 4.54708 21.1459 4.54708 21.1459C6.38388 18.8585 5.55455 13.0958 7.63935 6.79606C8.45269 4.33739 7.97749 3.69099 7.56095 3.38273C6.81909 2.83393 4.56042 4.20299 4.56042 4.20299C4.17375 4.38059 4.00362 4.75926 4.00362 4.75926C2.06228 8.31553 -0.0769155 14.7113 0.342818 21.9833C0.355618 22.2019 0.437218 22.2286 0.672418 22.2521L2.19188 22.3577Z" fill="white"/>
<path fill-rule="evenodd" clip-rule="evenodd" d="M29.463 24.2913C26.2598 24.2406 20.6134 24.2188 20.6134 24.2188C20.4571 24.2337 20.3435 24.3302 20.3185 24.4737C20.2843 24.7494 20.4081 26.8603 20.4081 26.8603C20.4395 27.0294 20.5526 27.1281 20.7334 27.1473L23.3819 27.2198C23.5211 32.3692 24.2049 38.8582 24.319 39.5569C24.3537 39.7697 24.4358 39.8492 24.6385 39.8742C24.8411 39.8998 26.8353 39.9643 26.8353 39.9643C27.0566 39.9724 27.2198 39.8897 27.1873 39.6145C26.9883 37.5969 26.7302 27.2646 26.7302 27.2646C26.7302 27.2646 28.7542 27.2732 29.5073 27.2769C29.6763 27.2636 29.8081 27.1617 29.8081 27.0033V24.614C29.8081 24.4294 29.6646 24.3105 29.463 24.2913Z" fill="white"/>
<mask id="mask1_189_3814" style="mask-type:luminance" maskUnits="userSpaceOnUse" x="57" y="33" width="2" height="3">
<g opacity="0.7">
<path d="M57.1929 33.9341H58.2864V35.0295H57.1929V33.9341Z" fill="white"/>
</g>
</mask>
<g mask="url(#mask1_189_3814)">
<path fill-rule="evenodd" clip-rule="evenodd" d="M58.0718 34.8162C57.9806 34.9085 57.8691 34.9549 57.7385 34.9549C57.6078 34.9549 57.4969 34.9085 57.4051 34.8162C57.3145 34.7239 57.2686 34.6119 57.2686 34.4807C57.2686 34.3506 57.3145 34.2391 57.4062 34.1474C57.4979 34.0551 57.6089 34.0087 57.7385 34.0087C57.8686 34.0087 57.9801 34.0551 58.0718 34.1474C58.1635 34.2391 58.2089 34.3506 58.2089 34.4807C58.2089 34.6119 58.1635 34.7239 58.0718 34.8162ZM58.1262 34.0935C58.0195 33.9874 57.8899 33.9341 57.7385 33.9341C57.5881 33.9341 57.4595 33.9874 57.3529 34.0935C57.2462 34.2007 57.1929 34.3293 57.1929 34.4797C57.1929 34.6322 57.2457 34.7613 57.3513 34.8685C57.4579 34.9757 57.587 35.0295 57.7385 35.0295C57.8899 35.0295 58.0195 34.9757 58.1262 34.8685C58.2329 34.7613 58.2867 34.6317 58.2867 34.4797C58.2867 34.3287 58.2329 34.2002 58.1262 34.0935Z" fill="white"/>
</g>
<path fill-rule="evenodd" clip-rule="evenodd" d="M57.8205 34.4545C57.7981 34.4636 57.7645 34.4679 57.7197 34.4679H57.6237V34.2503H57.7143C57.773 34.2503 57.8157 34.2577 57.8423 34.2727C57.869 34.2876 57.8823 34.3169 57.8823 34.3607C57.8823 34.4071 57.8621 34.438 57.8205 34.4545ZM57.9773 34.7404C57.9762 34.7244 57.9757 34.7095 57.9757 34.6956V34.6513C57.9757 34.6215 57.965 34.59 57.9431 34.5585C57.9213 34.5265 57.8871 34.5068 57.8397 34.4999C57.877 34.4935 57.9058 34.4839 57.9266 34.4705C57.9661 34.4449 57.9853 34.4055 57.9853 34.3516C57.9853 34.2764 57.9543 34.2252 57.8925 34.1996C57.8573 34.1852 57.8029 34.1777 57.7282 34.1777H57.5181V34.7788H57.6237V34.5425H57.7074C57.7634 34.5425 57.8029 34.5489 57.8253 34.5617C57.8626 34.5841 57.8818 34.63 57.8818 34.6993V34.7468L57.8839 34.7665C57.8845 34.7687 57.885 34.7708 57.8855 34.7729C57.8861 34.7751 57.8866 34.7772 57.8871 34.7788H57.9863L57.9826 34.7713C57.9799 34.7665 57.9783 34.7559 57.9773 34.7404Z" fill="white"/>
</g>
</g>
<defs>
<clipPath id="clip0_189_3814">
<rect width="58.1333" height="40" fill="white" transform="translate(0.289551)"/>
</clipPath>
</defs>
</svg>
