<svg width="124" height="40" viewBox="0 0 124 40" fill="none" xmlns="http://www.w3.org/2000/svg">
<g clip-path="url(#clip0_189_3840)">
<g opacity="0.7">
<path fill-rule="evenodd" clip-rule="evenodd" d="M0.443848 15.41C0.588775 14.6853 0.733702 14.1056 0.878629 13.381C2.18298 7.87375 6.96559 3.381 12.6178 2.51143C15.8062 2.07665 18.8496 2.36651 21.7482 3.81578C23.6323 4.83027 23.6323 4.83027 23.6323 6.85926C23.6323 7.72883 23.6323 8.45346 23.6323 9.32303C23.6323 9.46795 23.6323 9.61288 23.6323 9.90274C22.6178 8.88825 21.6033 8.01868 20.2989 7.5839C16.9656 6.42448 13.6323 5.98969 10.4438 7.72883C6.96559 9.61288 5.22646 12.5114 5.22646 16.4245C5.08153 20.6274 7.69022 24.6853 11.7482 25.8448C16.096 27.1491 20.0091 26.4245 23.3424 23.2361C23.3424 23.2361 23.4873 23.0911 23.6323 22.9462C23.6323 23.2361 23.6323 23.381 23.6323 23.5259C23.6323 24.8303 23.6323 25.9897 23.6323 27.294C23.6323 27.7288 23.4873 28.0187 23.0525 28.3085C20.2989 30.0477 17.4004 30.7723 14.212 30.6274C8.55979 30.4824 3.19747 26.7143 1.31341 21.352C0.878631 20.3375 0.733703 19.1781 0.588776 18.1636C0.588776 18.0187 0.588775 18.0187 0.443848 17.8738C0.443848 17.0042 0.443848 16.1346 0.443848 15.41Z" fill="white"/>
<path fill-rule="evenodd" clip-rule="evenodd" d="M79.2845 0.0476074C79.2845 9.90268 79.2845 19.7578 79.2845 29.7578C79.2845 29.9027 79.2845 30.0476 79.2845 30.1925H75.2266C75.2266 29.9027 75.2266 29.7578 75.2266 29.4679C75.2266 19.9027 75.2266 10.3375 75.2266 0.772245C75.2266 0.627318 75.2266 0.337463 75.2266 0.192536H79.2845V0.0476074Z" fill="white"/>
<path fill-rule="evenodd" clip-rule="evenodd" d="M97.9803 18.0185C97.5455 15.4098 94.9368 13.5258 92.0383 13.6707C89.5745 13.8156 86.9658 15.9895 86.9658 18.0185H97.9803ZM86.9658 21.2069C86.8209 23.2359 88.2701 25.4098 90.2991 26.2794C92.7629 27.4388 96.0962 27.004 98.2701 24.1055C99.2846 24.8301 100.154 25.4098 101.314 26.1345C100.734 26.7142 100.299 27.2939 99.8643 27.7287C97.8354 29.7577 95.2267 30.4823 92.3281 30.4823C87.4006 30.3374 83.7774 27.004 83.1977 22.0765C82.7629 18.7432 83.4875 15.5548 85.8064 12.9461C87.5455 11.062 89.7194 10.1924 92.1832 10.1924C94.9368 10.0475 97.4006 10.7721 99.4296 12.8011C101.024 14.5403 101.893 16.5692 102.038 18.8881C102.038 19.4678 102.038 20.0475 102.183 20.7721C102.183 21.062 102.038 21.2069 101.748 21.2069C101.603 21.2069 101.459 21.2069 101.459 21.2069C96.9658 21.2069 92.3281 21.2069 87.8354 21.2069H86.9658Z" fill="white"/>
<path fill-rule="evenodd" clip-rule="evenodd" d="M36.9655 26.7144C40.5886 26.7144 43.1973 23.9607 43.1973 20.3376C43.1973 16.7144 40.5886 13.9607 36.9655 13.9607C33.3423 13.9607 30.5886 16.7144 30.5886 20.3376C30.7336 24.1057 33.4872 26.7144 36.9655 26.7144ZM36.9655 10.1926C42.7626 10.1926 47.2553 14.6854 47.2553 20.3376C47.2553 25.9897 42.7626 30.4825 36.8205 30.4825C31.0234 30.4825 26.3857 25.9897 26.3857 20.3376C26.6756 14.6854 31.1684 10.1926 36.9655 10.1926Z" fill="white"/>
<path fill-rule="evenodd" clip-rule="evenodd" d="M60.7337 14.1055C57.1105 14.1055 54.5018 16.8591 54.5018 20.4823C54.5018 24.2504 57.1105 26.8591 60.7337 26.8591C64.3569 26.8591 66.9656 24.1055 66.9656 20.4823C66.9656 16.7142 64.212 14.1055 60.7337 14.1055ZM60.7337 30.6273C54.9366 30.6273 50.4438 26.1345 50.4438 20.4823C50.4438 14.8302 55.2265 10.3374 60.8786 10.3374C66.6757 10.3374 71.1685 14.8302 71.1685 20.7722C71.0236 26.1345 66.3859 30.6273 60.7337 30.6273Z" fill="white"/>
<path fill-rule="evenodd" clip-rule="evenodd" d="M105.661 40.0476C105.806 39.6128 105.951 39.178 106.096 38.8882C107.69 35.4099 109.285 31.9316 110.879 28.4534C111.024 28.1635 111.024 27.8737 110.879 27.5838C108.27 22.2215 105.661 17.0041 103.198 11.6418C103.053 11.3519 103.053 11.207 102.908 10.9171C104.067 10.9171 105.227 10.9171 106.386 10.9171C107.111 10.9171 107.545 11.0621 107.835 11.7867C109.574 15.4099 111.314 19.0331 113.053 22.6563C113.198 22.8012 113.198 22.9461 113.342 23.236C113.487 23.0911 113.487 22.9461 113.632 22.6563C115.371 18.8882 117.111 15.12 118.85 11.207C118.995 10.9171 119.14 10.7722 119.574 10.7722C120.879 10.7722 122.038 10.7722 123.342 10.7722C123.198 10.9171 123.198 11.0621 123.198 11.207C118.85 20.6273 114.647 30.0476 110.299 39.6128C110.154 39.9027 109.864 40.0476 109.574 40.0476C108.27 40.0476 107.111 40.0476 105.661 40.0476Z" fill="white"/>
</g>
</g>
<defs>
<clipPath id="clip0_189_3840">
<rect width="122.899" height="40" fill="white" transform="translate(0.422852)"/>
</clipPath>
</defs>
</svg>
