<svg width="12" height="13" viewBox="0 0 12 13" fill="none" xmlns="http://www.w3.org/2000/svg">
<mask id="mask0_134_3933" style="mask-type:alpha" maskUnits="userSpaceOnUse" x="0" y="0" width="12" height="13">
<rect y="0.5" width="12" height="12" fill="#CBCBCB"/>
</mask>
<g mask="url(#mask0_134_3933)">
<path d="M4.425 8.9125L6 7.9625L7.575 8.925L7.1625 7.125L8.55 5.925L6.725 5.7625L6 4.0625L5.275 5.75L3.45 5.9125L4.8375 7.125L4.425 8.9125ZM2.9125 11L3.725 7.4875L1 5.125L4.6 4.8125L6 1.5L7.4 4.8125L11 5.125L8.275 7.4875L9.0875 11L6 9.1375L2.9125 11Z" fill="#CBCBCB"/>
<path d="M4.425 8.9125L6 7.9625L7.575 8.925L7.1625 7.125L8.55 5.925L6.725 5.7625L6 4.0625L5.275 5.75L3.45 5.9125L4.8375 7.125L4.425 8.9125Z" fill="#CBCBCB"/>
</g>
</svg>
