<svg width="153" height="18" viewBox="0 0 153 18" fill="none" xmlns="http://www.w3.org/2000/svg">
<mask id="mask0_69_1393" style="mask-type:alpha" maskUnits="userSpaceOnUse" x="0" y="0" width="18" height="18">
<path d="M0 0H18V18H0V0Z" fill="#D9D9D9"/>
</mask>
<g mask="url(#mask0_69_1393)">
<path d="M12 15V9.75H15V15H12ZM7.5 15V3H10.5V15H7.5ZM3 15V6.75H6V15H3Z" fill="white"/>
</g>
<path d="M121 9.49991C121 11.489 120.21 13.3967 118.803 14.8032C117.397 16.2097 115.489 16.9999 113.5 16.9999C111.511 16.9999 109.603 16.2097 108.197 14.8032C106.79 13.3967 106 11.489 106 9.49991H107.246C107.246 11.1587 107.905 12.7495 109.078 13.9224C110.25 15.0953 111.841 15.7542 113.5 15.7542C115.159 15.7542 116.75 15.0953 117.922 13.9224C119.095 12.7495 119.754 11.1587 119.754 9.49991H121Z" fill="#C4CACD" fill-opacity="0.8"/>
<path d="M113.862 2.00857C115.849 2.10455 117.716 2.98586 119.053 4.45861C120.39 5.93136 121.087 7.87492 120.991 9.86172L119.747 9.80162C119.827 8.1448 119.246 6.52405 118.131 5.29591C117.016 4.06777 115.459 3.33284 113.802 3.25281L113.862 2.00857Z" fill="white" fill-opacity="0.8"/>
<path d="M106 9.49991C106 8.35717 106.262 7.22953 106.764 6.20311C107.266 5.1767 107.996 4.27863 108.899 3.5775L109.663 4.56116C108.911 5.14584 108.302 5.89474 107.883 6.75068C107.464 7.60662 107.246 8.54697 107.246 9.49991H106Z" fill="white" fill-opacity="0.8"/>
<path d="M108.899 3.5775C110.384 2.42365 112.248 1.86986 114.122 2.02586L114.019 3.26725C112.456 3.13716 110.902 3.59895 109.663 4.56116L108.899 3.5775Z" fill="#C4CACD" fill-opacity="0.8"/>
<mask id="mask1_69_1393" style="mask-type:alpha" maskUnits="userSpaceOnUse" x="135" y="0" width="18" height="18">
<path d="M135 0H153V18H135V0Z" fill="#D9D9D9"/>
</mask>
<g mask="url(#mask1_69_1393)">
<path fill-rule="evenodd" clip-rule="evenodd" d="M141.075 15.9094C141.987 16.3031 142.963 16.5 144 16.5C145.038 16.5 146.012 16.3031 146.925 15.9094C147.838 15.5156 148.631 14.9813 149.306 14.3063C149.981 13.6313 150.516 12.8375 150.909 11.925C151.303 11.0125 151.5 10.0375 151.5 9C151.5 7.9625 151.303 6.9875 150.909 6.075C150.516 5.1625 149.981 4.36875 149.306 3.69375C148.631 3.01875 147.838 2.48438 146.925 2.09063C146.012 1.69688 145.038 1.5 144 1.5C142.963 1.5 141.987 1.69688 141.075 2.09063C140.162 2.48438 139.369 3.01875 138.694 3.69375C138.019 4.36875 137.484 5.1625 137.091 6.075C136.697 6.9875 136.5 7.9625 136.5 9C136.5 10.0375 136.697 11.0125 137.091 11.925C137.484 12.8375 138.019 13.6313 138.694 14.3063C139.369 14.9813 140.162 15.5156 141.075 15.9094ZM148.256 13.2563C147.094 14.4188 145.675 15 144 15C142.325 15 140.906 14.4188 139.744 13.2563C138.581 12.0938 138 10.675 138 9C138 7.325 138.581 5.90625 139.744 4.74375C140.906 3.58125 142.325 3 144 3C145.675 3 147.094 3.58125 148.256 4.74375C149.419 5.90625 150 7.325 150 9C150 10.675 149.419 12.0938 148.256 13.2563Z" fill="#C4CACD" fill-opacity="0.8"/>
<path fill-rule="evenodd" clip-rule="evenodd" d="M144 15C145.675 15 147.094 14.4188 148.256 13.2563C149.419 12.0938 150 10.675 150 9C150 7.325 149.419 5.90625 148.256 4.74375C147.094 3.58125 145.675 3 144 3C142.325 3 140.906 3.58125 139.744 4.74375C138.581 5.90625 138 7.325 138 9C138 10.675 138.581 12.0938 139.744 13.2563C140.906 14.4188 142.325 15 144 15ZM144.75 12.75H143.25V9.75H140.25V8.25H143.25V5.25H144.75V8.25H147.75V9.75H144.75V12.75Z" fill="#C4CACD" fill-opacity="0.8"/>
</g>
</svg>
