<svg width="144" height="41" viewBox="0 0 144 41" fill="none" xmlns="http://www.w3.org/2000/svg">
<g clip-path="url(#clip0_189_3480)">
<g opacity="0.7">
<mask id="mask0_189_3480" style="mask-type:luminance" maskUnits="userSpaceOnUse" x="0" y="1" width="35" height="40">
<g opacity="0.7">
<path d="M0.402344 1.20959H34.5974V40.7146H0.402344V1.20959Z" fill="white"/>
</g>
</mask>
<g mask="url(#mask0_189_3480)">
<path fill-rule="evenodd" clip-rule="evenodd" d="M28.0252 22.0028H20.3499V29.5013H14.6487V22.0028H6.97454V16.4322H14.6487V8.93267H20.3499V16.4322H28.0252V22.0028ZM33.2269 1.20959H1.77293C1.01469 1.20959 0.402344 1.80899 0.402344 2.54879V27.121C0.402344 27.5281 0.592458 27.9148 0.918525 28.1675L16.6449 40.4222C17.1445 40.8121 17.8541 40.8121 18.3549 40.4222L34.0813 28.1675C34.4073 27.9148 34.5974 27.5281 34.5974 27.121V2.54879C34.5974 1.80899 33.984 1.20959 33.2269 1.20959Z" fill="white"/>
</g>
<mask id="mask1_189_3480" style="mask-type:luminance" maskUnits="userSpaceOnUse" x="0" y="1" width="145" height="40">
<g opacity="0.7">
<path d="M0.401855 40.7147H144.093V1.20935H0.401855V40.7147Z" fill="white"/>
</g>
</mask>
<g mask="url(#mask1_189_3480)">
<path fill-rule="evenodd" clip-rule="evenodd" d="M14.6494 22.0026H20.3495V16.432H14.6494V22.0026Z" fill="white"/>
</g>
<mask id="mask2_189_3480" style="mask-type:luminance" maskUnits="userSpaceOnUse" x="0" y="1" width="145" height="40">
<g opacity="0.7">
<path d="M0.401855 40.7147H144.093V1.20935H0.401855V40.7147Z" fill="white"/>
</g>
</mask>
<g mask="url(#mask2_189_3480)">
<path fill-rule="evenodd" clip-rule="evenodd" d="M51.6976 20.4008C51.6556 19.8057 51.5031 19.2517 51.2411 18.7344C50.9791 18.2181 50.6354 17.7678 50.2098 17.3855C49.7865 17.0031 49.2957 16.7007 48.742 16.4815C48.1882 16.2623 47.5991 16.151 46.9746 16.151C46.3501 16.151 45.7609 16.2623 45.2061 16.4815C44.6523 16.7007 44.1682 17.0042 43.7515 17.3909C43.3348 17.7775 42.9954 18.2289 42.7335 18.7463C42.4704 19.2625 42.319 19.8144 42.277 20.4008H51.6976ZM42.3146 21.389C42.3643 21.9755 42.5202 22.5209 42.7832 23.0252C43.0452 23.5296 43.3845 23.9691 43.8001 24.3428C44.2168 24.7176 44.6943 25.0135 45.2315 25.2284C45.7687 25.4444 46.3457 25.5524 46.9624 25.5524C47.6776 25.5524 48.3474 25.4099 48.9675 25.1247C49.5875 24.8396 50.0894 24.453 50.4729 23.9648C50.673 23.8017 50.873 23.7542 51.0731 23.8179C51.1715 23.8503 51.2599 23.9249 51.335 24.0383C51.4268 24.1441 51.4743 24.2726 51.4787 24.4227C51.4832 24.5729 51.4091 24.7133 51.2599 24.8439C50.7769 25.3742 50.1745 25.8105 49.4549 26.1561C48.7331 26.5017 47.903 26.6756 46.9624 26.6756C46.1379 26.6756 45.3652 26.5223 44.6446 26.2177C43.9239 25.9131 43.2928 25.4973 42.7512 24.9714C42.2096 24.4476 41.7829 23.8309 41.4712 23.1235C41.1584 22.4139 41.0015 21.6579 41.0015 20.8523C41.0015 20.0466 41.1584 19.2917 41.4712 18.5875C41.7829 17.8833 42.2096 17.2699 42.7512 16.7439C43.2928 16.2191 43.9239 15.8043 44.6446 15.4987C45.3652 15.1941 46.1379 15.0408 46.9624 15.0408C47.7781 15.0408 48.5486 15.192 49.2736 15.4922C49.9976 15.7935 50.6287 16.2072 51.167 16.7321C51.7031 17.2569 52.1309 17.8715 52.447 18.5756C52.7631 19.2798 52.9212 20.0304 52.9212 20.8285C52.9212 20.9905 52.8681 21.1244 52.7598 21.2313C52.6504 21.3361 52.5133 21.389 52.3475 21.389H42.3146Z" fill="white"/>
</g>
<mask id="mask3_189_3480" style="mask-type:luminance" maskUnits="userSpaceOnUse" x="0" y="1" width="145" height="40">
<g opacity="0.7">
<path d="M0.401855 40.7147H144.093V1.20935H0.401855V40.7147Z" fill="white"/>
</g>
</mask>
<g mask="url(#mask3_189_3480)">
<path fill-rule="evenodd" clip-rule="evenodd" d="M54.7213 16.6652C55.0871 16.177 55.537 15.7796 56.0709 15.4739C56.6025 15.1694 57.1828 15.0171 57.8073 15.0171C58.5479 15.0171 59.2122 15.1942 59.8002 15.5474C60.3871 15.9016 60.8514 16.3638 61.1918 16.933C61.393 16.6479 61.6251 16.3876 61.8926 16.1511C62.1589 15.9167 62.4519 15.7148 62.7735 15.5474C63.094 15.381 63.429 15.2504 63.7782 15.1575C64.1286 15.0635 64.4867 15.0171 64.8537 15.0171C65.3942 15.0171 65.9004 15.1143 66.3713 15.3098C66.8422 15.5053 67.25 15.7742 67.596 16.1154C67.9419 16.4578 68.2183 16.8585 68.4261 17.3175C68.635 17.7776 68.7466 18.2679 68.7643 18.7895C68.772 18.8133 68.7765 18.8468 68.7765 18.8867V25.9434C68.7765 26.1054 68.7201 26.2437 68.6073 26.3582C68.4957 26.4716 68.3564 26.5288 68.1895 26.5288C68.0315 26.5288 67.8911 26.4716 67.7717 26.3582C67.6501 26.2437 67.5905 26.1054 67.5905 25.9434V18.8749C67.5905 18.4915 67.5098 18.1372 67.3528 17.8121C67.1937 17.487 66.9836 17.2041 66.7206 16.9632C66.4586 16.7246 66.1569 16.5366 65.8153 16.4027C65.4749 16.2677 65.1157 16.2008 64.741 16.2008C64.3497 16.2008 63.9728 16.2764 63.6102 16.4265C63.2477 16.5777 62.9293 16.7786 62.6552 17.0313C62.38 17.2829 62.1589 17.5767 61.992 17.9093C61.8262 18.2441 61.7433 18.593 61.7433 18.9602V25.9434C61.7433 26.1054 61.687 26.2437 61.5731 26.3582C61.4615 26.4716 61.3222 26.5288 61.1553 26.5288C60.9884 26.5288 60.8469 26.4716 60.7309 26.3582C60.6137 26.2437 60.5551 26.1054 60.5551 25.9434V18.8986C60.5551 18.5163 60.4789 18.161 60.3241 17.8305C60.1705 17.5 59.9638 17.216 59.7063 16.9762C59.4476 16.7354 59.1481 16.5474 58.8065 16.4081C58.465 16.2699 58.1069 16.2008 57.7322 16.2008C57.332 16.2008 56.9518 16.2742 56.5882 16.42C56.2256 16.5669 55.9073 16.7667 55.6321 17.0183C55.3579 17.2721 55.1369 17.5637 54.9711 17.8985C54.8042 18.2312 54.7213 18.5811 54.7213 18.9472V25.9305C54.7213 26.0936 54.6638 26.234 54.5522 26.3517C54.4394 26.4694 54.3002 26.5288 54.1344 26.5288C53.9664 26.5288 53.8249 26.4694 53.7088 26.3517C53.5928 26.234 53.5342 26.0936 53.5342 25.9305V15.6143C53.5342 15.4523 53.5928 15.3141 53.7088 15.2007C53.8249 15.0862 53.9664 15.029 54.1344 15.029C54.3002 15.029 54.4394 15.0862 54.5522 15.2007C54.6638 15.3141 54.7213 15.4523 54.7213 15.6143V16.6652Z" fill="white"/>
</g>
<mask id="mask4_189_3480" style="mask-type:luminance" maskUnits="userSpaceOnUse" x="0" y="1" width="145" height="40">
<g opacity="0.7">
<path d="M0.401855 40.7147H144.093V1.20935H0.401855V40.7147Z" fill="white"/>
</g>
</mask>
<g mask="url(#mask4_189_3480)">
<path fill-rule="evenodd" clip-rule="evenodd" d="M80.0614 20.4008C80.0194 19.8057 79.8668 19.2517 79.6049 18.7344C79.3429 18.2181 78.9991 17.7678 78.5736 17.3855C78.1503 17.0031 77.6595 16.7007 77.1057 16.4815C76.552 16.2623 75.9629 16.151 75.3383 16.151C74.7138 16.151 74.1247 16.2623 73.5698 16.4815C73.0161 16.7007 72.532 17.0042 72.1153 17.3909C71.6985 17.7775 71.3592 18.2289 71.0973 18.7463C70.8342 19.2625 70.6828 19.8144 70.6408 20.4008H80.0614ZM70.6783 21.389C70.7281 21.9755 70.8839 22.5209 71.147 23.0252C71.409 23.5296 71.7483 23.9691 72.1639 24.3428C72.5806 24.7176 73.0581 25.0135 73.5953 25.2284C74.1325 25.4444 74.7094 25.5524 75.3262 25.5524C76.0413 25.5524 76.7112 25.4099 77.3312 25.1247C77.9513 24.8396 78.4531 24.453 78.8367 23.9648C79.0356 23.8017 79.2368 23.7542 79.4369 23.8179C79.5352 23.8503 79.6237 23.9249 79.6988 24.0383C79.7906 24.1441 79.8381 24.2726 79.8425 24.4227C79.8469 24.5729 79.7729 24.7133 79.6237 24.8439C79.1406 25.3742 78.5382 25.8105 77.8187 26.1561C77.0969 26.5017 76.2668 26.6756 75.3262 26.6756C74.5016 26.6756 73.729 26.5223 73.0083 26.2177C72.2877 25.9131 71.6566 25.4973 71.1149 24.9714C70.5733 24.4476 70.1467 23.8309 69.835 23.1235C69.5222 22.4139 69.3652 21.6579 69.3652 20.8523C69.3652 20.0466 69.5222 19.2917 69.835 18.5875C70.1467 17.8833 70.5733 17.2699 71.1149 16.7439C71.6566 16.2191 72.2877 15.8043 73.0083 15.4987C73.729 15.1941 74.5016 15.0408 75.3262 15.0408C76.1419 15.0408 76.9123 15.192 77.6374 15.4922C78.3614 15.7935 78.9925 16.2072 79.5308 16.7321C80.0669 17.2569 80.4946 17.8715 80.8108 18.5756C81.1269 19.2798 81.2849 20.0304 81.2849 20.8285C81.2849 20.9905 81.2319 21.1244 81.1236 21.2313C81.0141 21.3361 80.8771 21.389 80.7113 21.389H70.6783Z" fill="white"/>
</g>
<mask id="mask5_189_3480" style="mask-type:luminance" maskUnits="userSpaceOnUse" x="0" y="1" width="145" height="40">
<g opacity="0.7">
<path d="M0.401855 40.7147H144.093V1.20935H0.401855V40.7147Z" fill="white"/>
</g>
</mask>
<g mask="url(#mask5_189_3480)">
<path fill-rule="evenodd" clip-rule="evenodd" d="M83.0846 17.5068C83.3675 17.1321 83.6881 16.7929 84.0462 16.4884C84.4032 16.1817 84.7956 15.9225 85.2211 15.7065C85.6445 15.4915 86.0954 15.3241 86.5696 15.2053C87.0449 15.0887 87.5357 15.0293 88.0441 15.0293H88.1569C88.3569 15.0293 88.5106 15.0844 88.6189 15.1935C88.7261 15.3036 88.7814 15.4397 88.7814 15.6028C88.7814 15.7745 88.7217 15.9138 88.6001 16.024C88.4796 16.1341 88.3315 16.1881 88.1569 16.1881H88.0441C87.3699 16.1881 86.7321 16.3167 86.133 16.5737C85.5328 16.8297 85.0056 17.1796 84.5524 17.6224C84.0981 18.0673 83.74 18.5857 83.477 19.1797C83.215 19.7737 83.0846 20.412 83.0846 21.0957V25.9308C83.0846 26.0928 83.026 26.2343 82.911 26.3509C82.795 26.4697 82.6546 26.5291 82.491 26.5291C82.3341 26.5291 82.1959 26.4697 82.0765 26.3509C81.956 26.2343 81.8975 26.0928 81.8975 25.9308V15.6147C81.8975 15.4527 81.9549 15.3144 82.0699 15.1999C82.1859 15.0865 82.3252 15.0293 82.491 15.0293C82.6634 15.0293 82.806 15.0865 82.9177 15.1999C83.0282 15.3144 83.0846 15.4527 83.0846 15.6147V17.5068Z" fill="white"/>
</g>
<mask id="mask6_189_3480" style="mask-type:luminance" maskUnits="userSpaceOnUse" x="0" y="1" width="145" height="40">
<g opacity="0.7">
<path d="M0.401855 40.7147H144.093V1.20935H0.401855V40.7147Z" fill="white"/>
</g>
</mask>
<g mask="url(#mask6_189_3480)">
<path fill-rule="evenodd" clip-rule="evenodd" d="M89.2558 20.8639C89.2558 21.4989 89.3785 22.0972 89.625 22.6588C89.8715 23.2204 90.2086 23.7129 90.6386 24.1363C91.0685 24.5596 91.5726 24.8944 92.1517 25.1428C92.732 25.3912 93.3554 25.5154 94.0219 25.5154C94.6564 25.5154 95.2533 25.4042 95.8125 25.1796C96.3707 24.956 96.8604 24.6514 97.2815 24.2637C97.7026 23.8782 98.0442 23.4235 98.3072 22.9029C98.5703 22.3824 98.7262 21.8294 98.7759 21.243V20.4859C98.7262 19.8843 98.5703 19.3216 98.3072 18.8011C98.0442 18.2794 97.7004 17.8258 97.276 17.4403C96.8493 17.0536 96.3608 16.7502 95.8059 16.5298C95.251 16.3106 94.6564 16.2015 94.0219 16.2015C93.3554 16.2015 92.732 16.3236 92.1517 16.5666C91.5726 16.8117 91.0685 17.1433 90.6386 17.5612C90.2086 17.9814 89.8715 18.476 89.625 19.0452C89.3785 19.6154 89.2558 20.2213 89.2558 20.8639ZM99.9641 25.1169C99.9641 26.0036 99.8116 26.8125 99.5054 27.5448C99.2014 28.2759 98.7847 28.9023 98.2575 29.424C97.7292 29.9434 97.1069 30.3474 96.3906 30.6379C95.6744 30.9252 94.9073 31.0699 94.0916 31.0699C93.3333 31.0699 92.6016 30.936 91.8986 30.667C91.1945 30.3981 90.5977 30.0212 90.1058 29.532C89.9643 29.3926 89.8914 29.2393 89.887 29.0686C89.8825 28.8969 89.9511 28.7554 90.0937 28.641C90.1854 28.5589 90.2727 28.5103 90.3556 28.4941C90.4385 28.4779 90.5203 28.4779 90.5999 28.4941C90.6784 28.5103 90.7513 28.5405 90.8176 28.5859C90.8851 28.6302 90.9503 28.6766 91.0177 28.7263C91.4587 29.1172 91.9495 29.4099 92.4856 29.6054C93.0227 29.7998 93.592 29.8938 94.1911 29.8862C94.8321 29.8862 95.4323 29.7674 95.9905 29.532C96.5487 29.2965 97.0339 28.9682 97.4462 28.5492C97.8585 28.1301 98.1834 27.6301 98.4211 27.048C98.6576 26.4669 98.7759 25.8211 98.7759 25.1137V24.3674C98.2266 25.0759 97.5413 25.6375 96.7211 26.0533C95.901 26.4669 95.0035 26.6754 94.0286 26.6754C93.2128 26.6754 92.4424 26.5231 91.7185 26.2185C90.9923 25.914 90.36 25.4982 89.8184 24.9744C89.2768 24.4495 88.8502 23.8339 88.5385 23.1265C88.2246 22.4191 88.0698 21.6674 88.0698 20.8704C88.0698 20.0658 88.2246 19.3076 88.5385 18.5959C88.8502 17.8842 89.2768 17.2664 89.8184 16.7426C90.36 16.2177 90.9923 15.803 91.7185 15.4984C92.4424 15.1939 93.2128 15.0405 94.0286 15.0405C94.5116 15.0405 94.9802 15.0956 95.4345 15.2058C95.8888 15.3159 96.3177 15.4725 96.7211 15.6756C97.1257 15.8797 97.5004 16.1227 97.8452 16.4078C98.1912 16.694 98.5018 17.0115 98.7759 17.3604V15.6151C98.7759 15.452 98.8345 15.3159 98.9505 15.2058C99.0644 15.0956 99.2048 15.0405 99.3694 15.0405C99.5352 15.0405 99.6756 15.0956 99.7906 15.2058C99.9055 15.3159 99.9641 15.452 99.9641 15.6151V25.1169Z" fill="white"/>
</g>
<mask id="mask7_189_3480" style="mask-type:luminance" maskUnits="userSpaceOnUse" x="0" y="1" width="145" height="40">
<g opacity="0.7">
<path d="M0.401855 40.7147H144.093V1.20935H0.401855V40.7147Z" fill="white"/>
</g>
</mask>
<g mask="url(#mask7_189_3480)">
<path fill-rule="evenodd" clip-rule="evenodd" d="M111.393 20.4008C111.351 19.8057 111.199 19.2517 110.937 18.7344C110.675 18.2181 110.331 17.7678 109.906 17.3855C109.482 17.0031 108.992 16.7007 108.438 16.4815C107.884 16.2623 107.295 16.151 106.67 16.151C106.046 16.151 105.457 16.2623 104.902 16.4815C104.348 16.7007 103.864 17.0042 103.447 17.3909C103.031 17.7775 102.691 18.2289 102.429 18.7463C102.166 19.2625 102.015 19.8144 101.973 20.4008H111.393ZM102.01 21.389C102.06 21.9755 102.216 22.5209 102.479 23.0252C102.741 23.5296 103.08 23.9691 103.496 24.3428C103.913 24.7176 104.39 25.0135 104.927 25.2284C105.464 25.4444 106.041 25.5524 106.658 25.5524C107.373 25.5524 108.043 25.4099 108.662 25.1247C109.283 24.8396 109.785 24.453 110.169 23.9648C110.368 23.8017 110.569 23.7542 110.769 23.8179C110.867 23.8503 110.956 23.9249 111.031 24.0383C111.123 24.1441 111.17 24.2726 111.175 24.4227C111.179 24.5729 111.105 24.7133 110.956 24.8439C110.473 25.3742 109.87 25.8105 109.151 26.1561C108.429 26.5017 107.599 26.6756 106.658 26.6756C105.834 26.6756 105.061 26.5223 104.34 26.2177C103.62 25.9131 102.989 25.4973 102.447 24.9714C101.905 24.4476 101.479 23.8309 101.167 23.1235C100.854 22.4139 100.697 21.6579 100.697 20.8523C100.697 20.0466 100.854 19.2917 101.167 18.5875C101.479 17.8833 101.905 17.2699 102.447 16.7439C102.989 16.2191 103.62 15.8043 104.34 15.4987C105.061 15.1941 105.834 15.0408 106.658 15.0408C107.474 15.0408 108.244 15.192 108.969 15.4922C109.693 15.7935 110.325 16.2072 110.863 16.7321C111.399 17.2569 111.827 17.8715 112.143 18.5756C112.459 19.2798 112.617 20.0304 112.617 20.8285C112.617 20.9905 112.564 21.1244 112.454 21.2313C112.346 21.3361 112.209 21.389 112.043 21.389H102.01Z" fill="white"/>
</g>
<mask id="mask8_189_3480" style="mask-type:luminance" maskUnits="userSpaceOnUse" x="0" y="1" width="145" height="40">
<g opacity="0.7">
<path d="M0.401855 40.7147H144.093V1.20935H0.401855V40.7147Z" fill="white"/>
</g>
</mask>
<g mask="url(#mask8_189_3480)">
<path fill-rule="evenodd" clip-rule="evenodd" d="M114.267 17.4825C114.508 17.1163 114.783 16.7848 115.091 16.4878C115.399 16.1908 115.735 15.9337 116.096 15.7188C116.459 15.5028 116.84 15.3365 117.239 15.2177C117.64 15.1 118.052 15.0406 118.477 15.0406C119.184 15.0406 119.823 15.1669 120.395 15.4197C120.966 15.6713 121.452 16.0353 121.856 16.5126C122.26 16.9878 122.573 17.5699 122.793 18.2579C123.014 18.9448 123.129 19.7202 123.137 20.5831V25.9551C123.137 26.1181 123.082 26.2564 122.969 26.3709C122.856 26.4843 122.708 26.5415 122.526 26.5415C122.358 26.5415 122.221 26.4843 122.113 26.3709C122.004 26.2564 121.95 26.1181 121.95 25.9551V20.6447C121.95 19.1964 121.631 18.0927 120.995 17.3356C120.357 16.5796 119.476 16.2005 118.352 16.2005C117.786 16.2005 117.254 16.315 116.759 16.5429C116.264 16.7707 115.832 17.0818 115.466 17.476C115.099 17.8713 114.807 18.3357 114.592 18.8681C114.375 19.4005 114.267 19.9773 114.267 20.5961V25.9302C114.267 26.0933 114.209 26.2348 114.098 26.3514C113.985 26.4691 113.846 26.5285 113.68 26.5285C113.512 26.5285 113.37 26.4691 113.254 26.3514C113.138 26.2348 113.08 26.0933 113.08 25.9302V15.6151C113.08 15.4521 113.138 15.3138 113.254 15.2004C113.37 15.0859 113.512 15.0298 113.68 15.0298C113.846 15.0298 113.985 15.0859 114.098 15.2004C114.209 15.3138 114.267 15.4521 114.267 15.6151V17.4825Z" fill="white"/>
</g>
<mask id="mask9_189_3480" style="mask-type:luminance" maskUnits="userSpaceOnUse" x="0" y="1" width="145" height="40">
<g opacity="0.7">
<path d="M0.401855 40.7147H144.093V1.20935H0.401855V40.7147Z" fill="white"/>
</g>
</mask>
<g mask="url(#mask9_189_3480)">
<path fill-rule="evenodd" clip-rule="evenodd" d="M124.911 20.791C124.911 20.7997 124.903 20.8191 124.886 20.8526L124.898 20.8764L124.911 20.8893C124.911 21.4984 125.027 22.0806 125.26 22.6346C125.493 23.1886 125.815 23.6746 126.223 24.0937C126.632 24.5127 127.116 24.8486 127.678 25.1002C128.241 25.353 128.847 25.4793 129.495 25.4793C130.096 25.4869 130.663 25.3983 131.197 25.2104C131.728 25.0236 132.22 24.7298 132.67 24.3313C132.727 24.2816 132.793 24.2352 132.863 24.1909C132.934 24.1455 133.009 24.1131 133.088 24.0937C133.167 24.0732 133.251 24.0732 133.339 24.0937C133.426 24.1131 133.516 24.165 133.606 24.246C133.74 24.3604 133.805 24.5008 133.801 24.6672C133.796 24.8335 133.723 24.9868 133.582 25.1251C133.09 25.6132 132.492 25.9912 131.789 26.2602C131.085 26.5291 130.354 26.663 129.596 26.663C128.78 26.663 128.017 26.515 127.304 26.217C126.592 25.92 125.966 25.5117 125.43 24.9912C124.892 24.4695 124.47 23.8636 124.161 23.1714C123.853 22.4791 123.699 21.735 123.699 20.9379C123.699 20.9044 123.703 20.8764 123.711 20.8526C123.703 20.8353 123.699 20.8148 123.699 20.791C123.699 19.994 123.853 19.2445 124.161 18.5446C124.47 17.8448 124.892 17.2324 125.43 16.7076C125.966 16.1816 126.592 15.768 127.304 15.4623C128.017 15.1567 128.78 15.0044 129.596 15.0044C130.354 15.0044 131.085 15.1394 131.789 15.4072C132.492 15.6762 133.09 16.0542 133.582 16.5423C133.723 16.6806 133.796 16.8361 133.801 17.0067C133.805 17.1774 133.74 17.3199 133.606 17.4344C133.516 17.5154 133.426 17.5662 133.339 17.5867C133.251 17.6072 133.167 17.6072 133.088 17.5867C133.009 17.5662 132.934 17.5327 132.863 17.4884C132.793 17.4441 132.727 17.3966 132.67 17.348C132.228 16.957 131.739 16.6654 131.201 16.4689C130.665 16.2734 130.096 16.1805 129.495 16.1881C128.854 16.1881 128.254 16.3144 127.697 16.5672C127.139 16.8188 126.654 17.1558 126.241 17.5737C125.829 17.9928 125.504 18.482 125.267 19.0393C125.029 19.5976 124.911 20.1808 124.911 20.791Z" fill="white"/>
</g>
<mask id="mask10_189_3480" style="mask-type:luminance" maskUnits="userSpaceOnUse" x="0" y="1" width="145" height="40">
<g opacity="0.7">
<path d="M0.401855 40.7147H144.093V1.20935H0.401855V40.7147Z" fill="white"/>
</g>
</mask>
<g mask="url(#mask10_189_3480)">
<path fill-rule="evenodd" clip-rule="evenodd" d="M138.854 24.588L142.952 15.395C143.019 15.2406 143.127 15.1326 143.277 15.071C143.427 15.0105 143.581 15.0127 143.74 15.0775C143.89 15.1434 143.993 15.2492 144.051 15.395C144.11 15.5419 144.106 15.6963 144.038 15.8594L137.505 30.3984C137.429 30.5528 137.317 30.6587 137.168 30.7159C137.017 30.7731 136.862 30.7688 136.706 30.704C136.546 30.6392 136.451 30.5334 136.418 30.3865C136.385 30.2396 136.4 30.0895 136.468 29.9351L138.23 25.979L133.694 15.8594C133.619 15.6963 133.611 15.5419 133.669 15.395C133.727 15.2492 133.836 15.1434 133.994 15.0775C134.143 15.0041 134.296 14.9987 134.451 15.0591C134.603 15.1196 134.715 15.233 134.78 15.395L138.854 24.588Z" fill="white"/>
</g>
<mask id="mask11_189_3480" style="mask-type:luminance" maskUnits="userSpaceOnUse" x="0" y="1" width="145" height="40">
<g opacity="0.7">
<path d="M0.401855 40.7147H144.093V1.20935H0.401855V40.7147Z" fill="white"/>
</g>
</mask>
<g mask="url(#mask11_189_3480)">
<path fill-rule="evenodd" clip-rule="evenodd" d="M42.1222 34.0294L42.1079 34.0554L42.1156 34.0694L42.1222 34.0759C42.1222 34.3783 42.1808 34.6677 42.2958 34.9431C42.4129 35.2196 42.5721 35.4626 42.7777 35.6732C42.9822 35.8849 43.2242 36.0544 43.505 36.183C43.7846 36.3126 44.0875 36.3774 44.4157 36.3774C44.7164 36.3817 45.0005 36.3396 45.2691 36.251C45.5376 36.1614 45.7874 36.0145 46.0196 35.8093C46.0649 35.7747 46.1124 35.7412 46.1633 35.7099C46.213 35.6786 46.2671 35.657 46.3235 35.643C46.381 35.63 46.4407 35.63 46.5048 35.643C46.5678 35.657 46.6341 35.6926 46.7026 35.7499C46.7944 35.8298 46.8397 35.9313 46.8397 36.0534C46.8397 36.1754 46.7866 36.2888 46.6816 36.3914C46.4086 36.6571 46.0792 36.8644 45.6913 37.0113C45.3055 37.1571 44.9054 37.2306 44.4909 37.2306C44.0444 37.2306 43.6243 37.1496 43.232 36.9865C42.8374 36.8256 42.4947 36.6031 42.2007 36.3201C41.9078 36.0372 41.6757 35.7056 41.5044 35.3233C41.3341 34.941 41.249 34.5316 41.249 34.0964L41.2623 34.0554C41.2534 34.0478 41.249 34.0381 41.249 34.0294C41.249 33.5942 41.3341 33.1838 41.5044 32.7982C41.6757 32.4148 41.9078 32.0779 42.2007 31.7917C42.4947 31.5044 42.8374 31.2776 43.232 31.1113C43.6243 30.945 44.0444 30.8607 44.4909 30.8607C44.9054 30.8607 45.3055 30.9352 45.6913 31.0821C46.0792 31.2279 46.4086 31.4353 46.6816 31.702C46.7866 31.8036 46.8397 31.9159 46.8397 32.0379C46.8397 32.161 46.7911 32.2636 46.696 32.3479C46.6275 32.4062 46.5634 32.4418 46.5015 32.4559C46.4396 32.4688 46.381 32.4688 46.3235 32.4559C46.2671 32.4418 46.213 32.4202 46.1633 32.3878C46.1124 32.3576 46.0649 32.3241 46.0196 32.2885C45.7874 32.0887 45.5376 31.9418 45.2691 31.8478C45.0005 31.756 44.7164 31.7118 44.4157 31.715C44.0919 31.7193 43.7924 31.7852 43.5149 31.9116C43.2375 32.0379 42.9943 32.2086 42.7887 32.4224C42.5809 32.6352 42.4184 32.8814 42.3002 33.159C42.1819 33.4365 42.1222 33.727 42.1222 34.0294Z" fill="white"/>
</g>
<mask id="mask12_189_3480" style="mask-type:luminance" maskUnits="userSpaceOnUse" x="0" y="1" width="145" height="40">
<g opacity="0.7">
<path d="M0.401855 40.7147H144.093V1.20935H0.401855V40.7147Z" fill="white"/>
</g>
</mask>
<g mask="url(#mask12_189_3480)">
<path fill-rule="evenodd" clip-rule="evenodd" d="M52.5988 33.7364C52.5667 33.4469 52.4838 33.1769 52.349 32.9253C52.2141 32.6747 52.0417 32.4566 51.8306 32.273C51.6184 32.0883 51.3774 31.9436 51.1033 31.8388C50.8303 31.7341 50.5396 31.6822 50.229 31.6822C49.9206 31.6822 49.6299 31.7351 49.3591 31.8421C49.0883 31.949 48.8485 32.0937 48.6396 32.2784C48.4306 32.4631 48.2593 32.6812 48.1278 32.9329C47.9952 33.1834 47.9167 33.4513 47.8879 33.7364H52.5988ZM47.9089 34.4427C47.9454 34.7235 48.0305 34.9827 48.1643 35.2235C48.2991 35.4644 48.4693 35.6728 48.6738 35.8499C48.8783 36.0281 49.1126 36.1685 49.3768 36.2711C49.6399 36.3727 49.9206 36.4234 50.2168 36.4234C50.5805 36.4234 50.911 36.3565 51.2061 36.2204C51.5023 36.0854 51.7455 35.9039 51.9356 35.6771C52.0141 35.6145 52.087 35.5778 52.1589 35.567C52.2285 35.5562 52.2981 35.5605 52.3667 35.5832C52.4485 35.6102 52.5115 35.6653 52.5579 35.7495C52.622 35.8262 52.6518 35.918 52.6496 36.0238C52.6474 36.1307 52.5933 36.229 52.4883 36.3176C52.3667 36.4504 52.2274 36.5725 52.0727 36.6837C51.9179 36.7949 51.7466 36.8921 51.5576 36.9742C51.3686 37.0563 51.1619 37.1211 50.9397 37.1675C50.7164 37.214 50.4755 37.2377 50.2168 37.2377C49.7659 37.2377 49.3436 37.1546 48.9501 36.9872C48.5567 36.8198 48.2118 36.5941 47.9167 36.3068C47.6205 36.0206 47.3872 35.6836 47.2159 35.2959C47.0457 34.9103 46.9595 34.4967 46.9595 34.0561C46.9595 33.6165 47.0457 33.2039 47.2159 32.8184C47.3872 32.435 47.6205 32.098 47.9167 31.8118C48.2118 31.5245 48.5567 31.2977 48.9501 31.1314C49.3436 30.9651 49.7659 30.8809 50.2168 30.8809C50.6623 30.8809 51.0834 30.964 51.4791 31.1282C51.8748 31.2923 52.2197 31.517 52.5137 31.8021C52.8055 32.0872 53.0387 32.4209 53.2133 32.8065C53.3858 33.1899 53.4742 33.6003 53.4786 34.0355C53.4786 34.1522 53.441 34.2494 53.3626 34.3261C53.2852 34.4038 53.1846 34.4427 53.063 34.4427H47.9089Z" fill="white"/>
</g>
<mask id="mask13_189_3480" style="mask-type:luminance" maskUnits="userSpaceOnUse" x="0" y="1" width="145" height="40">
<g opacity="0.7">
<path d="M0.401855 40.7147H144.093V1.20935H0.401855V40.7147Z" fill="white"/>
</g>
</mask>
<g mask="url(#mask13_189_3480)">
<path fill-rule="evenodd" clip-rule="evenodd" d="M59.6725 36.7443C59.6725 36.8642 59.6316 36.9636 59.5498 37.0435C59.4658 37.1245 59.363 37.1644 59.2392 37.1644C59.1198 37.1644 59.0193 37.1245 58.9364 37.0435C58.8546 36.9646 58.8137 36.8642 58.8137 36.7443V33.9277C58.8037 33.216 58.6401 32.6716 58.324 32.2915C58.0079 31.9113 57.5658 31.7223 56.9965 31.7223C56.7191 31.7223 56.4594 31.7752 56.2151 31.8822C55.9719 31.9891 55.7586 32.136 55.574 32.325C55.3894 32.514 55.2424 32.7364 55.1341 32.9935C55.0247 33.2527 54.965 33.5292 54.9561 33.8272V36.7314C54.9561 36.8512 54.9141 36.9517 54.8301 37.0348C54.7461 37.1169 54.6444 37.158 54.5262 37.158C54.4079 37.158 54.3073 37.1169 54.2222 37.0348C54.1382 36.9517 54.0962 36.8512 54.0962 36.7303V31.2946C54.0962 31.1802 54.1393 31.0808 54.2255 30.9987C54.3117 30.9166 54.4145 30.8745 54.5339 30.8745C54.6511 30.8745 54.7516 30.9166 54.8334 30.9987C54.9152 31.0808 54.9561 31.1802 54.9561 31.2946L54.9572 32.0085C55.2269 31.6716 55.5442 31.3983 55.9111 31.191C56.2781 30.9847 56.6705 30.881 57.0894 30.881C57.4818 30.881 57.8355 30.9534 58.1527 31.0959C58.4688 31.2374 58.7396 31.4404 58.9651 31.705C59.1906 31.9696 59.3641 32.2904 59.4846 32.6662C59.6051 33.041 59.6681 33.46 59.6725 33.9234V36.7443Z" fill="white"/>
</g>
<mask id="mask14_189_3480" style="mask-type:luminance" maskUnits="userSpaceOnUse" x="0" y="1" width="145" height="40">
<g opacity="0.7">
<path d="M0.401855 40.7147H144.093V1.20935H0.401855V40.7147Z" fill="white"/>
</g>
</mask>
<g mask="url(#mask14_189_3480)">
<path fill-rule="evenodd" clip-rule="evenodd" d="M61.8375 30.8813H62.745C62.8687 30.8813 62.9704 30.9212 63.0533 31.0012C63.1351 31.0822 63.176 31.1793 63.176 31.2949C63.176 31.4191 63.1351 31.5217 63.0533 31.6016C62.9704 31.6815 62.8687 31.7215 62.745 31.7215H61.8375V36.7446C61.8375 36.8591 61.7955 36.9574 61.7115 37.0373C61.6275 37.1172 61.5258 37.1582 61.4075 37.1582C61.2893 37.1582 61.1887 37.1172 61.1069 37.0373C61.0262 36.9574 60.9853 36.8591 60.9853 36.7446V31.7215H60.2337C60.1143 31.7215 60.0148 31.6805 59.9297 31.5984C59.8457 31.5163 59.8037 31.4148 59.8037 31.2949C59.8037 31.1793 59.8457 31.0822 59.9297 31.0012C60.0148 30.9212 60.1143 30.8813 60.2337 30.8813H60.9853V29.0345C60.9853 28.9146 61.0262 28.8152 61.1069 28.7375C61.1887 28.6586 61.2893 28.6198 61.4075 28.6198C61.5258 28.6198 61.6275 28.6586 61.7115 28.7375C61.7955 28.8152 61.8375 28.9146 61.8375 29.0345V30.8813Z" fill="white"/>
</g>
<mask id="mask15_189_3480" style="mask-type:luminance" maskUnits="userSpaceOnUse" x="0" y="1" width="145" height="40">
<g opacity="0.7">
<path d="M0.401855 40.7147H144.093V1.20935H0.401855V40.7147Z" fill="white"/>
</g>
</mask>
<g mask="url(#mask15_189_3480)">
<path fill-rule="evenodd" clip-rule="evenodd" d="M68.5625 33.7364C68.5305 33.4469 68.4476 33.1769 68.3127 32.9253C68.179 32.6747 68.0066 32.4566 67.7943 32.273C67.5821 32.0883 67.3412 31.9436 67.067 31.8388C66.794 31.7341 66.5033 31.6822 66.1938 31.6822C65.8843 31.6822 65.5936 31.7351 65.3228 31.8421C65.0531 31.949 64.8122 32.0937 64.6033 32.2784C64.3944 32.4631 64.2231 32.6812 64.0915 32.9329C63.96 33.1834 63.8804 33.4513 63.8528 33.7364H68.5625ZM63.8738 34.4427C63.9091 34.7235 63.9943 34.9827 64.1291 35.2235C64.2629 35.4644 64.4331 35.6728 64.6376 35.8499C64.8431 36.0281 65.0775 36.1685 65.3405 36.2711C65.6047 36.3727 65.8843 36.4234 66.1806 36.4234C66.5442 36.4234 66.8747 36.3565 67.1698 36.2204C67.466 36.0854 67.7092 35.9039 67.9004 35.6771C67.9778 35.6145 68.0519 35.5778 68.1226 35.567C68.1922 35.5562 68.263 35.5605 68.3304 35.5832C68.4122 35.6102 68.4763 35.6653 68.5216 35.7495C68.5857 35.8262 68.6156 35.918 68.6134 36.0238C68.6112 36.1307 68.5581 36.229 68.4531 36.3176C68.3304 36.4504 68.1911 36.5725 68.0364 36.6837C67.8828 36.7949 67.7103 36.8921 67.5224 36.9742C67.3334 37.0563 67.1267 37.1211 66.9034 37.1675C66.6813 37.214 66.4392 37.2377 66.1806 37.2377C65.7296 37.2377 65.3085 37.1546 64.9139 36.9872C64.5204 36.8198 64.1755 36.5941 63.8804 36.3068C63.5842 36.0206 63.351 35.6836 63.1807 35.2959C63.0105 34.9103 62.9243 34.4967 62.9243 34.0561C62.9243 33.6165 63.0105 33.2039 63.1807 32.8184C63.351 32.435 63.5842 32.098 63.8804 31.8118C64.1755 31.5245 64.5204 31.2977 64.9139 31.1314C65.3085 30.9651 65.7296 30.8809 66.1806 30.8809C66.626 30.8809 67.0471 30.964 67.4428 31.1282C67.8396 31.2923 68.1834 31.517 68.4774 31.8021C68.7703 32.0872 69.0035 32.4209 69.1771 32.8065C69.3495 33.1899 69.4379 33.6003 69.4435 34.0355C69.4435 34.1522 69.4048 34.2494 69.3263 34.3261C69.2489 34.4038 69.1494 34.4427 69.0268 34.4427H63.8738Z" fill="white"/>
</g>
<mask id="mask16_189_3480" style="mask-type:luminance" maskUnits="userSpaceOnUse" x="0" y="1" width="145" height="40">
<g opacity="0.7">
<path d="M0.401855 40.7147H144.093V1.20935H0.401855V40.7147Z" fill="white"/>
</g>
</mask>
<g mask="url(#mask16_189_3480)">
<path fill-rule="evenodd" clip-rule="evenodd" d="M70.92 31.9824C71.2295 31.64 71.5998 31.3689 72.033 31.1681C72.4641 30.9683 72.9306 30.8689 73.4313 30.8689H73.4865C73.6313 30.8689 73.7441 30.9078 73.8203 30.9855C73.8977 31.0633 73.9364 31.1637 73.9364 31.2847C73.9364 31.4111 73.8933 31.5115 73.8071 31.5914C73.7209 31.6692 73.6147 31.7081 73.4865 31.7081H73.4313C73.0908 31.7081 72.767 31.7729 72.463 31.9025C72.1579 32.031 71.8916 32.2081 71.6639 32.4317C71.4362 32.6563 71.256 32.9198 71.1212 33.2222C70.9874 33.5257 70.92 33.8497 70.92 34.1964V36.7301C70.92 36.851 70.8791 36.9525 70.7973 37.0346C70.7144 37.1167 70.6149 37.1577 70.4967 37.1577C70.3784 37.1577 70.2756 37.1167 70.1894 37.0346C70.1032 36.9525 70.0601 36.851 70.0601 36.7301V31.2879C70.0601 31.1735 70.1032 31.0741 70.1894 30.992C70.2756 30.9099 70.3784 30.8689 70.4967 30.8689C70.6205 30.8689 70.7199 30.9099 70.8006 30.992C70.8802 31.0741 70.92 31.1724 70.92 31.2879V31.9824Z" fill="white"/>
</g>
<mask id="mask17_189_3480" style="mask-type:luminance" maskUnits="userSpaceOnUse" x="0" y="1" width="145" height="40">
<g opacity="0.7">
<path d="M0.401855 40.7147H144.093V1.20935H0.401855V40.7147Z" fill="white"/>
</g>
</mask>
<g mask="url(#mask17_189_3480)">
<path fill-rule="evenodd" clip-rule="evenodd" d="M75.7924 31.1766C75.7471 31.1593 75.683 31.1518 75.6012 31.1518H75.5216V31.5071H75.6487C75.725 31.5071 75.7858 31.492 75.8289 31.4617C75.872 31.4315 75.893 31.3829 75.893 31.3159C75.893 31.249 75.8598 31.2025 75.7924 31.1766ZM75.1922 32.1605V30.9347H75.5415C75.6973 30.9358 75.7835 30.9368 75.8012 30.9379C75.9007 30.9444 75.9825 30.966 76.0477 31.0006C76.1605 31.061 76.2157 31.1582 76.2157 31.2932C76.2157 31.3969 76.1859 31.4704 76.1273 31.5168C76.0687 31.5622 75.9969 31.5902 75.9095 31.5989C75.9891 31.6151 76.0477 31.6388 76.0886 31.6702C76.1616 31.7285 76.1991 31.8203 76.1991 31.9445V32.0536C76.1991 32.0665 76.1991 32.0784 76.2013 32.0903C76.2025 32.1022 76.2058 32.114 76.2102 32.127L76.2224 32.1605H75.9084C75.8985 32.1216 75.8919 32.0654 75.8874 31.992C75.8841 31.9175 75.8775 31.8678 75.8664 31.8408C75.851 31.7976 75.82 31.7684 75.7747 31.7512C75.7504 31.7404 75.7128 31.735 75.6631 31.7317L75.5901 31.7274H75.5216V32.1605H75.1922ZM75.0242 30.9044C74.844 31.0848 74.7545 31.2986 74.7545 31.546C74.7545 31.8019 74.8451 32.019 75.0286 32.1983C75.211 32.3776 75.4309 32.4672 75.6885 32.4672C75.946 32.4672 76.166 32.3765 76.3484 32.1961C76.5296 32.0158 76.6214 31.7987 76.6214 31.546C76.6214 31.2997 76.5307 31.0859 76.3495 30.9044C76.166 30.7208 75.946 30.628 75.6885 30.628C75.4287 30.628 75.2077 30.7208 75.0242 30.9044ZM76.481 32.3398C76.261 32.5482 75.998 32.6519 75.6885 32.6519C75.3702 32.6519 75.1027 32.546 74.8838 32.3322C74.665 32.1184 74.5566 31.857 74.5566 31.546C74.5566 31.222 74.6738 30.9541 74.9103 30.7403C75.1314 30.5394 75.3912 30.439 75.6885 30.439C76.0002 30.439 76.2688 30.548 76.4898 30.764C76.7098 30.979 76.8214 31.2414 76.8214 31.546C76.8214 31.8602 76.7076 32.1248 76.481 32.3398Z" fill="white"/>
</g>
<mask id="mask18_189_3480" style="mask-type:luminance" maskUnits="userSpaceOnUse" x="0" y="1" width="145" height="40">
<g opacity="0.7">
<path d="M0.401855 40.7147H144.093V1.20935H0.401855V40.7147Z" fill="white"/>
</g>
</mask>
<g mask="url(#mask18_189_3480)">
<path fill-rule="evenodd" clip-rule="evenodd" d="M43.0914 6.22893H43.9989C44.1227 6.22893 44.2243 6.26889 44.3072 6.34881C44.389 6.42873 44.4299 6.52593 44.4299 6.64257C44.4299 6.76677 44.389 6.86937 44.3072 6.94929C44.2243 7.02921 44.1227 7.06917 43.9989 7.06917H43.0914V12.0912C43.0914 12.2067 43.0494 12.305 42.9654 12.3838C42.8814 12.4638 42.7797 12.5048 42.6614 12.5048C42.5432 12.5048 42.4426 12.4638 42.3608 12.3838C42.2801 12.305 42.2392 12.2067 42.2392 12.0912V7.06917H41.4876C41.3682 7.06917 41.2687 7.02813 41.1836 6.94497C41.0996 6.86397 41.0576 6.76245 41.0576 6.64257C41.0576 6.52593 41.0996 6.42873 41.1836 6.34881C41.2687 6.26889 41.3682 6.22893 41.4876 6.22893H42.2392V4.38105C42.2392 4.26117 42.2801 4.16181 42.3608 4.08513C42.4426 4.00629 42.5432 3.96741 42.6614 3.96741C42.7797 3.96741 42.8814 4.00629 42.9654 4.08513C43.0494 4.16181 43.0914 4.26117 43.0914 4.38105V6.22893Z" fill="white"/>
</g>
<mask id="mask19_189_3480" style="mask-type:luminance" maskUnits="userSpaceOnUse" x="0" y="1" width="145" height="40">
<g opacity="0.7">
<path d="M0.401855 40.7147H144.093V1.20935H0.401855V40.7147Z" fill="white"/>
</g>
</mask>
<g mask="url(#mask19_189_3480)">
<path fill-rule="evenodd" clip-rule="evenodd" d="M45.5245 7.35537C45.7931 7.01625 46.1103 6.74193 46.4773 6.53349C46.8442 6.32613 47.2377 6.22137 47.6566 6.22137C48.0534 6.22137 48.4094 6.29481 48.7255 6.43845C49.0438 6.58317 49.3146 6.78945 49.5401 7.05729C49.7656 7.32405 49.9391 7.64697 50.0596 8.02497C50.1801 8.40297 50.2409 8.82525 50.2409 9.29289V12.0912C50.2409 12.211 50.1989 12.3115 50.1171 12.3914C50.0342 12.4713 49.9303 12.5113 49.8076 12.5113C49.6882 12.5113 49.5876 12.4713 49.5047 12.3914C49.4218 12.3115 49.3798 12.211 49.3798 12.0912V9.30369C49.3798 8.58333 49.2218 8.02929 48.9034 7.64265C48.5851 7.25601 48.1386 7.06269 47.5649 7.06269C47.2875 7.06269 47.0266 7.11561 46.7834 7.22253C46.5403 7.32945 46.3269 7.47633 46.1424 7.66533C45.9578 7.85541 45.8108 8.07897 45.7013 8.33601C45.593 8.59413 45.5333 8.87169 45.5245 9.16977V12.0771C45.5245 12.197 45.4825 12.2985 45.3985 12.3806C45.3145 12.4627 45.2128 12.5048 45.0934 12.5048C44.9763 12.5048 44.8746 12.4627 44.7906 12.3806C44.7066 12.2985 44.6646 12.197 44.6646 12.0771V4.39509C44.6646 4.27413 44.7066 4.17369 44.7906 4.09161C44.8746 4.00845 44.9763 3.96741 45.0934 3.96741C45.2172 3.96741 45.3189 4.00845 45.4018 4.09161C45.4836 4.17369 45.5245 4.27413 45.5245 4.39509V7.35537Z" fill="white"/>
</g>
<mask id="mask20_189_3480" style="mask-type:luminance" maskUnits="userSpaceOnUse" x="0" y="1" width="145" height="40">
<g opacity="0.7">
<path d="M0.401855 40.7147H144.093V1.20935H0.401855V40.7147Z" fill="white"/>
</g>
</mask>
<g mask="url(#mask20_189_3480)">
<path fill-rule="evenodd" clip-rule="evenodd" d="M56.2819 9.08296C56.2498 8.79352 56.1669 8.52352 56.0321 8.27296C55.8972 8.0224 55.7248 7.80316 55.5137 7.61956C55.3015 7.43488 55.0605 7.29016 54.7864 7.1854C54.5134 7.08064 54.2227 7.02988 53.9121 7.02988C53.6037 7.02988 53.313 7.08172 53.0422 7.18864C52.7714 7.29556 52.5316 7.44136 52.3227 7.62604C52.1138 7.80964 51.9424 8.0278 51.8109 8.27944C51.6783 8.53 51.5998 8.79784 51.571 9.08296H56.2819ZM51.592 9.79036C51.6285 10.0701 51.7136 10.3304 51.8474 10.5701C51.9822 10.811 52.1524 11.0194 52.3558 11.1976C52.5614 11.3747 52.7957 11.5151 53.0599 11.6177C53.323 11.7192 53.6037 11.7711 53.8999 11.7711C54.2636 11.7711 54.593 11.703 54.8892 11.568C55.1854 11.432 55.4286 11.2505 55.6187 11.0237C55.6972 10.9611 55.7701 10.9254 55.842 10.9136C55.9116 10.9038 55.9812 10.9082 56.0498 10.9308C56.1305 10.9568 56.1946 11.0129 56.241 11.0972C56.3051 11.1738 56.3349 11.2646 56.3327 11.3704C56.3305 11.4773 56.2764 11.5756 56.1714 11.6642C56.0498 11.7981 55.9105 11.9201 55.7558 12.0303C55.601 12.1426 55.4297 12.2387 55.2407 12.3208C55.0517 12.4029 54.845 12.4677 54.6228 12.5152C54.3995 12.5616 54.1586 12.5843 53.8999 12.5843C53.449 12.5843 53.0267 12.5012 52.6332 12.3348C52.2398 12.1674 51.8949 11.9406 51.5998 11.6544C51.3025 11.3672 51.0703 11.0313 50.899 10.6436C50.7288 10.2569 50.6426 9.84328 50.6426 9.40372C50.6426 8.96308 50.7288 8.55052 50.899 8.16604C51.0703 7.78156 51.3025 7.44568 51.5998 7.15948C51.8949 6.8722 52.2398 6.6454 52.6332 6.47908C53.0267 6.31276 53.449 6.22852 53.8999 6.22852C54.3454 6.22852 54.7665 6.31168 55.1622 6.47584C55.5579 6.64 55.9028 6.86464 56.1957 7.14868C56.4886 7.4338 56.7218 7.76752 56.8964 8.15308C57.0689 8.53756 57.1573 8.94796 57.1617 9.3832C57.1617 9.49876 57.123 9.59596 57.0457 9.67372C56.9683 9.75148 56.8677 9.79036 56.7461 9.79036H51.592Z" fill="white"/>
</g>
</g>
</g>
<defs>
<clipPath id="clip0_189_3480">
<rect width="144" height="40" fill="white" transform="translate(0 0.649414)"/>
</clipPath>
</defs>
</svg>
