<svg width="183" height="40" viewBox="0 0 183 40" fill="none" xmlns="http://www.w3.org/2000/svg">
<g opacity="0.7">
<path fill-rule="evenodd" clip-rule="evenodd" d="M173.998 18.0713H168.199V30.9059H164.262V18.0713H161.494V14.9899H164.262V12.7833C164.262 11.1393 164.848 9.75392 165.965 8.67525C167.082 7.59792 168.517 7.08325 170.275 7.08325C170.751 7.08325 171.178 7.13525 171.551 7.13525C171.923 7.13525 172.242 7.23792 172.509 7.34059V10.5753C172.402 10.5233 172.136 10.4206 171.817 10.3179C171.497 10.2153 171.126 10.1646 170.699 10.1646C169.902 10.1646 169.262 10.4206 168.838 10.8833C168.412 11.3459 168.199 12.1153 168.199 13.0393V14.9393H173.998V11.3459L177.882 10.2153V14.9393H181.818V18.0193H177.882V25.4633C177.882 26.4406 178.095 27.1073 178.414 27.5179C178.787 27.9286 179.371 28.1339 180.17 28.1339C180.383 28.1339 180.648 28.0819 180.967 27.9806C181.286 27.8779 181.553 27.7753 181.766 27.6219V30.7006C181.5 30.8553 181.127 30.9593 180.542 31.0606C179.956 31.1633 179.425 31.2153 178.839 31.2153C177.191 31.2153 175.967 30.8033 175.168 29.9819C174.371 29.1606 173.944 27.8779 173.944 26.1819L173.998 18.0713ZM148.247 23.0513C148.247 24.6939 148.62 25.9779 149.419 26.8499C150.216 27.7233 151.334 28.1846 152.771 28.1846C154.154 28.1846 155.27 27.7753 156.015 26.8499C156.759 25.9779 157.132 24.6939 157.132 22.9486C157.132 21.2539 156.759 19.9713 156.015 19.0459C155.27 18.1739 154.154 17.7113 152.823 17.7113C151.388 17.7113 150.322 18.1739 149.524 19.0979C148.674 20.0726 148.247 21.3566 148.247 23.0513ZM144.204 23.2046C144.204 20.5873 145.003 18.4819 146.492 16.9419C148.034 15.4019 150.163 14.6313 152.877 14.6313C155.43 14.6313 157.452 15.3499 158.887 16.8393C160.325 18.3273 161.07 20.3299 161.07 22.8459C161.07 25.4126 160.272 27.4659 158.781 29.0073C157.239 30.5473 155.164 31.3179 152.504 31.3179C149.951 31.3179 147.928 30.5993 146.439 29.1606C145.003 27.6726 144.204 25.6699 144.204 23.2046ZM135.479 19.2006C135.479 19.7139 135.638 20.1766 136.011 20.4846C136.383 20.7926 137.128 21.1513 138.352 21.6139C139.894 22.2299 141.011 22.8979 141.597 23.6166C142.236 24.3859 142.555 25.2593 142.555 26.3379C142.555 27.8259 141.969 29.0073 140.746 29.9313C139.576 30.8553 137.926 31.2659 135.905 31.2659C135.213 31.2659 134.468 31.1633 133.615 31.0099C132.766 30.8553 132.074 30.6499 131.488 30.3939V26.6966C132.18 27.1593 132.979 27.5699 133.777 27.8259C134.574 28.0819 135.319 28.2379 136.011 28.2379C136.862 28.2379 137.553 28.1339 137.926 27.8779C138.352 27.6219 138.565 27.2619 138.565 26.6966C138.565 26.1819 138.352 25.7726 137.926 25.3619C137.501 25.0033 136.65 24.5913 135.479 24.1286C134.042 23.5646 133.032 22.8979 132.447 22.1793C131.861 21.4606 131.542 20.5353 131.542 19.4059C131.542 17.9686 132.126 16.7873 133.298 15.8633C134.468 14.9393 136.011 14.4766 137.874 14.4766C138.458 14.4766 139.096 14.5286 139.787 14.6819C140.479 14.8366 141.118 14.9899 141.597 15.1446V18.7899C141.065 18.4819 140.479 18.1739 139.787 17.9166C139.096 17.6606 138.404 17.5579 137.766 17.5579C137.021 17.5579 136.435 17.7113 136.064 17.9686C135.691 18.3273 135.479 18.6873 135.479 19.2006ZM116.859 23.0513C116.859 24.6939 117.231 25.9779 118.028 26.8499C118.826 27.7233 119.944 28.1846 121.38 28.1846C122.763 28.1846 123.882 27.7753 124.627 26.8499C125.371 25.9779 125.743 24.6939 125.743 22.9486C125.743 21.2539 125.371 19.9713 124.627 19.0459C123.882 18.1739 122.763 17.7113 121.434 17.7113C119.997 17.7113 118.933 18.1739 118.134 19.0979C117.231 20.0726 116.859 21.3566 116.859 23.0513ZM112.815 23.2046C112.815 20.5873 113.612 18.4819 115.101 16.9419C116.645 15.4019 118.773 14.6313 121.486 14.6313C124.041 14.6313 126.062 15.3499 127.499 16.8393C128.936 18.3273 129.681 20.3299 129.681 22.8459C129.681 25.4126 128.882 27.4659 127.393 29.0073C125.848 30.5473 123.774 31.3179 121.114 31.3179C118.56 31.3179 116.538 30.5993 115.049 29.1606C113.56 27.6726 112.815 25.6699 112.815 23.2046ZM111.111 14.7339C111.432 14.7339 111.697 14.7339 111.964 14.7846C112.229 14.8366 112.442 14.8873 112.601 14.9393V18.7379C112.388 18.5846 112.123 18.4313 111.697 18.3273C111.272 18.2246 110.846 18.1233 110.26 18.1233C109.303 18.1233 108.506 18.5326 107.867 19.3033C107.229 20.0726 106.856 21.2539 106.856 22.8979V30.9059H102.972V14.9899H106.856V17.5059H106.908C107.281 16.6339 107.813 15.9659 108.506 15.4526C109.25 14.9899 110.101 14.7339 111.111 14.7339ZM96.2683 28.1846C96.8527 28.1846 97.4924 28.0819 98.1833 27.7753C98.8755 27.5179 99.5138 27.1593 100.1 26.7473V30.2393C99.4613 30.5993 98.7691 30.8553 97.9719 31.0099C97.1733 31.1633 96.3208 31.2659 95.3633 31.2659C92.9164 31.2659 90.9476 30.5473 89.4582 29.0593C87.9149 27.5699 87.1702 25.6699 87.1702 23.4099C87.1702 20.8433 87.9688 18.7379 89.5121 17.0953C91.054 15.4526 93.2356 14.6313 96.108 14.6313C96.8527 14.6313 97.5975 14.7339 98.2897 14.8873C99.0344 15.0419 99.6202 15.2979 100.046 15.5046V19.0979C99.4613 18.6873 98.8216 18.3273 98.2371 18.1233C97.5974 17.9166 96.9591 17.7633 96.3208 17.7633C94.7789 17.7633 93.5548 18.2246 92.5973 19.2006C91.6398 20.1766 91.2143 21.4606 91.2143 23.1033C91.2143 24.6939 91.6923 25.9779 92.5973 26.8499C93.5023 27.7233 94.725 28.1846 96.2683 28.1846ZM80.6267 30.9059H84.5105V14.9899H80.6267V30.9059ZM80.2012 10.4206C80.2012 9.80459 80.414 9.29125 80.892 8.88059C81.3714 8.46992 81.9034 8.26459 82.5417 8.26459C83.2339 8.26459 83.8183 8.46992 84.2439 8.88059C84.6694 9.29125 84.9361 9.80459 84.9361 10.4206C84.9361 11.0379 84.7233 11.5499 84.2439 11.9606C83.7658 12.3726 83.2339 12.5766 82.5417 12.5766C81.8509 12.5766 81.3176 12.3726 80.892 11.9606C80.4665 11.4993 80.2012 10.9859 80.2012 10.4206ZM76.9018 8.72725V30.9059H72.9116V13.5019H72.8591L65.7299 30.9059H63.0688L55.7807 13.5019H55.7268V30.9059H52.0571V8.72725H57.802L64.3993 25.1566H64.5057L71.4747 8.72725H76.9018Z" fill="white"/>
<path fill-rule="evenodd" clip-rule="evenodd" d="M2.20508 18.8922H20.3999V1.3335H2.20508V18.8922Z" fill="white"/>
<path fill-rule="evenodd" clip-rule="evenodd" d="M22.3149 18.8922H40.5098V1.3335H22.3149V18.8922Z" fill="white"/>
<path fill-rule="evenodd" clip-rule="evenodd" d="M2.20508 38.3001H20.3999V20.7415H2.20508V38.3001Z" fill="white"/>
<path fill-rule="evenodd" clip-rule="evenodd" d="M22.3149 38.3001H40.5098V20.7415H22.3149V38.3001Z" fill="white"/>
</g>
</svg>
