<svg width="103" height="40" viewBox="0 0 103 40" fill="none" xmlns="http://www.w3.org/2000/svg">
<g clip-path="url(#clip0_189_3391)">
<g opacity="0.7">
<path fill-rule="evenodd" clip-rule="evenodd" d="M0.446289 27.4098H3.36561V27.8633H3.10053C2.69103 27.8633 2.41442 27.9406 2.41442 28.3833V33.9006C2.41442 34.2884 2.47002 34.3542 2.85714 34.3542H3.57578C3.99544 34.3542 4.49375 34.2437 4.85849 34.0559C5.53307 33.7128 5.88697 33.1711 6.22934 32.4193L6.70459 32.5739L5.86459 34.94H0.446289V34.4864H0.78934C1.19815 34.4864 1.39748 34.3318 1.39748 33.8789V28.6376C1.39748 28.062 1.33103 27.8633 0.800187 27.8633H0.446289V27.4098Z" fill="white"/>
<path fill-rule="evenodd" clip-rule="evenodd" d="M7.78395 32.3747C7.78395 33.8012 8.39209 34.5754 9.37649 34.5754C10.3717 34.5754 11.0016 33.713 11.0016 32.3198C11.0016 30.9374 10.3602 30.1076 9.37649 30.1076C8.48022 30.1076 7.78395 30.9374 7.78395 32.3747ZM12.0409 32.3306C12.0409 33.9449 11.024 35.0839 9.35412 35.0839C7.68429 35.0839 6.74463 33.9008 6.74463 32.3306C6.74463 30.7164 7.82802 29.5991 9.42056 29.5991C11.0463 29.5991 12.0409 30.7164 12.0409 32.3306Z" fill="white"/>
<path fill-rule="evenodd" clip-rule="evenodd" d="M13.3235 32.3747C13.3235 33.8012 13.9316 34.5754 14.916 34.5754C15.9106 34.5754 16.5411 33.713 16.5411 32.3198C16.5411 30.9374 15.8998 30.1076 14.916 30.1076C14.0198 30.1076 13.3235 30.9374 13.3235 32.3747ZM17.5805 32.3306C17.5805 33.9449 16.5635 35.0839 14.8937 35.0839C13.2238 35.0839 12.2842 33.9008 12.2842 32.3306C12.2842 30.7164 13.3676 29.5991 14.9601 29.5991C16.5859 29.5991 17.5805 30.7164 17.5805 32.3306Z" fill="white"/>
<path fill-rule="evenodd" clip-rule="evenodd" d="M17.8176 34.4867C18.2936 34.4867 18.4698 34.2989 18.4698 33.8345V30.5057H17.541V30.0528C18.1939 29.9972 18.5586 29.8094 18.9342 29.5992H19.3437V30.5057C19.9742 30.0087 20.56 29.5992 21.3119 29.5992C21.9308 29.5992 22.5173 29.8867 22.7939 30.5057C23.4461 29.9308 24.0651 29.5992 24.8061 29.5992C25.558 29.5992 26.122 29.9864 26.2881 30.5281C26.3322 30.6833 26.3546 30.9375 26.3546 31.1586V33.8894C26.3546 34.2881 26.5315 34.4867 26.9627 34.4867H27.2834V34.9403H24.5627V34.4867C25.1376 34.4867 25.4475 34.465 25.4475 33.8013V31.2908C25.4475 30.6935 25.3037 30.263 24.5519 30.263C23.9769 30.263 23.2583 30.6603 22.8597 31.0921V33.8121C22.8597 34.2542 23.0041 34.4867 23.4244 34.4867H23.7559V34.9403H21.0908V34.4867H21.2346C21.7098 34.4867 21.9532 34.3545 21.9532 33.8013V31.2359C21.9532 30.5945 21.7098 30.263 21.0576 30.263C20.56 30.263 19.941 30.5728 19.3769 31.0921V33.8677C19.3769 34.2881 19.5424 34.4867 20.0624 34.4867H20.2617V34.9403H17.541V34.4867H17.8176Z" fill="white"/>
<path fill-rule="evenodd" clip-rule="evenodd" d="M29.4193 27.7857C29.4193 28.1288 29.1427 28.4047 28.7997 28.4047C28.4573 28.4047 28.1698 28.1288 28.1698 27.7857C28.1698 27.4427 28.4573 27.1776 28.7997 27.1776C29.1427 27.1776 29.4193 27.4427 29.4193 27.7857ZM27.418 30.5057V30.0529C27.8492 29.9973 28.2471 29.9308 28.8668 29.5993H29.2641V33.9227C29.2641 34.2881 29.4085 34.4868 29.7624 34.4868H30.182V34.9403H27.418V34.4868H27.7942C28.2471 34.4868 28.3576 34.2657 28.3576 33.8678V30.5057H27.418Z" fill="white"/>
<path fill-rule="evenodd" clip-rule="evenodd" d="M30.1099 33.1711L30.6075 32.9833C31.238 33.9779 31.8902 34.5528 32.8407 34.5528C33.4712 34.5528 33.9248 34.144 33.9248 33.7236C33.9248 33.3033 33.5817 33.0714 32.996 32.8613L31.7465 32.4077C30.7844 32.0545 30.3085 31.645 30.3085 30.9819C30.3085 30.2185 31.0827 29.5989 32.1221 29.5989C32.6644 29.5989 33.0841 29.7426 33.4936 30.0524L33.6373 29.7318H34.0129L34.4997 31.3792L34.0129 31.546C33.6265 30.6606 32.8739 30.1074 32.1329 30.1074C31.6027 30.1074 31.1933 30.4063 31.1933 30.7935C31.1933 31.2029 31.5363 31.3792 32.2109 31.6226L33.2611 31.9989C34.2339 32.3413 34.7987 32.7616 34.7987 33.5135C34.7987 34.3318 34.0353 35.0619 32.8407 35.0619C32.2441 35.0619 31.7133 34.8958 31.2821 34.5528L31.1709 34.9399H30.7844L30.1099 33.1711Z" fill="white"/>
<path fill-rule="evenodd" clip-rule="evenodd" d="M39.7626 31.2802V33.9337C39.7626 34.1995 39.7958 34.3541 40.1721 34.3541H41.41C42.1626 34.3541 42.7592 34.31 43.1463 34.089C43.6107 33.8232 43.8982 33.3364 43.8982 32.7839C43.8982 32.3195 43.6771 31.9209 43.3009 31.6564C42.7924 31.3019 42.1178 31.2802 41.2114 31.2802H39.7626ZM39.7626 27.9954V30.7602H41.366C42.848 30.7602 43.5999 30.3398 43.5999 29.2788C43.5999 28.8802 43.467 28.5927 43.168 28.35C42.7483 28.0178 42.2507 27.9954 41.631 27.9954H39.7626ZM37.7944 34.9398V34.4863H38.0487C38.5131 34.4863 38.7456 34.3541 38.7456 33.8449V28.4707C38.7456 28.0178 38.568 27.8632 38.1809 27.8632H37.7944V27.4097H41.5429C42.549 27.4097 43.3456 27.4429 43.9863 27.8748C44.4731 28.2063 44.7273 28.6815 44.7273 29.2449C44.7273 30.0748 44.1856 30.6937 43.1355 30.9703C43.511 31.0368 43.8866 31.1249 44.2405 31.3575C44.7382 31.6897 45.0263 32.2198 45.0263 32.828C45.0263 33.4368 44.7497 33.9893 44.2297 34.3649C43.5775 34.8402 42.7151 34.9398 41.5653 34.9398H37.7944Z" fill="white"/>
<path fill-rule="evenodd" clip-rule="evenodd" d="M49.167 32.2859C47.4531 32.5408 46.2917 32.7062 46.2917 33.5801C46.2917 34.0445 46.7121 34.4093 47.2429 34.4093C47.8619 34.4093 48.4924 34.0662 49.167 33.591V32.2859ZM45.3188 33.6683C45.3188 33.1483 45.6287 32.7062 46.2144 32.4079C46.7121 32.1537 47.7182 31.9652 49.167 31.8106V31.2249C49.167 30.473 48.7575 30.1076 47.8843 30.1076C47.2646 30.1076 46.845 30.3625 46.7453 30.7605C46.6124 31.2689 46.5683 31.6222 46.148 31.6222C45.8497 31.6222 45.6727 31.4012 45.6727 31.0812C45.6727 30.3286 46.5575 29.5991 48.0172 29.5991C48.769 29.5991 49.3548 29.7869 49.7087 30.1408C50.0517 30.4839 50.0734 30.8269 50.0734 31.2906V33.6242C50.0734 34.1991 50.1955 34.553 50.7148 34.553C50.9582 34.553 51.1575 34.4866 51.3005 34.4317V34.8961C51.0795 34.9618 50.8253 35.0283 50.5046 35.0283C49.7636 35.0283 49.3107 34.6859 49.2111 34.1103C48.4592 34.6974 47.7846 35.0283 46.9887 35.0283C45.9711 35.0283 45.3188 34.3876 45.3188 33.6683Z" fill="white"/>
<path fill-rule="evenodd" clip-rule="evenodd" d="M51.1499 33.1711L51.6475 32.9833C52.278 33.9779 52.9302 34.5528 53.8807 34.5528C54.5113 34.5528 54.9648 34.144 54.9648 33.7236C54.9648 33.3033 54.6218 33.0714 54.036 32.8613L52.7865 32.4077C51.8245 32.0545 51.3485 31.645 51.3485 30.9819C51.3485 30.2185 52.1228 29.5989 53.1621 29.5989C53.7045 29.5989 54.1241 29.7426 54.5336 30.0524L54.6774 29.7318H55.053L55.5397 31.3792L55.053 31.546C54.6665 30.6606 53.914 30.1074 53.173 30.1074C52.6428 30.1074 52.2333 30.4063 52.2333 30.7935C52.2333 31.2029 52.5763 31.3792 53.2509 31.6226L54.3011 31.9989C55.274 32.3413 55.8387 32.7616 55.8387 33.5135C55.8387 34.3318 55.0753 35.0619 53.8807 35.0619C53.2841 35.0619 52.7533 34.8958 52.3221 34.5528L52.2109 34.9399H51.8245L51.1499 33.1711Z" fill="white"/>
<path fill-rule="evenodd" clip-rule="evenodd" d="M57.9469 27.7857C57.9469 28.1288 57.6702 28.4047 57.3272 28.4047C56.9848 28.4047 56.6974 28.1288 56.6974 27.7857C56.6974 27.4427 56.9848 27.1776 57.3272 27.1776C57.6702 27.1776 57.9469 27.4427 57.9469 27.7857ZM55.9448 30.5057V30.0529C56.3767 29.9973 56.7747 29.9308 57.3936 29.5993H57.7916V33.9227C57.7916 34.2881 57.9353 34.4868 58.2892 34.4868H58.7096V34.9403H55.9448V34.4868H56.3211C56.7747 34.4868 56.8852 34.2657 56.8852 33.8678V30.5057H55.9448Z" fill="white"/>
<path fill-rule="evenodd" clip-rule="evenodd" d="M59.0965 34.4867C59.7047 34.4867 59.7379 34.1884 59.7379 33.7572V30.5057H58.8091V30.0528C59.5386 29.9755 59.7711 29.842 60.2132 29.5992H60.6003V30.6277C61.3298 30.0196 61.9826 29.5992 62.845 29.5992C63.8403 29.5992 64.504 30.2074 64.504 31.1253V33.8677C64.504 34.3098 64.6362 34.4867 65.123 34.4867H65.4328V34.9403H62.6457V34.4867H62.9223C63.4315 34.4867 63.5969 34.2881 63.5969 33.8121V31.6779C63.5969 30.8487 63.4315 30.263 62.546 30.263C61.9379 30.263 61.2525 30.6053 60.6443 31.1694V33.8677C60.6443 34.4094 60.9101 34.4867 61.3081 34.4867H61.584V34.9403H58.8091V34.4867H59.0965Z" fill="white"/>
<path fill-rule="evenodd" clip-rule="evenodd" d="M67.9307 27.4098H74.0568L74.7646 29.3894L74.2886 29.5664C73.8466 28.3718 73.1612 27.9956 71.989 27.9956H69.8988V30.7603H70.7951C71.591 30.7603 71.989 30.4064 71.989 29.6552V29.3894H72.5083V32.6952H71.989V32.264C71.989 31.645 71.6351 31.2803 70.9713 31.2803H69.8988V33.9454C69.8988 34.2437 69.9652 34.3542 70.2642 34.3542H71.6134C73.0839 34.3542 73.9686 33.9454 74.6317 32.4078L75.1293 32.5739L74.2886 34.94H67.9307V34.4864H68.3178C68.6934 34.4864 68.8819 34.2986 68.8819 33.9006V28.405C68.8819 28.0288 68.6825 27.8633 68.2629 27.8633H67.9307V27.4098Z" fill="white"/>
<path fill-rule="evenodd" clip-rule="evenodd" d="M79.5399 31.612C79.5399 30.65 78.7881 30.1856 78.0471 30.1856C77.0966 30.1856 76.344 31.0256 76.344 32.353C76.344 33.6134 77.0627 34.4534 77.9142 34.4534C78.4674 34.4534 78.9874 34.1883 79.5399 33.7679V31.612ZM80.4464 36.2452C80.4464 36.6764 80.5901 36.8974 81.0545 36.8974H81.4084V37.351H78.622V36.8974H78.8545C79.2525 36.8974 79.5399 36.8201 79.5399 36.3673V34.2988C79.0979 34.7191 78.3013 35.0723 77.6491 35.0723C76.2999 35.0723 75.3047 33.9123 75.3047 32.3632C75.3047 30.8269 76.344 29.5991 77.8369 29.5991C78.6443 29.5991 79.0979 29.909 79.6389 30.4174L79.8715 29.732H80.4464V36.2452Z" fill="white"/>
<path fill-rule="evenodd" clip-rule="evenodd" d="M87.824 34.4867V34.9403L86.0321 35.0284V34.0331C85.2145 34.686 84.5067 35.0725 83.6328 35.0725C82.4389 35.0725 81.8748 34.2542 81.8748 33.4806V30.7938C81.8748 30.3735 81.6538 30.185 81.2118 30.185H80.7358V29.7314L82.7819 29.6433V33.2487C82.7819 33.9667 83.2016 34.4094 83.9318 34.4094C84.4952 34.4094 85.2694 34.1003 85.988 33.4914V30.8155C85.988 30.3959 85.8118 30.185 85.3135 30.185H84.8491V29.7314L86.8952 29.6433V33.6799C86.8952 34.3986 87.0613 34.4867 87.6579 34.4867H87.824Z" fill="white"/>
<path fill-rule="evenodd" clip-rule="evenodd" d="M89.973 27.7857C89.973 28.1288 89.6964 28.4047 89.3534 28.4047C89.011 28.4047 88.7236 28.1288 88.7236 27.7857C88.7236 27.4427 89.011 27.1776 89.3534 27.1776C89.6964 27.1776 89.973 27.4427 89.973 27.7857ZM87.9717 30.5057V30.0529C88.4029 29.9973 88.8008 29.9308 89.4205 29.5993H89.8178V33.9227C89.8178 34.2881 89.9622 34.4868 90.3161 34.4868H90.7358V34.9403H87.9717V34.4868H88.348C88.8008 34.4868 88.9113 34.2657 88.9113 33.8678V30.5057H87.9717Z" fill="white"/>
<path fill-rule="evenodd" clip-rule="evenodd" d="M91.1224 34.4867C91.7306 34.4867 91.7638 34.1884 91.7638 33.7572V30.5057H90.835V30.0528C91.5645 29.9755 91.797 29.842 92.239 29.5992H92.6262V30.6277C93.3563 30.0196 94.0085 29.5992 94.8709 29.5992C95.8661 29.5992 96.5299 30.2074 96.5299 31.1253V33.8677C96.5299 34.3098 96.6621 34.4867 97.1489 34.4867H97.4587V34.9403H94.6723V34.4867H94.9489C95.4573 34.4867 95.6228 34.2881 95.6228 33.8121V31.6779C95.6228 30.8487 95.4573 30.263 94.5726 30.263C93.9645 30.263 93.279 30.6053 92.6709 31.1694V33.8677C92.6709 34.4094 92.936 34.4867 93.3339 34.4867H93.6106V34.9403H90.835V34.4867H91.1224Z" fill="white"/>
<path fill-rule="evenodd" clip-rule="evenodd" d="M101.113 31.3578C100.98 30.5503 100.615 30.1076 99.8413 30.1076C99.1111 30.1076 98.625 30.5279 98.3701 31.3578H101.113ZM98.2928 31.8778C98.282 32.0317 98.282 32.109 98.282 32.2642C98.282 33.6134 98.9674 34.4981 100.029 34.4981C100.737 34.4981 101.235 34.1218 101.799 33.5469L102.141 33.8235C101.4 34.7191 100.748 35.0839 99.9071 35.0839C98.3701 35.0839 97.2427 33.9781 97.2427 32.353C97.2427 30.694 98.3152 29.5991 99.863 29.5991C101.245 29.5991 102.086 30.4954 102.108 31.8778H98.2928Z" fill="white"/>
<path fill-rule="evenodd" clip-rule="evenodd" d="M27.7451 38.4268C27.7301 38.1468 27.7125 37.8098 27.7152 37.559H27.7064C27.6379 37.7942 27.5539 38.0458 27.4529 38.323L27.0976 39.298H26.901L26.5756 38.3407C26.48 38.0573 26.4 37.7976 26.343 37.559H26.3369C26.3308 37.8098 26.3159 38.1468 26.2983 38.4478L26.2447 39.3102H25.9966L26.1369 37.2993H26.4684L26.8115 38.2715C26.8949 38.5197 26.9634 38.74 27.0142 38.9495H27.023C27.0739 38.7468 27.1457 38.5258 27.2352 38.2715L27.5932 37.2993H27.924L28.0495 39.3102H27.7959L27.7451 38.4268Z" fill="white"/>
<path fill-rule="evenodd" clip-rule="evenodd" d="M31.3041 38.3671H30.5224V39.0919H31.3935V39.3102H30.2627V37.2993H31.3488V37.5169H30.5224V38.1529H31.3041V38.3671Z" fill="white"/>
<path fill-rule="evenodd" clip-rule="evenodd" d="M33.7709 39.1041C33.8367 39.1163 33.9322 39.119 34.0333 39.119C34.5885 39.119 34.8895 38.8085 34.8895 38.2661C34.8929 37.7915 34.6244 37.4898 34.0753 37.4898C33.9411 37.4898 33.8394 37.5027 33.7709 37.517V39.1041ZM33.5112 37.3265C33.6699 37.3027 33.8577 37.2844 34.0631 37.2844C34.436 37.2844 34.7017 37.3705 34.878 37.5353C35.057 37.6993 35.1614 37.9319 35.1614 38.2573C35.1614 38.5848 35.0597 38.8539 34.8719 39.0383C34.6841 39.2268 34.3736 39.3278 33.9824 39.3278C33.798 39.3278 33.6428 39.319 33.5112 39.3041V37.3265Z" fill="white"/>
<mask id="mask0_189_3391" style="mask-type:luminance" maskUnits="userSpaceOnUse" x="0" y="0" width="103" height="40">
<g opacity="0.7">
<path d="M0.446289 39.3399H102.141V0.668701H0.446289V39.3399Z" fill="white"/>
</g>
</mask>
<g mask="url(#mask0_189_3391)">
<path fill-rule="evenodd" clip-rule="evenodd" d="M37.3169 39.31H37.5766V37.2992H37.3169V39.31Z" fill="white"/>
</g>
<mask id="mask1_189_3391" style="mask-type:luminance" maskUnits="userSpaceOnUse" x="0" y="0" width="103" height="40">
<g opacity="0.7">
<path d="M0.446289 39.3399H102.141V0.668701H0.446289V39.3399Z" fill="white"/>
</g>
</mask>
<g mask="url(#mask1_189_3391)">
<path fill-rule="evenodd" clip-rule="evenodd" d="M41.2508 39.2444C41.1552 39.2918 40.9647 39.3399 40.72 39.3399C40.1532 39.3399 39.7261 38.9813 39.7261 38.323C39.7261 37.6932 40.1532 37.2667 40.7762 37.2667C41.0271 37.2667 41.1851 37.3203 41.2535 37.3562L41.1912 37.5677C41.0929 37.5203 40.9525 37.4837 40.7857 37.4837C40.3145 37.4837 40.0006 37.786 40.0006 38.3135C40.0006 38.8064 40.284 39.1216 40.7735 39.1216C40.9315 39.1216 41.0929 39.0891 41.1973 39.0382L41.2508 39.2444Z" fill="white"/>
</g>
<mask id="mask2_189_3391" style="mask-type:luminance" maskUnits="userSpaceOnUse" x="0" y="0" width="103" height="40">
<g opacity="0.7">
<path d="M0.446289 39.3399H102.141V0.668701H0.446289V39.3399Z" fill="white"/>
</g>
</mask>
<g mask="url(#mask2_189_3391)">
<path fill-rule="evenodd" clip-rule="evenodd" d="M44.405 38.4744L44.2077 37.8954C44.1637 37.7645 44.1332 37.6452 44.1033 37.5286H44.0972C44.0674 37.6479 44.0348 37.7706 43.9962 37.8933L43.7989 38.4744H44.405ZM43.7454 38.6777L43.5365 39.3096H43.2681L43.9515 37.2994H44.2647L44.9508 39.3096H44.6735L44.4586 38.6777H43.7454Z" fill="white"/>
</g>
<mask id="mask3_189_3391" style="mask-type:luminance" maskUnits="userSpaceOnUse" x="0" y="0" width="103" height="40">
<g opacity="0.7">
<path d="M0.446289 39.3399H102.141V0.668701H0.446289V39.3399Z" fill="white"/>
</g>
</mask>
<g mask="url(#mask3_189_3391)">
<path fill-rule="evenodd" clip-rule="evenodd" d="M47.0347 37.2992H47.2943V39.0924H48.1533V39.31H47.0347V37.2992Z" fill="white"/>
</g>
<mask id="mask4_189_3391" style="mask-type:luminance" maskUnits="userSpaceOnUse" x="0" y="0" width="103" height="40">
<g opacity="0.7">
<path d="M0.446289 39.3399H102.141V0.668701H0.446289V39.3399Z" fill="white"/>
</g>
</mask>
<g mask="url(#mask4_189_3391)">
<path fill-rule="evenodd" clip-rule="evenodd" d="M54.1444 39.2444C54.0488 39.2918 53.8583 39.3399 53.6135 39.3399C53.0467 39.3399 52.6196 38.9813 52.6196 38.323C52.6196 37.6932 53.0467 37.2667 53.6698 37.2667C53.9206 37.2667 54.0786 37.3203 54.1471 37.3562L54.0847 37.5677C53.9864 37.5203 53.8461 37.4837 53.6786 37.4837C53.2074 37.4837 52.8942 37.786 52.8942 38.3135C52.8942 38.8064 53.1776 39.1216 53.6671 39.1216C53.8251 39.1216 53.9864 39.0891 54.0908 39.0382L54.1444 39.2444Z" fill="white"/>
</g>
<mask id="mask5_189_3391" style="mask-type:luminance" maskUnits="userSpaceOnUse" x="0" y="0" width="103" height="40">
<g opacity="0.7">
<path d="M0.446289 39.3399H102.141V0.668701H0.446289V39.3399Z" fill="white"/>
</g>
</mask>
<g mask="url(#mask5_189_3391)">
<path fill-rule="evenodd" clip-rule="evenodd" d="M57.284 38.3671H56.5023V39.0919H57.3735V39.3102H56.2427V37.2993H57.3288V37.5169H56.5023V38.1529H57.284V38.3671Z" fill="white"/>
</g>
<mask id="mask6_189_3391" style="mask-type:luminance" maskUnits="userSpaceOnUse" x="0" y="0" width="103" height="40">
<g opacity="0.7">
<path d="M0.446289 39.3399H102.141V0.668701H0.446289V39.3399Z" fill="white"/>
</g>
</mask>
<g mask="url(#mask6_189_3391)">
<path fill-rule="evenodd" clip-rule="evenodd" d="M59.4917 39.3099V37.2991H59.7751L60.4198 38.3167C60.5683 38.5526 60.6849 38.7642 60.7805 38.9703L60.7866 38.9669C60.7629 38.6991 60.7568 38.4536 60.7568 38.1404V37.2991H61.0015V39.3099H60.7385L60.0998 38.2896C59.9602 38.0659 59.8259 37.836 59.7242 37.6184L59.7154 37.6218C59.7303 37.8753 59.7364 38.1167 59.7364 38.4503V39.3099H59.4917Z" fill="white"/>
</g>
<mask id="mask7_189_3391" style="mask-type:luminance" maskUnits="userSpaceOnUse" x="0" y="0" width="103" height="40">
<g opacity="0.7">
<path d="M0.446289 39.3399H102.141V0.668701H0.446289V39.3399Z" fill="white"/>
</g>
</mask>
<g mask="url(#mask7_189_3391)">
<path fill-rule="evenodd" clip-rule="evenodd" d="M63.6628 37.5203H63.0513V37.2993H64.5401V37.5203H63.9252V39.3102H63.6628V37.5203Z" fill="white"/>
</g>
<mask id="mask8_189_3391" style="mask-type:luminance" maskUnits="userSpaceOnUse" x="0" y="0" width="103" height="40">
<g opacity="0.7">
<path d="M0.446289 39.3399H102.141V0.668701H0.446289V39.3399Z" fill="white"/>
</g>
</mask>
<g mask="url(#mask8_189_3391)">
<path fill-rule="evenodd" clip-rule="evenodd" d="M67.6278 38.3671H66.8461V39.0919H67.7173V39.3102H66.5864V37.2993H67.6725V37.5169H66.8461V38.1529H67.6278V38.3671Z" fill="white"/>
</g>
<mask id="mask9_189_3391" style="mask-type:luminance" maskUnits="userSpaceOnUse" x="0" y="0" width="103" height="40">
<g opacity="0.7">
<path d="M0.446289 39.3399H102.141V0.668701H0.446289V39.3399Z" fill="white"/>
</g>
</mask>
<g mask="url(#mask9_189_3391)">
<path fill-rule="evenodd" clip-rule="evenodd" d="M70.0946 38.242H70.3604C70.6377 38.242 70.8139 38.0894 70.8139 37.8603C70.8139 37.6006 70.6255 37.4874 70.3509 37.484C70.2261 37.484 70.1367 37.4962 70.0946 37.5084V38.242ZM69.835 37.326C69.9665 37.2989 70.1543 37.2847 70.3333 37.2847C70.6106 37.2847 70.7895 37.3348 70.915 37.4481C71.0167 37.5382 71.0729 37.6752 71.0729 37.8304C71.0729 38.0955 70.9062 38.2718 70.6946 38.343V38.3525C70.8492 38.406 70.9421 38.5491 70.9895 38.7586C71.0553 39.0386 71.1028 39.2325 71.1448 39.3098H70.8763C70.8431 39.2535 70.799 39.0799 70.7421 38.8298C70.6824 38.5525 70.5746 38.4481 70.3394 38.4386H70.0946V39.3098H69.835V37.326Z" fill="white"/>
</g>
<mask id="mask10_189_3391" style="mask-type:luminance" maskUnits="userSpaceOnUse" x="0" y="0" width="103" height="40">
<g opacity="0.7">
<path d="M0.446289 39.3399H102.141V0.668701H0.446289V39.3399Z" fill="white"/>
</g>
</mask>
<g mask="url(#mask10_189_3391)">
<path fill-rule="evenodd" clip-rule="evenodd" d="M62.1186 18.3545C62.4596 17.5742 62.3837 17.4637 61.4637 17.3694C61.6854 17.703 61.8698 17.9803 62.1186 18.3545ZM65.9024 18.3355C65.8962 17.7959 64.7668 16.5972 64.2963 16.5369C64.1457 16.5179 63.9939 16.5179 63.9376 16.6833C63.9037 16.7823 63.88 16.9518 63.9349 17.004C64.4468 17.4942 64.9647 17.9796 65.5071 18.4359C65.6779 18.5796 65.8983 18.5694 65.9024 18.3355ZM65.0068 13.526C64.0596 12.6474 63.2373 13.1023 62.4535 13.8345C63.0434 14.3579 63.9335 14.3518 64.6068 14.7701C65.1579 15.1125 65.6237 15.6203 65.5891 16.3674C65.5505 17.1674 66.64 18.3409 67.6739 18.5186C68.2413 18.6162 68.7478 18.7518 69.0746 19.2643C69.0278 19.3172 68.981 19.3694 68.9342 19.4223C68.1552 18.8854 67.301 18.6359 66.3708 18.8786C65.6318 19.0718 65.0685 18.8799 64.5762 18.3179C64.423 18.143 64.2746 17.7918 63.9681 17.9538C63.7064 18.0921 63.6576 18.427 63.621 18.7165C63.5796 19.0494 63.7498 19.307 64.0434 19.4033C64.3118 19.4908 64.6156 19.4765 64.9044 19.4942C67.0271 19.6162 68.7485 20.4304 69.7817 22.4277C69.4461 22.1877 69.1139 21.943 68.7742 21.7091C67.7247 20.987 66.6027 20.4447 65.2895 20.5274C64.8488 20.5552 64.0624 20.5213 64.8298 21.3186C64.8956 21.3877 64.9478 21.5511 64.9112 21.6176C64.8352 21.7579 64.6624 21.7654 64.522 21.7104C64.0657 21.5328 63.7559 21.2033 63.5525 20.7599C63.4373 20.5077 63.2454 20.2894 62.9464 20.3782C62.6542 20.465 62.7661 20.764 62.7403 20.9823C62.7376 21.0108 62.7471 21.0426 62.739 21.0691C62.6373 21.4182 62.983 22.0454 62.4786 22.0793C61.9586 22.1138 61.9579 21.4854 61.9485 21.0528C61.9356 20.4494 61.7566 19.8948 61.3871 19.4359C60.5417 18.3843 59.7986 17.2277 58.5749 16.5362C58.7281 16.2976 58.819 16.1206 58.4657 15.9213C57.76 15.5233 57.0732 15.2962 56.2427 15.7891C56.6976 16.0772 57.1525 15.7742 57.5532 15.9301C57.9342 16.0786 58.3349 16.185 58.5796 16.5531C57.7051 16.463 56.8508 16.0406 55.9491 16.3443C55.9491 16.4433 55.9301 16.5342 55.9518 16.5457C58.7281 17.9904 59.7885 20.6101 60.6691 23.3606C60.8176 23.823 60.7932 24.025 60.2108 24.0217C56.2108 24.0006 52.2101 24.0081 48.2095 24.0169C47.8813 24.0176 47.6461 23.9613 47.5579 23.6054C47.3986 22.9613 47.004 22.4684 46.5498 21.9999C46.1885 21.627 46.1885 21.2365 46.6359 20.8826C47.3207 20.343 47.9498 19.682 48.9627 20.1362C49.1573 20.2237 49.4217 20.0955 49.4854 19.9199C49.5396 19.7715 49.4678 19.4684 49.3478 19.3857C49.0068 19.1538 48.6156 19.1009 48.3607 18.6304C48.1627 18.265 46.5796 18.9274 46.5112 19.4542C46.324 20.8921 45.6813 21.6854 44.1254 21.8454C43.2441 21.9362 42.4935 22.6887 41.4922 22.6535C39.5864 22.587 37.6183 20.242 37.9654 18.3789C38.0305 18.0291 38.2929 17.8887 38.503 18.1803C38.8468 18.6576 39.2962 18.6318 39.7532 18.5687C40.3613 18.4847 40.96 18.3647 41.5742 18.5152C41.7525 18.5592 41.941 18.5138 42.0379 18.3538C42.1586 18.1531 42.059 17.9728 41.9254 17.7986C41.7335 17.5491 41.4488 17.4779 41.181 17.3715C40.5057 17.1037 39.88 16.6955 39.6603 16.0148C39.4468 15.3538 38.7525 15.124 38.5491 14.4935C38.4786 14.2725 38.2807 14.4074 38.1166 14.4806C37.1871 14.8976 37.1851 14.8928 37.0983 13.7972C37.0291 13.8576 36.9207 13.905 36.9132 13.964C36.7288 15.425 35.9939 16.6915 35.5091 18.046C35.0576 19.307 35.1152 20.6237 35.5268 21.9098C35.562 22.0203 35.604 22.1294 35.6278 22.2426C35.9335 23.6657 35.6596 24.0115 34.2305 24.0115C32.8935 24.0115 32.8827 24.0115 32.8142 22.7043C32.7634 21.7376 32.8447 20.766 33.1756 19.8623C33.6529 18.5559 33.6807 17.2515 33.7193 15.8677C33.8129 12.5199 34.5952 9.30162 36.8237 6.61484C37.1478 6.22298 37.6813 5.89484 37.3966 5.23179C37.3315 5.07993 37.4935 5.05959 37.6 5.04196C37.7722 5.01484 37.9471 4.99993 38.1213 4.98027C38.6725 4.92128 39.3546 4.98569 38.9281 4.05756C38.8657 3.92128 38.8624 3.7145 39.0603 3.5701C39.7349 4.41281 40.4325 3.62433 41.0678 3.50433C42.4264 3.24671 43.3647 2.22162 44.3078 1.27518C44.4671 1.11518 44.5966 0.819589 44.8474 0.921962C45.1559 1.04942 44.9939 1.37688 44.9885 1.62162C44.9837 1.86501 44.6488 2.17688 44.9335 2.32535C45.28 2.50637 45.5959 2.18976 45.8325 1.94298C46.1302 1.62976 46.2569 1.17891 46.6183 0.907725C46.7729 0.791115 46.8976 0.5762 47.1369 0.712471C47.3722 0.845352 47.3281 1.09349 47.2468 1.25756C46.7898 2.17959 47.4054 2.15789 48.0163 2.17078C48.3695 2.17756 48.7146 2.2284 48.9457 2.61756C48.7471 2.66637 48.5763 2.70908 48.339 2.76806C48.9918 3.29891 49.804 3.27247 50.421 3.63925C50.322 4.20196 49.1776 3.56332 49.4474 4.55586C49.2129 4.56874 48.9254 4.58433 48.4461 4.61078C49.2203 5.0562 49.5525 5.5884 49.419 6.35586C49.3769 6.59315 49.6135 6.76603 49.7654 6.93891C50.7444 8.05078 51.5335 9.3145 52.6366 10.3335C53.1783 10.8331 53.0224 11.5159 52.5803 12.0752C52.082 12.7057 51.0285 12.9667 50.4617 12.4433C49.4027 11.4664 48.1356 11.3382 46.8162 11.2311C45.6596 11.1369 44.5824 10.7708 43.7105 9.97688C43.2637 9.56942 42.962 9.6684 42.6359 10.0928C41.9851 10.9389 41.9152 11.9796 41.7146 12.9606C41.6156 13.444 42.1695 13.7308 43.0535 13.7592C42.8305 14.3057 42.2983 14.202 41.8915 14.3247C41.783 14.6101 42.2508 14.5552 42.1546 14.8786C41.8929 15.7538 42.5057 16.2264 43.1118 16.6406C44.9647 17.9057 46.983 17.8352 48.9783 17.1464C50.3735 16.6643 51.7546 16.2759 53.2359 16.3192C53.8135 16.3362 54.0779 16.0372 54.1735 15.503C54.3688 14.4128 54.5159 13.3165 54.4983 12.2081C54.4861 11.4155 54.7674 10.7355 55.2007 10.0928C55.621 9.46908 56.2468 9.31315 56.7878 9.71383C57.659 10.3579 58.6502 10.5009 59.6468 10.6867C60.4569 10.8379 61.1946 11.0494 61.8386 11.6555C62.2278 12.0209 62.8529 12.1809 63.4007 12.324C64.1057 12.5104 64.6895 12.8474 65.1837 13.366C65.1247 13.4196 65.0657 13.4725 65.0068 13.526Z" fill="white"/>
</g>
<mask id="mask11_189_3391" style="mask-type:luminance" maskUnits="userSpaceOnUse" x="0" y="0" width="103" height="40">
<g opacity="0.7">
<path d="M0.446289 39.3399H102.141V0.668701H0.446289V39.3399Z" fill="white"/>
</g>
</mask>
<g mask="url(#mask11_189_3391)">
<path fill-rule="evenodd" clip-rule="evenodd" d="M65.0068 13.526C65.0658 13.4724 65.1241 13.4195 65.1831 13.366C65.5404 13.5165 65.8963 13.6683 66.2529 13.8195C65.714 14.1409 65.3289 13.9477 65.0068 13.526Z" fill="white"/>
</g>
<mask id="mask12_189_3391" style="mask-type:luminance" maskUnits="userSpaceOnUse" x="0" y="0" width="103" height="40">
<g opacity="0.7">
<path d="M0.446289 39.3399H102.141V0.668701H0.446289V39.3399Z" fill="white"/>
</g>
</mask>
<g mask="url(#mask12_189_3391)">
<path fill-rule="evenodd" clip-rule="evenodd" d="M69.0749 19.2643C69.1902 19.3341 69.3339 19.4473 69.2288 19.5606C69.0871 19.7138 69.0227 19.4989 68.9346 19.4222C68.9813 19.3694 69.0281 19.3172 69.0749 19.2643Z" fill="white"/>
</g>
<mask id="mask13_189_3391" style="mask-type:luminance" maskUnits="userSpaceOnUse" x="0" y="0" width="103" height="40">
<g opacity="0.7">
<path d="M0.446289 39.3399H102.141V0.668701H0.446289V39.3399Z" fill="white"/>
</g>
</mask>
<g mask="url(#mask13_189_3391)">
<path fill-rule="evenodd" clip-rule="evenodd" d="M65.9025 18.3353C65.8984 18.5699 65.6781 18.5794 65.5072 18.4357C64.9648 17.9801 64.4469 17.4946 63.935 17.0038C63.8801 16.9516 63.9038 16.7821 63.9377 16.6831C63.994 16.5177 64.1459 16.5177 64.2964 16.5374C64.7669 16.5977 65.8964 17.7957 65.9025 18.3353Z" fill="white"/>
</g>
<mask id="mask14_189_3391" style="mask-type:luminance" maskUnits="userSpaceOnUse" x="0" y="0" width="103" height="40">
<g opacity="0.7">
<path d="M0.446289 39.3399H102.141V0.668701H0.446289V39.3399Z" fill="white"/>
</g>
</mask>
<g mask="url(#mask14_189_3391)">
<path fill-rule="evenodd" clip-rule="evenodd" d="M58.5796 16.553C58.3349 16.1849 57.9342 16.0785 57.5532 15.93C57.1525 15.7747 56.6976 16.0771 56.2427 15.789C57.0732 15.2961 57.76 15.5232 58.4657 15.9212C58.8189 16.1205 58.7281 16.2974 58.5756 16.5368C58.5769 16.5381 58.5796 16.553 58.5796 16.553Z" fill="white"/>
</g>
<mask id="mask15_189_3391" style="mask-type:luminance" maskUnits="userSpaceOnUse" x="0" y="0" width="103" height="40">
<g opacity="0.7">
<path d="M0.446289 39.3399H102.141V0.668701H0.446289V39.3399Z" fill="white"/>
</g>
</mask>
<g mask="url(#mask15_189_3391)">
<path fill-rule="evenodd" clip-rule="evenodd" d="M62.1188 18.3546C61.87 17.9804 61.6856 17.7031 61.4639 17.3695C62.3839 17.4637 62.4598 17.5743 62.1188 18.3546Z" fill="white"/>
</g>
</g>
</g>
<defs>
<clipPath id="clip0_189_3391">
<rect width="101.695" height="40" fill="white" transform="translate(0.446289)"/>
</clipPath>
</defs>
</svg>
