<svg width="75" height="41" viewBox="0 0 75 41" fill="none" xmlns="http://www.w3.org/2000/svg">
<g clip-path="url(#clip0_189_3149)">
<g opacity="0.7">
<path fill-rule="evenodd" clip-rule="evenodd" d="M28.9891 23.0496C28.9891 26.0871 26.9384 27.9704 23.8608 27.9704C20.7843 27.9704 18.7326 26.1089 18.7326 23.0496V10.6166H13.9243V23.3161C13.9243 28.6133 17.8443 32.3591 23.8832 32.3591C29.9232 32.3591 33.8432 28.6133 33.8432 23.3161V10.6166H29.0115L28.9891 23.0496Z" fill="white"/>
<mask id="mask0_189_3149" style="mask-type:luminance" maskUnits="userSpaceOnUse" x="37" y="10" width="24" height="31">
<g opacity="0.7">
<path d="M37.9692 10.1729H60.167V40.2049H37.9692V10.1729Z" fill="white"/>
</g>
</mask>
<g mask="url(#mask0_189_3149)">
<path fill-rule="evenodd" clip-rule="evenodd" d="M48.681 28.1032C45.9468 28.1032 43.941 26.8183 42.7999 25.1114V17.3979C43.941 15.7366 45.8317 14.4506 48.681 14.4506C52.5317 14.4506 55.2222 17.5089 55.2222 21.2764C55.2222 25.045 52.5317 28.1032 48.681 28.1032ZM49.2046 10.1729C46.6069 10.1729 44.3281 11.0149 42.7999 12.5663V10.6167H37.9692V40.2054H42.7999V29.9211C44.3281 31.4954 46.6069 32.3592 49.2046 32.3592C55.7458 32.3592 60.167 27.2829 60.167 21.2764C60.167 15.2699 55.7458 10.1946 49.2046 10.1729Z" fill="white"/>
</g>
<mask id="mask1_189_3149" style="mask-type:luminance" maskUnits="userSpaceOnUse" x="1" y="0" width="12" height="33">
<g opacity="0.7">
<path d="M1.54883 0.797485H12.5341V32.3586H1.54883V0.797485Z" fill="white"/>
</g>
</mask>
<g mask="url(#mask1_189_3149)">
<path fill-rule="evenodd" clip-rule="evenodd" d="M11.1212 27.3943C10.4601 27.7707 9.70828 27.9708 8.95648 27.9708C7.29186 27.9708 6.38118 26.995 6.38118 25.0225V0.797363H1.54834V25.5991C1.54834 29.8095 4.12365 32.3585 8.24947 32.3585C9.77653 32.3368 11.2577 31.9157 12.5342 31.14L11.1212 27.3943Z" fill="white"/>
</g>
<mask id="mask2_189_3149" style="mask-type:luminance" maskUnits="userSpaceOnUse" x="63" y="0" width="12" height="33">
<g opacity="0.7">
<path d="M63.54 0.797485H74.5256V32.3586H63.54V0.797485Z" fill="white"/>
</g>
</mask>
<g mask="url(#mask2_189_3149)">
<path fill-rule="evenodd" clip-rule="evenodd" d="M73.1129 27.3944C72.4518 27.7708 71.7 27.971 70.9482 27.971C69.2836 27.971 68.3729 26.9951 68.3729 25.0227V0.797485H63.54V25.5993C63.54 29.8096 66.1153 32.3587 70.2412 32.3587C71.7682 32.3369 73.2494 31.9159 74.5259 31.1402L73.1129 27.3944Z" fill="white"/>
</g>
</g>
</g>
<defs>
<clipPath id="clip0_189_3149">
<rect width="74.0741" height="40" fill="white" transform="translate(0.561035 0.649414)"/>
</clipPath>
</defs>
</svg>
