<svg width="169" height="41" viewBox="0 0 169 41" fill="none" xmlns="http://www.w3.org/2000/svg">
<g opacity="0.7">
<path fill-rule="evenodd" clip-rule="evenodd" d="M44.2065 33.1421H49.3988V2.38647H44.2065V33.1421Z" fill="white"/>
<path fill-rule="evenodd" clip-rule="evenodd" d="M23.943 13.4911C23.943 12.7635 23.4429 12.3678 22.8695 12.3678C22.2989 12.3678 21.7863 12.7524 21.7863 13.4911V28.3038C21.7863 29.0425 22.2989 29.4285 22.8695 29.4285C23.4443 29.4285 23.943 29.0245 23.943 28.3038V23.4497H29.1297V27.9248C29.1297 31.5547 26.2794 33.4457 22.846 33.4457C19.5619 33.4457 16.5996 31.6155 16.5996 27.9248V13.8674C16.5996 10.1849 19.5632 8.34924 22.846 8.34924C26.2214 8.34924 29.1297 10.243 29.1297 13.8674V17.8749H23.943V13.4911Z" fill="white"/>
<path fill-rule="evenodd" clip-rule="evenodd" d="M35.5855 14.1584C35.5855 13.4197 36.0967 13.0351 36.6673 13.0351C37.2407 13.0351 37.7422 13.4335 37.7422 14.1584V33.146H42.933V12.8027C42.933 9.48684 40.7873 8.34421 39.1501 8.34421C37.3208 8.34421 36.0345 9.66944 35.6794 10.3417H35.5965V2.38757H30.4043V33.146H35.5855V14.1584Z" fill="white"/>
<path fill-rule="evenodd" clip-rule="evenodd" d="M58.0089 27.8607C58.0089 28.5842 57.5073 28.9853 56.934 28.9853C56.3647 28.9853 55.8521 28.6008 55.8521 27.8607V8.63513H50.6641V29.0504C50.6641 31.7575 52.5279 33.4452 54.5285 33.4452C56.5568 33.4452 57.6566 31.9747 57.9674 31.4352H58.0849L58.1788 33.145H63.1983V8.63513H58.0089V27.8607Z" fill="white"/>
<path fill-rule="evenodd" clip-rule="evenodd" d="M69.6533 33.1455H64.4639V8.63559H69.6036L69.6547 10.3454H69.7597C70.1397 9.59286 71.3748 8.34509 73.247 8.34509C75.184 8.34509 76.4303 9.83909 76.6969 10.7189H76.7702C77.157 9.82526 78.5166 8.34509 80.4812 8.34509C82.468 8.34509 84.3706 9.69384 84.3706 13.0304V33.1455H79.1797V13.9158C79.1797 13.1743 78.6713 12.7897 78.0993 12.7897C77.5259 12.7897 77.0202 13.1868 77.0202 13.9158V33.1455H71.8059V13.9241C71.8059 13.184 71.2878 12.798 70.7172 12.798C70.1438 12.798 69.6533 13.1978 69.6533 13.9241V33.1455Z" fill="white"/>
<path fill-rule="evenodd" clip-rule="evenodd" d="M92.9946 27.8701C92.9946 28.5949 92.4931 28.9947 91.9169 28.9947C91.3463 28.9947 90.8337 28.6074 90.8337 27.8701V13.9316C90.8337 13.1929 91.3463 12.807 91.9169 12.807C92.4931 12.807 92.9946 13.2081 92.9946 13.9316V27.8701ZM94.2547 8.34433C92.518 8.34295 91.269 9.8162 90.9415 10.3529H90.831V2.3877H85.6401V33.1447H90.7729L90.831 31.4349H90.9415C91.2013 32.0962 92.3149 33.4352 94.2188 33.438C96.417 33.4408 98.2034 31.5456 98.2034 28.6779V12.8014C98.2034 10.0444 96.3396 8.34433 94.2547 8.34433Z" fill="white"/>
<path fill-rule="evenodd" clip-rule="evenodd" d="M106.819 18.0584V13.4961C106.819 12.7699 106.317 12.3715 105.747 12.3715C105.176 12.3715 104.661 12.7547 104.661 13.4961L104.663 18.0584H106.819ZM104.661 28.3158C104.661 29.0545 105.175 29.4418 105.747 29.4418C106.317 29.4418 106.817 29.042 106.817 28.3158V23.4492H112.007V27.9202C112.007 31.6164 108.969 33.4452 105.725 33.4452C102.438 33.4452 99.4644 31.6164 99.4644 27.9202V13.8766C99.4644 10.1914 102.434 8.34875 105.719 8.34875C109.093 8.34875 112.007 10.2342 112.007 13.8766V21.7961H104.659L104.661 28.3158Z" fill="white"/>
<path fill-rule="evenodd" clip-rule="evenodd" d="M119.56 12.8019C118.992 12.8019 118.474 13.1865 118.474 13.928V33.1452H113.279V8.63535H118.37L118.47 10.341H118.584C119.073 9.6604 120.328 8.34485 122.062 8.34485C124.072 8.34485 125.826 9.97718 125.826 12.5709V21.7701H120.632V13.7661C120.632 13.1796 120.072 12.8019 119.549 12.8019H119.56Z" fill="white"/>
<path fill-rule="evenodd" clip-rule="evenodd" d="M148.23 18.0584V13.4961C148.23 12.7699 147.731 12.3715 147.158 12.3715C146.589 12.3715 146.072 12.7547 146.072 13.4961L146.075 18.0584H148.23ZM146.072 28.3158C146.072 29.0545 146.589 29.4418 147.158 29.4418C147.731 29.4418 148.23 29.042 148.23 28.3158V23.4492H153.42V27.9202C153.42 31.6164 150.376 33.4452 147.136 33.4452C143.85 33.4452 140.88 31.6164 140.88 27.9202V13.8766C140.88 10.1914 143.845 8.34875 147.132 8.34875C150.504 8.34875 153.42 10.2342 153.42 13.8766V21.7961H146.072V28.3158Z" fill="white"/>
<path fill-rule="evenodd" clip-rule="evenodd" d="M160.957 12.8019C160.38 12.8019 159.869 13.1865 159.869 13.928V33.1452H154.673V8.63535H159.761L159.864 10.341H159.977C160.467 9.6604 161.722 8.34485 163.459 8.34485C165.469 8.34485 167.224 9.97718 167.224 12.5709V21.7701H162.025V13.7661C162.025 13.1796 161.465 12.8019 160.943 12.8019H160.957Z" fill="white"/>
<mask id="mask0_189_3172" style="mask-type:luminance" maskUnits="userSpaceOnUse" x="127" y="8" width="13" height="32">
<g opacity="0.7">
<path d="M127.092 8.34473H139.625V39.8402H127.092V8.34473Z" fill="white"/>
</g>
</mask>
<g mask="url(#mask0_189_3172)">
<path fill-rule="evenodd" clip-rule="evenodd" d="M134.432 34.9407C134.432 35.6656 133.931 36.064 133.359 36.064C132.79 36.064 132.275 35.6766 132.275 34.9407V32.9528H127.092V34.3044C127.092 38.1362 129.731 39.8405 133.341 39.8405C136.924 39.8405 139.625 38.1362 139.625 34.3044V8.63523H134.51L134.432 10.3533H134.306C134.035 9.79169 132.821 8.34473 130.885 8.34473C129.011 8.34473 127.092 9.78478 127.092 12.4477V27.0847C127.092 29.8888 128.89 31.5252 130.914 31.5252C132.84 31.5252 133.959 30.2374 134.278 29.7255H134.432V34.9407ZM134.432 26.3336C134.432 27.0585 133.934 27.4569 133.359 27.4569C132.79 27.4569 132.275 27.0737 132.275 26.3336V13.9348C132.275 13.1988 132.79 12.8157 133.359 12.8157C133.934 12.8157 134.432 13.2113 134.432 13.9348V26.3336Z" fill="white"/>
</g>
<path fill-rule="evenodd" clip-rule="evenodd" d="M7.26972 27.92C7.26972 28.6601 7.78508 29.0461 8.3557 29.0461C8.9277 29.0461 9.42647 28.6449 9.42647 27.92V25.0136C9.42647 22.6952 8.93046 21.8513 7.21031 20.2328C5.74439 18.8523 5.00521 18.1412 4.05741 17.2476C2.8457 16.1008 1.44748 14.5017 1.44748 11.5165V7.83265C1.4461 3.78778 4.80764 2.28271 8.34879 2.28271C11.8789 2.28271 15.2128 3.82098 15.2128 7.8036V12.554H9.42647V7.9447C9.42647 7.21845 8.92631 6.82005 8.35293 6.82005C7.78231 6.82005 7.26972 7.206 7.26972 7.9447V10.158C7.26972 12.0739 7.86936 12.9178 9.45686 14.4339C10.0938 15.0467 11.539 16.4536 12.6512 17.5395C14.6394 19.49 15.3275 21.2482 15.3275 23.6677V27.7845C15.3275 32.0673 11.8858 33.5696 8.34879 33.5696C4.76619 33.5709 1.42676 32.0673 1.42676 27.9892V22.0907H7.26972V27.92Z" fill="white"/>
</g>
</svg>
