<svg width="99" height="40" viewBox="0 0 99 40" fill="none" xmlns="http://www.w3.org/2000/svg">
<g clip-path="url(#clip0_189_3317)">
<g opacity="0.7">
<path fill-rule="evenodd" clip-rule="evenodd" d="M21.5604 9.20249H25.2319L23.7826 4.75804L23.3962 2.92229L22.9131 4.75804L21.5604 9.20249ZM21.5604 15.2894H17.5024V14.7097C17.8889 14.4199 18.372 14.2266 18.7585 14.13L23.3962 0.313599H23.9759L28.6136 14.13C28.9034 14.2266 29.0966 14.2266 29.3865 14.3233C29.5797 14.4199 29.8696 14.5165 30.0628 14.6131V15.1928H25.2319V14.6131C25.5218 14.5165 25.715 14.4199 26.0049 14.3233C26.2947 14.2266 26.5846 14.2266 26.7778 14.13L25.5218 10.2653H21.1739L19.9179 14.13C20.4976 14.2266 20.9807 14.4199 21.5604 14.6131V15.2894Z" fill="white"/>
<path fill-rule="evenodd" clip-rule="evenodd" d="M39.4349 15.2894H35.4736V14.8063C35.5702 14.7097 35.7634 14.6131 35.9566 14.5164C36.1499 14.4198 36.3431 14.3232 36.633 14.3232V9.49229C36.633 8.91258 36.633 8.42949 36.5364 7.9464C36.5364 7.46331 36.4397 7.17345 36.3431 6.78698C36.2465 6.49713 36.0533 6.30389 35.86 6.11065C35.6668 5.91742 35.3769 5.91741 34.9905 5.91741C34.7006 5.91741 34.5074 6.01403 34.2175 6.11065C34.0243 6.20727 33.831 6.40051 33.6378 6.59374C33.4446 6.78698 33.348 7.07684 33.1547 7.27007C33.0581 7.55993 32.9615 7.84978 32.8649 8.13964V14.2266C33.0581 14.3232 33.2513 14.3232 33.4446 14.4198C33.6378 14.5164 33.831 14.6131 33.9277 14.7097V15.1928H29.9663V14.7097C30.1595 14.6131 30.3528 14.5164 30.546 14.4198C30.7393 14.3232 30.9325 14.2266 31.2223 14.2266V6.01403L29.9663 5.8208V5.24109C30.3528 5.04785 30.7393 4.85461 31.1257 4.75799C31.5122 4.66138 31.8987 4.56476 32.2851 4.46814H32.7682V6.78698C32.9615 6.11065 33.2513 5.53094 33.7344 5.14447C34.2175 4.66138 34.7972 4.46814 35.4736 4.46814C35.7634 4.46814 36.0533 4.46814 36.3431 4.56476C36.633 4.66138 36.8262 4.75799 37.1161 4.95123C37.3093 5.14447 37.5025 5.43432 37.6958 5.72418C37.889 6.01403 37.9856 6.49713 38.0823 6.98022C38.2755 6.20727 38.662 5.62756 39.1451 5.14447C39.6281 4.66138 40.2079 4.46814 40.9808 4.46814C41.4639 4.46814 41.8504 4.56476 42.1402 4.66138C42.4301 4.758 42.7199 5.04785 43.0098 5.33771C43.203 5.62756 43.3963 6.11065 43.4929 6.69036C43.5895 7.27007 43.6861 7.9464 43.6861 8.91258V14.2266C44.0726 14.3232 44.5557 14.5164 44.9422 14.7097V15.1928H40.9808V14.7097C41.3673 14.5164 41.7537 14.3232 42.0436 14.2266V9.0092C42.0436 8.52611 42.0436 8.04302 41.947 7.65655C41.947 7.27007 41.8504 6.98022 41.6571 6.69036C41.5605 6.40051 41.3673 6.20727 41.174 6.11065C40.9808 5.91742 40.6909 5.91741 40.3045 5.91741C39.7248 5.91741 39.2417 6.11065 38.9518 6.59374C38.662 7.07684 38.3721 7.65655 38.2755 8.33287V14.2266C38.662 14.3232 39.1451 14.5164 39.4349 14.7097V15.2894Z" fill="white"/>
<path fill-rule="evenodd" clip-rule="evenodd" d="M49.4833 5.43438C48.8069 5.43438 48.2272 5.72424 47.8408 6.20733C47.4543 6.78704 47.261 7.65661 47.1644 9.00926H51.2224C51.2224 8.91265 51.2224 8.71941 51.2224 8.62279C51.2224 8.52617 51.2224 8.42955 51.2224 8.23632C51.2224 7.36675 51.0292 6.59381 50.7393 6.11071C50.5461 5.72424 50.063 5.43438 49.4833 5.43438ZM52.8649 13.7436C52.7683 13.9368 52.5751 14.2267 52.3818 14.4199C52.1886 14.6131 51.8987 14.8064 51.7055 14.9996C51.4156 15.1928 51.1258 15.2895 50.8359 15.3861C50.5461 15.4827 50.1596 15.4827 49.8697 15.4827C49.0968 15.4827 48.5171 15.3861 47.9374 15.0962C47.3577 14.8064 46.9712 14.5165 46.5847 14.0334C46.1982 13.5503 45.9084 12.9706 45.7151 12.2943C45.5219 11.618 45.4253 10.845 45.4253 10.0721C45.4253 8.33294 45.8118 6.88366 46.4881 6.01409C47.261 5.04791 48.2272 4.56482 49.5799 4.56482C49.9664 4.56482 50.4494 4.66144 50.8359 4.75806C51.2224 4.85467 51.6089 5.14453 51.9953 5.43438C52.2852 5.72424 52.575 6.11071 52.7683 6.69042C52.9615 7.17351 53.0581 7.84984 53.0581 8.62279C53.0581 8.81603 53.0581 9.10588 53.0581 9.29912C53.0581 9.58897 52.9615 9.78221 52.9615 10.0721H47.261C47.261 10.6518 47.3577 11.2315 47.4543 11.7146C47.5509 12.1977 47.7441 12.6808 48.034 13.0672C48.3238 13.4537 48.6137 13.7436 49.0002 13.9368C49.29 14.13 49.7731 14.2267 50.2562 14.2267C50.6427 14.2267 51.1258 14.13 51.6089 14.0334C52.092 13.9368 52.3818 13.7436 52.575 13.4537L52.8649 13.7436Z" fill="white"/>
<path fill-rule="evenodd" clip-rule="evenodd" d="M57.6957 6.40055C57.5991 6.49717 57.4059 6.6904 57.2126 6.88364C57.0194 7.1735 56.8262 7.55997 56.6329 8.04306V14.2266C56.9228 14.2266 57.116 14.3233 57.4059 14.4199C57.6957 14.5165 57.889 14.6131 58.1788 14.8063V15.2894H53.831V14.8063C54.0242 14.7097 54.2175 14.5165 54.4107 14.5165C54.6039 14.4199 54.7972 14.4199 54.9904 14.3233V6.11069L53.7344 5.91746V5.33775C54.1208 5.14451 54.5073 4.95127 54.9904 4.85466C55.3769 4.75804 55.7634 4.66142 56.1498 4.5648H56.6329V6.78702H56.7295C56.8262 6.49717 57.0194 6.20731 57.2126 5.91746C57.4059 5.6276 57.6957 5.43437 57.889 5.14451C58.1788 4.95127 58.4687 4.75804 58.7585 4.66142C59.0484 4.5648 59.4349 4.46818 59.7247 4.5648C59.8213 4.75804 59.918 4.95127 59.918 5.14451C60.0146 5.33775 60.0146 5.6276 60.1112 5.82084V6.40055H57.6957Z" fill="white"/>
<path fill-rule="evenodd" clip-rule="evenodd" d="M61.2704 1.27978C61.2704 0.893309 61.367 0.603454 61.5602 0.410217C61.7535 0.216981 62.0433 0.120361 62.4298 0.120361C62.8163 0.120361 63.1061 0.216981 63.2994 0.410217C63.4926 0.603454 63.5892 0.893309 63.5892 1.27978C63.5892 1.66626 63.4926 1.95611 63.2994 2.14935C63.1061 2.34258 62.8163 2.4392 62.4298 2.4392C62.0433 2.4392 61.7535 2.34258 61.5602 2.14935C61.367 1.95611 61.2704 1.56964 61.2704 1.27978ZM64.4588 15.2894H60.4008V14.8064C60.5941 14.7097 60.7873 14.6131 60.9805 14.5165C61.1738 14.3233 61.367 14.3233 61.5602 14.2266V6.01408L60.3042 5.82084V5.24113C60.6907 5.0479 61.0771 4.95128 61.4636 4.75804C61.8501 4.66142 62.3332 4.56481 62.7197 4.46819H63.2027V14.13C63.4926 14.2266 63.6858 14.2266 63.8791 14.3233C64.0723 14.4199 64.2656 14.5165 64.4588 14.6131V15.2894Z" fill="white"/>
<path fill-rule="evenodd" clip-rule="evenodd" d="M72.3817 13.7436C72.1885 14.2267 71.802 14.7097 71.3189 14.9996C70.8358 15.2895 70.2561 15.4827 69.5798 15.4827C68.8068 15.4827 68.2271 15.3861 67.6474 15.0962C67.0677 14.8064 66.6812 14.5165 66.2947 14.0334C66.0049 13.5503 65.715 12.9706 65.5218 12.2943C65.3286 11.618 65.2319 10.845 65.2319 10.0721C65.2319 8.33294 65.6184 6.98028 66.3914 6.01409C67.1643 5.04791 68.2271 4.56482 69.4831 4.56482C70.0628 4.56482 70.6426 4.66144 71.1257 4.75806C71.6087 4.85467 71.9952 5.04791 72.2851 5.24115C72.2851 5.72424 72.1885 6.20733 72.0918 6.78704C71.9952 7.36675 71.8986 7.84984 71.7054 8.23632H71.2223L70.4493 5.72424C70.3527 5.62762 70.2561 5.62762 70.1595 5.531C70.0628 5.531 69.8696 5.43438 69.5798 5.43438C68.7102 5.43438 68.1305 5.82086 67.6474 6.49719C67.1643 7.17351 66.9711 8.33294 66.9711 9.97545C66.9711 10.4585 67.0677 11.0382 67.1643 11.5213C67.2609 12.0044 67.4542 12.4875 67.744 12.874C68.0339 13.2605 68.3237 13.5503 68.7102 13.8402C69.1933 14.13 69.6764 14.2267 70.1595 14.2267C70.5459 14.2267 70.9324 14.13 71.3189 14.0334C71.6087 13.9368 71.8986 13.7436 72.0918 13.5503L72.3817 13.7436Z" fill="white"/>
<path fill-rule="evenodd" clip-rule="evenodd" d="M76.4397 14.2266C76.7296 14.2266 77.0195 14.13 77.2127 14.0334C77.4059 13.9367 77.5992 13.7435 77.7924 13.5503C77.9856 13.357 78.0823 13.1638 78.1789 12.9706C78.2755 12.7773 78.3721 12.5841 78.3721 12.4875V10.2652C77.6958 10.2652 77.1161 10.2652 76.633 10.3619C76.1499 10.4585 75.86 10.5551 75.5702 10.7483C75.2803 10.9416 75.0871 11.1348 74.9905 11.4247C74.8939 11.7145 74.7972 12.0044 74.7972 12.3908C74.7972 12.9706 74.8939 13.4536 75.1837 13.7435C75.5702 14.0334 75.9567 14.2266 76.4397 14.2266ZM80.0146 12.4875C80.0146 12.7773 80.0146 13.0672 80.0146 13.2604C80.0146 13.4536 80.0146 13.7435 80.0146 13.9367L81.2707 14.2266V14.7097C80.9808 14.9029 80.5943 15.0962 80.2079 15.1928C79.8214 15.2894 79.4349 15.4826 79.1451 15.4826H78.662C78.5654 15.0962 78.5654 14.8063 78.4687 14.4198C78.4687 14.0334 78.4687 13.6469 78.3721 13.1638H78.2755C78.1789 13.4536 78.1789 13.7435 77.9856 14.0334C77.889 14.3232 77.6958 14.6131 77.4059 14.8063C77.2127 14.9995 76.9228 15.1928 76.633 15.386C76.3431 15.4826 75.9567 15.5793 75.5702 15.5793C74.7972 15.5793 74.2175 15.2894 73.7344 14.8063C73.2513 14.3232 73.0581 13.6469 73.0581 12.7773C73.0581 12.101 73.1547 11.6179 73.4446 11.2314C73.6378 10.845 74.0243 10.4585 74.4108 10.2652C74.8939 10.072 75.3769 9.87877 76.0533 9.78215C76.7296 9.68553 77.5026 9.58891 78.2755 9.58891C78.3721 9.0092 78.3721 8.42949 78.2755 7.9464C78.2755 7.46331 78.1789 7.07684 78.0823 6.69036C77.9856 6.30389 77.7924 6.11065 77.5992 5.91741C77.4059 5.72418 77.1161 5.62756 76.7296 5.62756C76.5364 5.62756 76.3431 5.62756 76.1499 5.62756C75.9567 5.62756 75.7634 5.72418 75.4736 5.8208L74.7006 8.13964H74.2175C74.1209 7.75316 74.0243 7.27007 73.9277 6.8836C73.8311 6.40051 73.7344 6.01403 73.7344 5.53094C74.2175 5.24109 74.7006 4.95123 75.2803 4.75799C75.86 4.56476 76.4397 4.46814 77.2127 4.46814C77.7924 4.46814 78.3721 4.56476 78.7586 4.75799C79.1451 4.95123 79.4349 5.24109 79.6282 5.53094C79.8214 5.8208 79.918 6.20727 80.0146 6.59374C80.1112 6.98022 80.1112 7.36669 80.1112 7.75316C80.1112 8.62273 80.1112 9.39568 80.1112 10.1686C80.0146 11.0382 80.0146 11.8111 80.0146 12.4875Z" fill="white"/>
<path fill-rule="evenodd" clip-rule="evenodd" d="M91.7055 15.2895H87.7441V14.8064C88.034 14.6131 88.4205 14.4199 88.8069 14.3233V9.39574C88.8069 8.33294 88.7103 7.46337 88.4204 6.88366C88.1306 6.30395 87.6475 5.91748 86.9712 5.91748C86.6813 5.91748 86.3915 6.0141 86.1016 6.11071C85.8118 6.20733 85.6185 6.30395 85.3287 6.49719C85.1354 6.69042 84.9422 6.98028 84.8456 7.27013C84.749 7.55999 84.5557 7.84984 84.4591 8.1397V14.2267C84.8456 14.3233 85.232 14.5165 85.5219 14.7097V15.1928H81.5605V14.7097C81.8504 14.5165 82.2369 14.3233 82.8166 14.2267V6.01409L81.5605 5.82086V5.24115C81.8504 5.04791 82.2369 4.95129 82.6233 4.85467C83.0098 4.75806 83.4929 4.66144 83.976 4.56482H84.4591V6.88366C84.749 6.20733 85.1354 5.72424 85.6185 5.24115C86.1016 4.75806 86.6813 4.56482 87.3576 4.56482C87.8407 4.56482 88.3238 4.66144 88.7103 4.75806C89.0968 4.85467 89.3866 5.14453 89.6765 5.43438C89.9663 5.72424 90.1596 6.20733 90.2562 6.78704C90.3528 7.36675 90.4494 8.04308 90.4494 8.91265V14.2267C90.9325 14.3233 91.319 14.5165 91.7055 14.7097V15.2895Z" fill="white"/>
<path fill-rule="evenodd" clip-rule="evenodd" d="M46.2946 31.0382H42.8163V30.5551C43.0096 30.4585 43.2028 30.3619 43.396 30.3619C43.5893 30.2653 43.7825 30.2653 43.9757 30.1687V22.246L44.0724 20.217H43.9757L43.4927 22.0527L40.5941 31.0382H40.2076L37.5023 22.0527L37.0192 20.0237H36.9226V22.246V30.1687C37.1158 30.1687 37.3091 30.2653 37.4057 30.3619C37.5023 30.4585 37.7922 30.5551 37.8888 30.6518V31.1348H34.9902V30.6518C35.1835 30.5551 35.3767 30.4585 35.5699 30.3619C35.7632 30.2653 35.9564 30.2653 36.1497 30.1687V19.7339C35.9564 19.7339 35.7632 19.6373 35.5699 19.5406C35.3767 19.444 35.1835 19.3474 34.9902 19.2508V18.7677H37.8888L40.4009 26.787L40.884 28.6228L41.367 26.787L43.8791 18.7677H46.3912V19.2508C46.198 19.3474 46.0047 19.444 45.9081 19.5406C45.7149 19.6373 45.5216 19.6373 45.3284 19.7339V30.1687C45.5216 30.1687 45.7149 30.2653 45.9081 30.3619C46.1013 30.4585 46.198 30.4585 46.3912 30.5551V31.0382H46.2946Z" fill="white"/>
<path fill-rule="evenodd" clip-rule="evenodd" d="M50.2563 22.9222C49.7732 22.9222 49.2901 23.1155 49.0002 23.5986C48.7104 24.0817 48.5171 24.8546 48.5171 26.014H51.6089C51.6089 25.9174 51.6089 25.8208 51.6089 25.7242C51.6089 25.6276 51.6089 25.5309 51.6089 25.4343C51.6089 24.6614 51.5123 24.0817 51.3191 23.5986C51.1258 23.1155 50.7394 22.9222 50.2563 22.9222ZM52.865 29.8788C52.7684 30.072 52.6717 30.2652 52.4785 30.4585C52.2853 30.6517 52.092 30.7483 51.8988 30.9416C51.7056 31.0382 51.5123 31.1348 51.2225 31.2314C50.9326 31.328 50.7394 31.328 50.4495 31.328C49.8698 31.328 49.3867 31.2314 49.0002 31.0382C48.6138 30.8449 48.2273 30.5551 47.9374 30.072C47.6476 29.6855 47.4543 29.2024 47.2611 28.6227C47.1645 28.043 47.0679 27.4633 47.0679 26.6904C47.0679 25.2411 47.3577 24.0817 47.9374 23.3087C48.5171 22.5358 49.2901 22.1493 50.2563 22.1493C50.5461 22.1493 50.9326 22.2459 51.2225 22.3425C51.5123 22.4391 51.8022 22.6324 52.092 22.9222C52.3819 23.2121 52.5751 23.5019 52.6717 23.985C52.7684 24.4681 52.865 24.9512 52.865 25.5309C52.865 25.7242 52.865 25.9174 52.865 26.1106C52.865 26.3039 52.865 26.4971 52.7684 26.787H48.4205C48.4205 27.2701 48.5171 27.7532 48.6138 28.1396C48.7104 28.5261 48.9036 28.9126 49.0969 29.2991C49.2901 29.5889 49.5799 29.8788 49.8698 30.072C50.1597 30.2652 50.5461 30.3619 50.9326 30.3619C51.2225 30.3619 51.6089 30.2652 51.8988 30.1686C52.1886 30.072 52.4785 29.8788 52.6717 29.6855L52.865 29.8788Z" fill="white"/>
<path fill-rule="evenodd" clip-rule="evenodd" d="M57.5993 29.1058C57.5993 28.816 57.5027 28.5261 57.3094 28.2362C57.1162 28.043 56.923 27.7532 56.7297 27.5599C56.4399 27.3667 56.2466 27.1734 55.9568 26.9802C55.6669 26.787 55.3771 26.5937 55.1838 26.3039C54.894 26.014 54.7007 25.7242 54.6041 25.4343C54.4109 25.1445 54.3143 24.6614 54.3143 24.1783C54.3143 23.8884 54.4109 23.5986 54.5075 23.3087C54.6041 23.0189 54.7974 22.8256 54.9906 22.6324C55.1838 22.4391 55.3771 22.2459 55.6669 22.1493C55.9568 22.0527 56.2466 21.9561 56.5365 21.9561C57.0196 21.9561 57.4061 21.9561 57.7925 22.0527C58.179 22.1493 58.4689 22.2459 58.7587 22.3425C58.7587 22.729 58.6621 23.1155 58.6621 23.5019C58.6621 23.8884 58.2756 24.3715 58.2756 24.8546H57.8891L57.3094 23.0189C57.2128 22.9222 57.1162 22.9222 56.923 22.9222C56.7297 22.9222 56.6331 22.9222 56.5365 22.9222C56.3433 22.9222 56.2466 22.9222 56.0534 23.0189C55.9568 23.1155 55.8602 23.2121 55.7635 23.3087C55.6669 23.4053 55.5703 23.5986 55.5703 23.6952C55.5703 23.8884 55.4737 23.985 55.4737 24.1783C55.4737 24.4681 55.5703 24.758 55.7635 24.9512C55.9568 25.1445 56.15 25.4343 56.3433 25.6276C56.6331 25.8208 56.8263 26.014 57.1162 26.2073C57.4061 26.4005 57.6959 26.5937 57.8891 26.8836C58.179 27.0768 58.3722 27.3667 58.4689 27.6565C58.6621 27.9464 58.7587 28.3329 58.7587 28.816C58.7587 29.2024 58.6621 29.5889 58.5655 29.8788C58.4689 30.1686 58.2756 30.4585 57.9858 30.6517C57.7925 30.8449 57.5027 31.0382 57.1162 31.1348C56.8263 31.2314 56.4399 31.328 56.15 31.328C55.7635 31.328 55.3771 31.328 55.0872 31.2314C54.7974 31.1348 54.4109 31.0382 54.0244 30.8449C54.0244 30.4585 54.121 29.9754 54.121 29.5889C54.2177 29.2024 54.3143 28.816 54.4109 28.4295H54.7974L55.3771 30.3619C55.4737 30.4585 55.5703 30.5551 55.7635 30.5551C55.8602 30.5551 56.0534 30.5551 56.15 30.5551C56.5365 30.5551 56.923 30.4585 57.1162 30.1686C57.5027 29.7821 57.5993 29.4923 57.5993 29.1058Z" fill="white"/>
<path fill-rule="evenodd" clip-rule="evenodd" d="M63.4928 29.1058C63.4928 28.816 63.3962 28.5261 63.203 28.2362C63.0098 28.043 62.8165 27.7532 62.6233 27.5599C62.3334 27.3667 62.1402 27.1734 61.8503 26.9802C61.5605 26.787 61.2706 26.5937 61.0774 26.3039C60.7875 26.014 60.5943 25.7242 60.4977 25.4343C60.3044 25.1445 60.2078 24.6614 60.2078 24.1783C60.2078 23.8884 60.3044 23.5986 60.4011 23.3087C60.4977 23.0189 60.6909 22.8256 60.8842 22.6324C61.0774 22.4391 61.2706 22.2459 61.5605 22.1493C61.8503 22.0527 62.1402 21.9561 62.43 21.9561C62.9131 21.9561 63.2996 21.9561 63.6861 22.0527C63.9759 22.1493 64.3624 22.2459 64.6523 22.3425C64.6523 22.729 64.5556 23.1155 64.5556 23.5019C64.5556 23.8884 64.1692 24.3715 64.0726 24.8546H63.6861L63.203 23.0189C63.1064 22.9222 63.0098 22.9222 62.8165 22.9222C62.7199 22.9222 62.5267 22.9222 62.43 22.9222C62.2368 22.9222 62.1402 22.9222 61.947 23.0189C61.8503 23.1155 61.7537 23.2121 61.6571 23.3087C61.5605 23.4053 61.4639 23.5986 61.4639 23.6952C61.4639 23.8884 61.3672 23.985 61.3672 24.1783C61.3672 24.4681 61.4639 24.758 61.6571 24.9512C61.8503 25.1445 62.0436 25.4343 62.2368 25.6276C62.5267 25.8208 62.7199 26.014 63.0098 26.2073C63.2996 26.4005 63.5895 26.5937 63.7827 26.8836C64.0726 27.0768 64.2658 27.3667 64.3624 27.6565C64.5556 27.9464 64.6523 28.3329 64.6523 28.816C64.6523 29.2024 64.5557 29.5889 64.459 29.8788C64.3624 30.1686 64.1692 30.4585 63.8793 30.6517C63.5895 30.8449 63.3962 31.0382 63.0098 31.1348C62.7199 31.2314 62.3334 31.328 62.0436 31.328C61.6571 31.328 61.2706 31.328 60.9808 31.2314C60.6909 31.1348 60.3044 31.0382 59.918 30.8449C59.918 30.4585 60.0146 29.9754 60.0146 29.5889C60.1112 29.2024 60.2078 28.816 60.3044 28.4295H60.6909L61.2706 30.3619C61.3672 30.4585 61.4639 30.5551 61.6571 30.5551C61.7537 30.5551 61.947 30.5551 62.0436 30.5551C62.43 30.5551 62.8165 30.4585 63.0098 30.1686C63.2996 29.7821 63.4928 29.4923 63.4928 29.1058Z" fill="white"/>
<path fill-rule="evenodd" clip-rule="evenodd" d="M68.227 30.1686C68.4203 30.1686 68.7101 30.072 68.8068 29.9754C68.9034 29.8788 69.0966 29.6855 69.2898 29.5889C69.3865 29.3957 69.4831 29.299 69.5797 29.1058C69.6763 28.9126 69.6763 28.816 69.7729 28.7193V26.8836C69.1932 26.8836 68.8068 26.8836 68.4203 26.9802C68.0338 27.0768 67.8406 27.1734 67.6473 27.2701C67.4541 27.4633 67.3575 27.6565 67.2609 27.8498C67.1642 28.043 67.1642 28.3329 67.1642 28.6227C67.1642 29.1058 67.2609 29.4923 67.4541 29.7821C67.6473 30.072 67.9372 30.1686 68.227 30.1686ZM70.9324 28.816C70.9324 29.1058 70.9324 29.2991 70.9324 29.4923C70.9324 29.6855 70.9324 29.8788 70.9324 30.072L71.8985 30.2652V30.6517C71.7053 30.8449 71.4154 30.9416 71.1256 31.0382C70.8357 31.1348 70.5459 31.2314 70.3526 31.328H69.9662C69.9662 31.0382 69.8696 30.6517 69.8696 30.3619C69.8696 30.072 69.8696 29.6855 69.8696 29.2991H69.7729C69.7729 29.4923 69.6763 29.7821 69.5797 29.9754C69.4831 30.1686 69.2898 30.4585 69.1932 30.6517C69 30.8449 68.8068 31.0382 68.6135 31.1348C68.4203 31.2314 68.1304 31.328 67.8406 31.328C67.2609 31.328 66.7778 31.1348 66.4879 30.6517C66.1014 30.2652 65.9082 29.6855 65.9082 28.9126C65.9082 28.3329 66.0048 27.9464 66.1981 27.5599C66.3913 27.1734 66.5845 26.9802 66.971 26.787C67.2609 26.5937 67.7439 26.4005 68.227 26.4005C68.7101 26.3039 69.2898 26.2073 69.9662 26.2073C69.9662 25.7242 70.0628 25.2411 69.9662 24.8546C69.9662 24.4681 69.8696 24.0817 69.7729 23.7918C69.6763 23.5019 69.5797 23.3087 69.3865 23.1155C69.0966 22.9222 68.8068 22.9222 68.5169 22.9222C68.4203 22.9222 68.227 22.9222 68.0338 22.9222C67.8406 22.9222 67.7439 23.0189 67.5507 23.1155L66.971 25.1445H66.5845C66.4879 24.758 66.3913 24.4681 66.2947 24.0817C66.1981 23.6952 66.1981 23.3087 66.1981 23.0189C66.5845 22.729 66.971 22.5358 67.3575 22.3425C67.744 22.1493 68.227 22.1493 68.8068 22.1493C69.2898 22.1493 69.6763 22.2459 69.9662 22.4391C70.256 22.6324 70.4493 22.8256 70.6425 23.1155C70.8357 23.3087 70.9324 23.5986 70.9324 23.8884C70.9324 24.1783 71.029 24.5648 71.029 24.8546C71.029 25.5309 71.029 26.2073 71.029 26.8836C70.9324 27.5599 70.9324 28.2362 70.9324 28.816Z" fill="white"/>
<path fill-rule="evenodd" clip-rule="evenodd" d="M74.0244 24.9513C74.0244 25.2411 74.0244 25.531 74.121 25.7242C74.2176 26.0141 74.2176 26.2073 74.4109 26.4006C74.5075 26.5938 74.7007 26.6904 74.894 26.8837C75.0872 26.9803 75.3771 27.0769 75.6669 27.0769C76.2466 27.0769 76.6331 26.8837 76.8263 26.4972C77.0196 26.1107 77.2128 25.6276 77.2128 25.0479C77.2128 24.3716 77.1162 23.8885 76.8263 23.502C76.5365 23.1155 76.15 22.9223 75.5703 22.9223C74.9906 22.9223 74.6041 23.1155 74.4109 23.502C74.2176 23.8885 74.0244 24.275 74.0244 24.9513ZM77.5993 32.4875C77.5993 32.101 77.5027 31.8112 77.3094 31.618C77.1162 31.4247 76.8263 31.2315 76.5365 31.0382C76.2466 30.9416 75.9568 30.7484 75.5703 30.6518C75.1838 30.5551 74.894 30.4585 74.6041 30.3619C74.2176 30.6518 74.0244 30.9416 73.9278 31.2315C73.8312 31.5213 73.7346 31.8112 73.7346 32.1977C73.7346 32.7774 73.9278 33.2605 74.2176 33.5503C74.6041 33.8402 75.0872 34.0334 75.7635 34.0334C76.15 34.0334 76.4399 34.0334 76.6331 33.9368C76.8263 33.8402 77.0196 33.7436 77.2128 33.6469C77.3094 33.5503 77.4061 33.3571 77.5027 33.1638C77.5993 32.874 77.5993 32.6808 77.5993 32.4875ZM75.5703 22.1494C76.0534 22.1494 76.5365 22.246 76.8263 22.3426C77.2128 22.4392 77.5027 22.6324 77.6959 22.9223C78.2756 22.4392 78.8553 22.1494 79.435 21.8595C79.5317 21.9561 79.5317 22.1494 79.5317 22.3426C79.5317 22.5358 79.6283 22.7291 79.6283 22.8257L79.435 23.2122H77.9858C78.179 23.5986 78.3722 24.1783 78.3722 24.8547C78.3722 25.7242 78.179 26.4006 77.6959 26.8837C77.1162 27.4634 76.4399 27.7532 75.5703 27.7532C75.3771 27.7532 75.2804 27.7532 75.1838 27.7532C75.0872 27.7532 74.9906 27.7532 74.7974 27.6566C74.7974 27.7532 74.7007 27.8498 74.6041 28.0431C74.5075 28.1397 74.5075 28.3329 74.5075 28.4295C74.5075 28.6228 74.6041 28.816 74.7974 29.0093C74.9906 29.1059 75.2804 29.2991 75.5703 29.3957C75.8602 29.4923 76.2466 29.589 76.6331 29.6856C77.0196 29.7822 77.406 29.9754 77.6959 30.1687C77.9858 30.3619 78.2756 30.6518 78.4689 30.9416C78.6621 31.2315 78.7587 31.618 78.8553 32.101C78.8553 32.4875 78.7587 32.874 78.6621 33.2605C78.4689 33.6469 78.2756 33.8402 77.9858 34.13C77.6959 34.3233 77.3094 34.5165 76.923 34.6131C76.5365 34.7097 76.0534 34.8064 75.5703 34.8064C74.5075 34.8064 73.8312 34.6131 73.2515 34.13C72.7684 33.7436 72.4785 33.1638 72.4785 32.4875C72.4785 32.1977 72.4785 31.9078 72.5751 31.618C72.6718 31.4247 72.7684 31.1349 72.9616 31.0382C73.1548 30.845 73.2515 30.7484 73.5413 30.5551C73.7346 30.4585 74.0244 30.2653 74.3143 30.1687C74.121 30.0721 73.9278 29.8788 73.8312 29.6856C73.7346 29.4923 73.6379 29.2025 73.6379 28.9126C73.6379 28.6228 73.7346 28.3329 73.9278 28.1397C74.121 27.8498 74.3143 27.6566 74.5075 27.56C74.0244 27.3667 73.5413 27.0769 73.2515 26.5938C72.9616 26.1107 72.7684 25.531 72.7684 24.9513C72.7684 24.5648 72.865 24.1783 72.9616 23.7919C73.0582 23.4054 73.2515 23.1155 73.4447 22.9223C73.6379 22.6324 73.9278 22.4392 74.3143 22.3426C74.7007 22.1494 75.0872 22.1494 75.5703 22.1494Z" fill="white"/>
<path fill-rule="evenodd" clip-rule="evenodd" d="M80.4976 19.3475C80.4976 19.0576 80.5942 18.7678 80.7875 18.5745C80.9807 18.3813 81.1739 18.2847 81.4638 18.2847C81.7537 18.2847 81.9469 18.3813 82.1401 18.5745C82.3334 18.7678 82.3334 19.0576 82.3334 19.3475C82.3334 19.6373 82.2367 19.9272 82.1401 20.1204C81.9469 20.3137 81.7537 20.4103 81.4638 20.4103C81.1739 20.4103 80.9807 20.3137 80.7875 20.1204C80.5942 19.9272 80.4976 19.6373 80.4976 19.3475ZM83.0097 31.0383H79.9179V30.6518C80.0145 30.5552 80.2078 30.4586 80.3044 30.4586C80.4976 30.362 80.5942 30.362 80.7875 30.2653V23.3088L79.8213 23.2122V22.7291C80.1111 22.6325 80.401 22.4393 80.6909 22.3426C80.9807 22.246 81.3672 22.1494 81.657 22.0528H82.0435V30.1687C82.2367 30.2653 82.43 30.2653 82.5266 30.362C82.7198 30.4586 82.8165 30.4586 82.9131 30.5552V31.0383H83.0097Z" fill="white"/>
<path fill-rule="evenodd" clip-rule="evenodd" d="M91.4156 31.0382H88.4205V30.6518C88.7103 30.4585 88.9035 30.3619 89.29 30.2653V26.1107C89.29 25.2411 89.1934 24.5648 89.0002 23.9851C88.8069 23.502 88.4205 23.2122 87.8407 23.2122C87.6475 23.2122 87.3577 23.3088 87.1644 23.4054C86.9712 23.502 86.7779 23.6952 86.6813 23.7919C86.4881 23.9851 86.3915 24.1783 86.2949 24.3716C86.1982 24.5648 86.1016 24.8547 86.005 25.0479V30.1687C86.2949 30.2653 86.5847 30.3619 86.8746 30.5551V31.0382H83.8794V30.6518C84.0726 30.4585 84.4591 30.3619 84.8456 30.2653V23.3088L83.8794 23.2122V22.7291C84.1692 22.6324 84.3625 22.4392 84.749 22.3426C85.0388 22.246 85.4253 22.1494 85.7151 22.0527H86.1016V23.9851C86.2949 23.4054 86.5847 23.0189 86.9712 22.6324C87.3577 22.246 87.7441 22.0527 88.3238 22.0527C88.7103 22.0527 89.0002 22.1494 89.29 22.246C89.5799 22.3426 89.8697 22.5358 90.063 22.8257C90.2562 23.1155 90.4494 23.502 90.5461 23.9851C90.6427 24.4682 90.7393 25.0479 90.7393 25.8209V30.2653C91.1258 30.3619 91.4156 30.4585 91.7055 30.6518V31.0382H91.4156Z" fill="white"/>
<path fill-rule="evenodd" clip-rule="evenodd" d="M93.3477 24.9513C93.3477 25.2411 93.3477 25.531 93.4443 25.7242C93.5409 26.0141 93.5409 26.2073 93.7341 26.4006C93.8307 26.5938 94.024 26.6904 94.2172 26.787C94.4105 26.8837 94.7003 26.9803 94.9902 26.9803C95.5699 26.9803 95.9563 26.787 96.1496 26.4006C96.3428 26.0141 96.5361 25.531 96.5361 24.9513C96.5361 24.275 96.4394 23.7919 96.1496 23.4054C95.8597 23.1155 95.4733 22.9223 94.8935 22.9223C94.3138 22.9223 93.9274 23.1155 93.7341 23.502C93.5409 23.7919 93.3477 24.275 93.3477 24.9513ZM97.0192 32.4875C97.0192 32.101 96.9225 31.8112 96.7293 31.618C96.5361 31.4247 96.2462 31.2315 95.9564 31.0382C95.6665 30.9416 95.3766 30.7484 94.9902 30.6518C94.6037 30.5551 94.3138 30.4585 94.024 30.3619C93.6375 30.6518 93.4443 30.9416 93.3477 31.2315C93.251 31.5213 93.1544 31.8112 93.1544 32.1977C93.1544 32.7774 93.3477 33.2605 93.6375 33.5503C94.024 33.8402 94.5071 34.0334 95.1834 34.0334C95.5699 34.0334 95.8597 34.0334 96.053 33.9368C96.2462 33.8402 96.4394 33.7436 96.6327 33.6469C96.7293 33.5503 96.8259 33.3571 96.9225 33.1638C96.9225 32.874 97.0192 32.6808 97.0192 32.4875ZM94.8935 22.1494C95.3766 22.1494 95.8597 22.246 96.1496 22.3426C96.5361 22.4392 96.8259 22.6324 97.0192 22.9223C97.5989 22.4392 98.1786 22.1494 98.7583 21.8595C98.8549 21.9561 98.8549 22.1494 98.9515 22.3426C98.9515 22.5358 99.0481 22.7291 99.0481 22.8257L98.8549 23.2122H97.4056C97.5989 23.5986 97.7921 24.1783 97.7921 24.8547C97.7921 25.7242 97.5989 26.4006 97.1158 26.8837C96.5361 27.4634 95.7631 27.7532 94.8935 27.7532C94.7003 27.7532 94.6037 27.7532 94.5071 27.7532C94.4105 27.7532 94.3138 27.7532 94.1206 27.6566C94.1206 27.7532 94.024 27.8498 93.9274 28.0431C93.8307 28.1397 93.8307 28.3329 93.8307 28.4295C93.8307 28.6228 93.9274 28.816 94.1206 29.0093C94.3138 29.1059 94.6037 29.2991 94.8935 29.3957C95.1834 29.4923 95.5699 29.589 95.9564 29.6856C96.3428 29.7822 96.7293 29.9754 97.0192 30.1687C97.309 30.3619 97.5989 30.6518 97.7921 30.9416C97.9853 31.2315 98.082 31.618 98.1786 32.101C98.1786 32.4875 98.082 32.874 97.9853 33.2605C97.7921 33.6469 97.5989 33.8402 97.309 34.13C97.0192 34.3233 96.6327 34.5165 96.2462 34.6131C95.8597 34.7097 95.3766 34.8064 94.8935 34.8064C93.8307 34.8064 93.1544 34.6131 92.5747 34.13C92.0916 33.7436 91.8018 33.1638 91.8018 32.4875C91.8018 32.1977 91.8018 31.9078 91.8984 31.618C91.995 31.4247 92.0916 31.1349 92.2848 31.0382C92.4781 30.845 92.5747 30.7484 92.8646 30.5551C93.0578 30.4585 93.3477 30.2653 93.6375 30.1687C93.4443 30.0721 93.251 29.8788 93.1544 29.6856C93.0578 29.4923 92.9612 29.2025 92.9612 28.9126C92.9612 28.6228 93.0578 28.3329 93.251 28.1397C93.4443 27.8498 93.6375 27.6566 93.8307 27.56C93.3477 27.3667 92.8646 27.0769 92.5747 26.5938C92.2849 26.1107 92.0916 25.531 92.0916 24.9513C92.0916 24.5648 92.1882 24.1783 92.2848 23.7919C92.3815 23.4054 92.5747 23.1155 92.7679 22.9223C92.9612 22.6324 93.251 22.4392 93.6375 22.3426C94.024 22.1494 94.4105 22.1494 94.8935 22.1494Z" fill="white"/>
<path fill-rule="evenodd" clip-rule="evenodd" d="M8.9035 38.7677H7.16437V38.5745C7.26099 38.5745 7.3576 38.4778 7.45422 38.4778C7.55084 38.4778 7.64746 38.4778 7.74408 38.3812L8.51702 34.5165H7.55084L7.06775 35.4827H6.87451C6.87451 35.386 6.87451 35.2894 6.87451 35.1928C6.87451 35.0962 6.87451 34.9996 6.87451 34.903C6.87451 34.8063 6.87451 34.7097 6.97113 34.6131C6.97113 34.5165 6.97113 34.4199 7.06775 34.3232H10.7392C10.7392 34.4199 10.7392 34.5165 10.6426 34.6131C10.6426 34.7097 10.546 34.8063 10.546 34.903C10.546 34.9996 10.4494 35.0962 10.4494 35.1928C10.4494 35.2894 10.3528 35.386 10.3528 35.4827H10.1595L10.0629 34.5165H9.09673L8.32379 38.3812C8.42041 38.3812 8.51702 38.3812 8.61364 38.4778C8.71026 38.4778 8.80688 38.5745 8.9035 38.5745V38.7677Z" fill="white"/>
<path fill-rule="evenodd" clip-rule="evenodd" d="M10.7393 34.3233V34.1301C10.8359 34.1301 10.8359 34.0334 10.9326 34.0334C11.0292 34.0334 11.1258 33.9368 11.2224 33.9368C11.319 33.9368 11.4156 33.9368 11.5123 33.8402C11.6089 33.8402 11.7055 33.8402 11.7055 33.8402L11.8021 33.9368L11.2224 36.6421C11.319 36.4489 11.4156 36.3523 11.5123 36.1591C11.6089 35.9658 11.7055 35.8692 11.8021 35.7726C11.8987 35.676 11.9954 35.5793 12.1886 35.4827C12.2852 35.4827 12.4784 35.4827 12.5751 35.4827C12.7683 35.4827 12.8649 35.5793 12.9615 35.676C13.0582 35.7726 13.0582 35.9658 13.0582 36.0624C13.0582 36.1591 13.0582 36.2557 13.0582 36.4489C13.0582 36.5455 13.0582 36.7388 12.9615 36.8354L12.6717 38.3813H13.1548V38.5745C13.0582 38.6711 12.9615 38.6711 12.8649 38.7677C12.7683 38.7677 12.6717 38.8644 12.4784 38.8644C12.3818 38.8644 12.2852 38.8644 12.1886 38.7677C12.1886 38.6711 12.092 38.6711 12.092 38.5745C12.092 38.4779 12.092 38.3813 12.092 38.2847C12.092 38.188 12.092 38.0914 12.1886 37.9948L12.3818 36.932C12.3818 36.8354 12.4784 36.6421 12.4784 36.5455C12.4784 36.4489 12.4784 36.3523 12.4784 36.2557C12.4784 36.159 12.4784 36.0624 12.3818 35.9658C12.3818 35.8692 12.2852 35.8692 12.1886 35.8692C12.092 35.8692 11.8987 35.8692 11.8021 35.9658C11.7055 36.0624 11.6089 36.159 11.4156 36.3523C11.319 36.4489 11.2224 36.6421 11.1258 36.7388C11.0292 36.8354 11.0292 37.0286 10.9326 37.1252L10.6427 38.7677H10.063L10.9326 34.4199L10.7393 34.3233Z" fill="white"/>
<path fill-rule="evenodd" clip-rule="evenodd" d="M15.1836 35.7725C14.9904 35.7725 14.7971 35.8691 14.7005 36.0624C14.5073 36.2556 14.4106 36.5455 14.314 36.9319C14.7005 36.9319 15.087 36.8353 15.2802 36.7387C15.4734 36.6421 15.6667 36.4489 15.6667 36.159C15.6667 36.0624 15.6667 35.9658 15.5701 35.8691C15.4734 35.7725 15.3768 35.7725 15.1836 35.7725ZM15.8599 38.188C15.7633 38.2846 15.7633 38.3812 15.6667 38.3812C15.5701 38.4778 15.4734 38.5745 15.3768 38.5745C15.2802 38.6711 15.1836 38.6711 15.087 38.7677C14.9904 38.7677 14.7971 38.8643 14.7005 38.8643C14.314 38.8643 14.1208 38.7677 13.9276 38.5745C13.7343 38.3812 13.6377 38.0914 13.6377 37.7049C13.6377 37.415 13.6377 37.1252 13.7343 36.8353C13.8309 36.5455 13.9276 36.3522 14.1208 36.159C14.314 35.9658 14.4106 35.7725 14.7005 35.6759C14.8937 35.4827 15.087 35.4827 15.3768 35.4827C15.5701 35.4827 15.7633 35.5793 15.8599 35.6759C16.0532 35.7725 16.0532 35.9658 16.0532 36.159C16.0532 36.4489 15.8599 36.7387 15.5701 36.8353C15.2802 37.0286 14.7971 37.1252 14.1208 37.2218C14.1208 37.3184 14.1208 37.3184 14.1208 37.415C14.1208 37.5117 14.1208 37.5117 14.1208 37.6083C14.1208 37.8981 14.2174 38.0914 14.314 38.2846C14.4106 38.4778 14.6039 38.5745 14.8937 38.5745C14.9904 38.5745 15.087 38.5745 15.087 38.5745C15.1836 38.5745 15.2802 38.4778 15.2802 38.4778C15.3768 38.4778 15.3768 38.3812 15.4734 38.3812C15.5701 38.3812 15.5701 38.2846 15.6667 38.2846L15.8599 38.188Z" fill="white"/>
<path fill-rule="evenodd" clip-rule="evenodd" d="M19.8212 34.5165C19.7245 34.5165 19.6279 34.5165 19.5313 34.5165C19.4347 34.5165 19.3381 34.5165 19.2414 34.5165L18.4685 38.3813C18.4685 38.3813 18.5651 38.3813 18.6617 38.3813C18.7584 38.3813 18.7584 38.3813 18.855 38.3813C18.9516 38.3813 18.9516 38.3813 19.0482 38.3813H19.1448C19.5313 38.3813 19.9178 38.2847 20.111 38.188C20.4009 37.9948 20.5941 37.8016 20.7873 37.5117C20.9806 37.2219 21.0772 36.932 21.1738 36.6421C21.2704 36.3523 21.2704 35.9658 21.2704 35.676C21.2704 35.4827 21.2704 35.3861 21.1738 35.1929C21.1738 34.9996 21.0772 34.903 20.9806 34.8064C20.884 34.7098 20.7873 34.6132 20.5941 34.5165C20.3043 34.6132 20.111 34.5165 19.8212 34.5165ZM17.3091 38.7677V38.5745C17.5023 38.4779 17.6956 38.4779 17.8888 38.3813L18.6617 34.6132C18.5651 34.6132 18.4685 34.6132 18.3719 34.5165C18.2753 34.5165 18.1786 34.4199 18.1786 34.4199V34.2267H18.855C18.9516 34.2267 19.0482 34.2267 19.1448 34.2267C19.2414 34.2267 19.3381 34.2267 19.4347 34.2267C19.5313 34.2267 19.6279 34.2267 19.7245 34.2267C19.8212 34.2267 19.9178 34.2267 20.0144 34.2267C20.4009 34.2267 20.5941 34.2267 20.884 34.3233C21.0772 34.4199 21.2704 34.5165 21.4637 34.6132C21.6569 34.7098 21.7535 34.903 21.7535 35.0963C21.8501 35.2895 21.8501 35.4827 21.8501 35.676C21.8501 35.8692 21.8501 36.1591 21.7535 36.3523C21.7535 36.5455 21.6569 36.8354 21.5603 37.0286C21.5603 37.4151 21.4637 37.6083 21.2704 37.8016C21.1738 37.9948 20.9806 38.188 20.6907 38.2847C20.4975 38.4779 20.2076 38.5745 19.9178 38.6711C19.6279 38.7677 19.2414 38.7677 18.9516 38.7677C18.855 38.7677 18.855 38.7677 18.7584 38.7677C18.6617 38.7677 18.5651 38.7677 18.4685 38.7677C18.3719 38.7677 18.2753 38.7677 18.1786 38.7677C18.082 38.7677 17.9854 38.7677 17.8888 38.7677H17.3091Z" fill="white"/>
<path fill-rule="evenodd" clip-rule="evenodd" d="M23.5893 35.7725C23.3961 35.7725 23.2028 35.8691 23.1062 36.0624C22.913 36.2556 22.8163 36.5455 22.7197 36.9319C23.1062 36.9319 23.4927 36.8353 23.6859 36.7387C23.8791 36.6421 24.0724 36.4489 24.0724 36.159C24.0724 36.0624 24.0724 35.9658 23.9758 35.8691C23.7825 35.7725 23.6859 35.7725 23.5893 35.7725ZM24.169 38.188C24.169 38.2846 24.0724 38.3812 23.9758 38.3812C23.8791 38.4778 23.7825 38.5745 23.6859 38.5745C23.5893 38.6711 23.4927 38.6711 23.3961 38.7677C23.2994 38.7677 23.1062 38.8643 23.0096 38.8643C22.6231 38.8643 22.4299 38.7677 22.2366 38.5745C22.0434 38.3812 21.9468 38.0914 21.9468 37.7049C21.9468 37.415 21.9468 37.1252 22.0434 36.8353C22.14 36.5455 22.2366 36.3522 22.4299 36.159C22.6231 35.9658 22.7197 35.7725 23.0096 35.6759C23.2028 35.4827 23.4927 35.4827 23.7825 35.4827C23.9758 35.4827 24.169 35.5793 24.2656 35.6759C24.4589 35.7725 24.4589 35.8691 24.4589 36.0624C24.4589 36.3522 24.2656 36.6421 23.9758 36.7387C23.6859 36.9319 23.2028 37.0286 22.5265 37.1252C22.5265 37.2218 22.5265 37.2218 22.5265 37.3184C22.5265 37.415 22.5265 37.415 22.5265 37.5117C22.5265 37.8015 22.6231 37.9947 22.7197 38.188C22.8163 38.3812 23.0096 38.4778 23.2994 38.4778C23.3961 38.4778 23.4927 38.4778 23.4927 38.4778C23.5893 38.4778 23.6859 38.3812 23.6859 38.3812C23.7825 38.3812 23.7825 38.2846 23.8791 38.2846C23.9758 38.2846 23.9758 38.188 24.0724 38.188H24.169Z" fill="white"/>
<path fill-rule="evenodd" clip-rule="evenodd" d="M26.6871 35.8786C26.5904 35.8786 26.4938 35.8786 26.3006 35.9752C26.204 36.0718 26.1074 36.1685 26.0107 36.3617C25.9141 36.4583 25.8175 36.6515 25.7209 36.7482C25.6243 36.9414 25.6243 37.038 25.5276 37.1346L25.2378 38.3907C25.3344 38.4873 25.3344 38.4873 25.431 38.4873C25.5276 38.4873 25.6243 38.4873 25.7209 38.4873C25.9141 38.4873 26.0107 38.3907 26.204 38.2941C26.3972 38.1974 26.4938 38.0042 26.5904 37.811C26.6871 37.6177 26.7837 37.4245 26.8803 37.1346C26.9769 36.8448 26.9769 36.6515 26.9769 36.4583C26.9769 36.2651 26.9769 36.0718 26.8803 35.9752C26.8803 35.8786 26.7837 35.8786 26.6871 35.8786ZM25.0446 39.7433C25.2378 39.7433 25.3344 39.84 25.5276 39.9366V40.1298H24.5615L24.4648 40.0332L24.7547 38.7772L25.3344 35.9752L24.9479 35.8786V35.6854C25.0446 35.5887 25.2378 35.5887 25.431 35.4921C25.6243 35.4921 25.7209 35.3955 25.9141 35.3955L26.0107 35.4921L25.7209 36.6515C25.8175 36.4583 25.9141 36.3617 26.0107 36.1685C26.1074 35.9752 26.204 35.8786 26.3006 35.782C26.3972 35.6854 26.4938 35.5887 26.6871 35.4921C26.7837 35.3955 26.9769 35.3955 27.0735 35.3955C27.1702 35.3955 27.2668 35.3955 27.3634 35.4921C27.46 35.4921 27.5566 35.5887 27.5566 35.6854C27.6533 35.782 27.6533 35.8786 27.7499 35.9752C27.7499 36.0718 27.8465 36.1685 27.8465 36.3617C27.8465 36.6515 27.7499 37.038 27.6533 37.3279C27.5566 37.6177 27.46 37.9076 27.2668 38.1008C27.0735 38.2941 26.8803 38.4873 26.6871 38.6805C26.4938 38.7772 26.204 38.8738 25.9141 38.8738C25.8175 38.8738 25.8175 38.8738 25.7209 38.8738C25.6243 38.8738 25.6243 38.8738 25.6243 38.8738H25.5276C25.5276 38.8738 25.431 38.8738 25.431 38.7772L25.0446 39.7433Z" fill="white"/>
<path fill-rule="evenodd" clip-rule="evenodd" d="M29.4829 35.7725C29.2897 35.7725 29.0964 35.8691 28.9998 36.0624C28.8066 36.2556 28.71 36.5455 28.6133 36.9319C28.9998 36.9319 29.3863 36.8353 29.5795 36.7387C29.7728 36.6421 29.966 36.4489 29.966 36.159C29.966 36.0624 29.966 35.9658 29.8694 35.8691C29.7728 35.7725 29.6761 35.7725 29.4829 35.7725ZM30.1592 38.188C30.1592 38.2846 30.0626 38.3812 29.966 38.3812C29.8694 38.4778 29.7728 38.5745 29.6761 38.5745C29.5795 38.6711 29.4829 38.6711 29.3863 38.7677C29.2897 38.7677 29.0964 38.8643 28.9998 38.8643C28.6133 38.8643 28.4201 38.7677 28.2269 38.5745C28.0336 38.3812 27.937 38.0914 27.937 37.7049C27.937 37.415 27.937 37.1252 28.0336 36.8353C28.1302 36.5455 28.2269 36.3522 28.4201 36.159C28.6133 35.9658 28.71 35.7725 28.9998 35.6759C29.1931 35.4827 29.4829 35.4827 29.7728 35.4827C29.966 35.4827 30.1592 35.5793 30.2559 35.6759C30.4491 35.7725 30.4491 35.9658 30.4491 36.159C30.4491 36.4489 30.2559 36.7387 29.966 36.8353C29.6761 37.0286 29.1931 37.1252 28.5167 37.2218C28.5167 37.3184 28.5167 37.3184 28.5167 37.415C28.5167 37.5117 28.5167 37.5117 28.5167 37.6083C28.5167 37.8981 28.6133 38.0914 28.71 38.2846C28.8066 38.4778 28.9998 38.5745 29.2897 38.5745C29.3863 38.5745 29.4829 38.5745 29.4829 38.5745C29.5795 38.5745 29.6761 38.4778 29.6761 38.4778C29.7728 38.4778 29.7728 38.3812 29.8694 38.3812C29.966 38.3812 29.966 38.2846 30.0626 38.2846L30.1592 38.188Z" fill="white"/>
<path fill-rule="evenodd" clip-rule="evenodd" d="M32.8648 36.932C32.8648 36.8354 32.9614 36.6421 32.9614 36.5455C32.9614 36.4489 32.9614 36.3523 32.9614 36.2557C32.9614 36.1591 32.9614 36.0624 32.8648 35.9658C32.8648 35.8692 32.7682 35.8692 32.6716 35.8692C32.5749 35.8692 32.4783 35.8692 32.2851 35.9658C32.1885 36.0624 32.0919 36.1591 31.9952 36.3523C31.8986 36.5455 31.802 36.6421 31.7054 36.7388C31.6088 36.8354 31.6088 37.0286 31.5121 37.1252L31.2223 38.7678H30.6426L31.2223 35.9658L30.8358 35.8692V35.676C30.9324 35.676 30.9324 35.5793 31.0291 35.5793C31.1257 35.5793 31.2223 35.4827 31.2223 35.4827C31.3189 35.4827 31.4155 35.4827 31.4155 35.3861C31.5121 35.3861 31.5121 35.3861 31.6088 35.3861L31.7054 35.4827L31.5121 36.6421C31.6088 36.4489 31.7054 36.3523 31.802 36.1591C31.8986 35.9658 31.9952 35.8692 32.0919 35.7726C32.1885 35.676 32.2851 35.5793 32.4783 35.4827C32.5749 35.3861 32.7682 35.3861 32.8648 35.3861C33.058 35.3861 33.1547 35.4827 33.2513 35.5793C33.3479 35.676 33.3479 35.8692 33.3479 35.9658C33.3479 36.0624 33.3479 36.1591 33.3479 36.3523C33.3479 36.4489 33.3479 36.6421 33.2513 36.7388L33.058 38.3813H33.5411V38.5745C33.4445 38.6711 33.3479 38.6711 33.2513 38.7678C33.1547 38.7678 33.058 38.8644 32.8648 38.8644C32.7682 38.8644 32.6716 38.8644 32.5749 38.7678C32.5749 38.6711 32.4783 38.6711 32.4783 38.5745C32.4783 38.4779 32.4783 38.3813 32.4783 38.2847C32.4783 38.188 32.4783 38.0914 32.5749 37.9948L32.8648 36.932Z" fill="white"/>
<path fill-rule="evenodd" clip-rule="evenodd" d="M34.9906 38.4778C35.0872 38.4778 35.1838 38.3812 35.3771 38.2846C35.4737 38.188 35.5703 38.0914 35.6669 37.8981C35.7635 37.7049 35.8602 37.6083 35.9568 37.415C36.0534 37.2218 36.0534 37.1252 36.15 37.0286L36.3433 35.9658C36.2466 35.9658 36.2466 35.8691 36.15 35.8691C36.0534 35.8691 36.0534 35.8691 35.9568 35.8691C35.7635 35.8691 35.5703 35.9658 35.3771 36.0624C35.1838 36.159 35.0872 36.3522 34.9906 36.5455C34.894 36.7387 34.7974 36.9319 34.7007 37.2218C34.6041 37.415 34.6041 37.7049 34.6041 37.8981C34.6041 38.0914 34.6041 38.2846 34.7007 38.3812C34.7007 38.3812 34.7974 38.4778 34.9906 38.4778ZM35.9568 37.5116C35.8602 37.7049 35.8602 37.8015 35.7635 37.9947C35.6669 38.188 35.5703 38.2846 35.4737 38.3812C35.3771 38.4778 35.2805 38.5744 35.0872 38.6711C34.9906 38.7677 34.7974 38.7677 34.7007 38.7677C34.2177 38.7677 34.0244 38.4778 34.0244 37.8015C34.0244 37.5116 34.0244 37.2218 34.121 36.9319C34.2177 36.6421 34.3143 36.3522 34.5075 36.159C34.7007 35.9658 34.894 35.7725 35.0872 35.6759C35.2805 35.5793 35.5703 35.4827 35.8602 35.4827C35.9568 35.4827 36.0534 35.4827 36.15 35.4827C36.2466 35.4827 36.2466 35.4827 36.3433 35.5793L36.6331 34.3232L36.15 34.2266V34.0334C36.2466 34.0334 36.2466 33.9368 36.3433 33.9368C36.4399 33.9368 36.5365 33.9368 36.5365 33.8401C36.6331 33.8401 36.7297 33.8401 36.8263 33.7435C36.923 33.7435 37.0196 33.7435 37.0196 33.7435L37.1162 33.8401L36.3433 38.3812H36.8263V38.5744C36.7297 38.6711 36.6331 38.6711 36.5365 38.7677C36.4399 38.7677 36.3433 38.8643 36.15 38.8643C36.0534 38.8643 35.9568 38.8643 35.8602 38.7677C35.7635 38.6711 35.7635 38.6711 35.7635 38.5744C35.7635 38.4778 35.7635 38.3812 35.7635 38.188C35.8602 37.9947 35.9568 37.8015 35.9568 37.5116Z" fill="white"/>
<path fill-rule="evenodd" clip-rule="evenodd" d="M38.1786 38.4779C38.2752 38.4779 38.3718 38.3813 38.5651 38.2847C38.6617 38.188 38.7583 38.0914 38.8549 37.8982C38.9515 37.7049 39.0482 37.6083 39.1448 37.4151C39.2414 37.2219 39.2414 37.1252 39.338 37.0286L39.5312 35.9658C39.4346 35.9658 39.4346 35.8692 39.338 35.8692C39.2414 35.8692 39.2414 35.8692 39.1448 35.8692C38.9515 35.8692 38.7583 35.9658 38.6617 36.0624C38.4684 36.1591 38.3718 36.3523 38.2752 36.5455C38.1786 36.7388 38.082 36.932 37.9853 37.2219C37.8887 37.4151 37.8887 37.7049 37.8887 37.8982C37.8887 38.0914 37.8887 38.2847 37.9853 38.3813C37.9853 38.3813 38.082 38.4779 38.1786 38.4779ZM39.1448 37.5117C39.0482 37.7049 39.0482 37.8016 38.9515 37.9948C38.8549 38.188 38.7583 38.2847 38.6617 38.3813C38.5651 38.4779 38.4684 38.5745 38.2752 38.6711C38.1786 38.7678 37.9853 38.7678 37.8887 38.7678C37.4056 38.7678 37.2124 38.4779 37.2124 37.8016C37.2124 37.5117 37.2124 37.2219 37.309 36.932C37.4056 36.6421 37.5023 36.3523 37.6955 36.1591C37.8887 35.9658 38.082 35.7726 38.2752 35.5793C38.4684 35.4827 38.7583 35.3861 39.0482 35.3861C39.1448 35.3861 39.2414 35.3861 39.338 35.3861C39.4346 35.3861 39.4346 35.3861 39.5312 35.4827C39.7245 35.4827 39.9177 35.4827 40.111 35.4827L39.5312 38.3813H40.0143V38.5745C39.9177 38.6711 39.8211 38.6711 39.7245 38.7678C39.6279 38.7678 39.5312 38.8644 39.338 38.8644C39.2414 38.8644 39.1448 38.8644 39.0482 38.7678C38.9515 38.6711 38.9515 38.6711 38.9515 38.5745C38.9515 38.4779 38.9515 38.3813 38.9515 38.188C39.1448 37.9948 39.1448 37.8016 39.1448 37.5117Z" fill="white"/>
<path fill-rule="evenodd" clip-rule="evenodd" d="M42.3333 35.8692C42.2367 35.8692 42.1401 35.9658 42.0435 36.0624C41.9468 36.1591 41.8502 36.2557 41.7536 36.4489C41.657 36.5455 41.5604 36.7388 41.4637 36.932C41.3671 37.1252 41.3671 37.2219 41.2705 37.3185L40.9807 38.3813C41.0773 38.3813 41.0773 38.4779 41.1739 38.4779C41.2705 38.4779 41.3671 38.4779 41.4637 38.4779C41.657 38.4779 41.7536 38.3813 41.9468 38.2847C42.1401 38.188 42.2367 37.9948 42.3333 37.8016C42.4299 37.6083 42.5265 37.4151 42.6232 37.1252C42.7198 36.932 42.7198 36.6421 42.7198 36.4489C42.7198 36.2557 42.7198 36.0624 42.6232 35.9658C42.5265 35.9658 42.4299 35.8692 42.3333 35.8692ZM41.2705 34.4199L40.7874 34.3233V34.1301C40.884 34.1301 40.884 34.0334 40.9807 34.0334C41.0773 34.0334 41.1739 33.9368 41.2705 33.9368C41.3671 33.9368 41.4637 33.9368 41.5604 33.8402C41.657 33.8402 41.7536 33.8402 41.7536 33.8402L41.8502 33.9368L41.2705 36.6421C41.3671 36.4489 41.4637 36.3523 41.5604 36.1591C41.657 35.9658 41.7536 35.8692 41.8502 35.7726C41.9468 35.676 42.0435 35.5793 42.1401 35.4827C42.2367 35.3861 42.3333 35.3861 42.5265 35.3861C42.7198 35.3861 42.913 35.4827 43.1063 35.5793C43.2029 35.7726 43.2995 35.9658 43.2995 36.3523C43.2995 36.6421 43.2995 37.0286 43.2029 37.3185C43.1063 37.6083 43.0096 37.8982 42.8164 38.0914C42.6232 38.2847 42.4299 38.4779 42.2367 38.5745C42.0435 38.6711 41.7536 38.7677 41.4637 38.7677C41.2705 38.7677 41.0773 38.7677 40.884 38.6711C40.6908 38.5745 40.5942 38.5745 40.4976 38.4779L41.2705 34.4199Z" fill="white"/>
<path fill-rule="evenodd" clip-rule="evenodd" d="M44.459 34.4199L43.9759 34.3233V34.1301C44.0725 34.1301 44.0725 34.0334 44.1691 34.0334C44.2657 34.0334 44.3624 33.9368 44.459 33.9368C44.5556 33.9368 44.6522 33.9368 44.7488 33.8402C44.8455 33.8402 44.9421 33.8402 44.9421 33.8402L45.0387 33.9368L44.2657 38.3813H44.7488V38.5745C44.6522 38.6711 44.5556 38.6711 44.459 38.7677C44.3624 38.8644 44.2657 38.8644 44.0725 38.8644C43.9759 38.8644 43.8793 38.8644 43.7827 38.7677C43.686 38.6711 43.686 38.6711 43.686 38.5745C43.686 38.4779 43.686 38.3813 43.686 38.2847C43.686 38.188 43.686 38.0914 43.7827 37.9948L44.459 34.4199Z" fill="white"/>
<path fill-rule="evenodd" clip-rule="evenodd" d="M46.7778 35.7725C46.5846 35.7725 46.3914 35.8691 46.2947 36.0624C46.1015 36.2556 46.0049 36.5455 45.9083 36.9319C46.2947 36.9319 46.6812 36.8353 46.8744 36.7387C47.0677 36.6421 47.2609 36.4489 47.2609 36.159C47.2609 36.0624 47.2609 35.9658 47.1643 35.8691C47.0677 35.7725 46.9711 35.7725 46.7778 35.7725ZM47.4542 38.188C47.4542 38.2846 47.3575 38.3812 47.2609 38.3812C47.1643 38.4778 47.0677 38.5745 46.9711 38.5745C46.8744 38.6711 46.7778 38.6711 46.6812 38.7677C46.5846 38.7677 46.3914 38.8643 46.2947 38.8643C45.9083 38.8643 45.715 38.7677 45.5218 38.5745C45.3286 38.3812 45.2319 38.0914 45.2319 37.7049C45.2319 37.415 45.2319 37.1252 45.3286 36.8353C45.4252 36.5455 45.5218 36.3522 45.715 36.159C45.9083 35.9658 46.0049 35.7725 46.2947 35.6759C46.488 35.4827 46.6812 35.4827 46.9711 35.4827C47.1643 35.4827 47.3575 35.5793 47.4542 35.6759C47.6474 35.7725 47.6474 35.9658 47.6474 36.159C47.6474 36.4489 47.4542 36.7387 47.1643 36.8353C46.8744 37.0286 46.3914 37.1252 45.715 37.2218C45.715 37.3184 45.715 37.3184 45.715 37.415C45.715 37.5117 45.715 37.5117 45.715 37.6083C45.715 37.8981 45.8116 38.0914 45.9083 38.2846C46.0049 38.4778 46.1981 38.5745 46.488 38.5745C46.5846 38.5745 46.6812 38.5745 46.6812 38.5745C46.7778 38.5745 46.8744 38.4778 46.8744 38.4778C46.9711 38.4778 46.9711 38.3812 47.0677 38.3812C47.1643 38.3812 47.1643 38.2846 47.2609 38.2846L47.4542 38.188Z" fill="white"/>
<path fill-rule="evenodd" clip-rule="evenodd" d="M52.5748 37.6083H52.7681C52.7681 37.7049 52.7681 37.8981 52.7681 38.0914C52.7681 38.2846 52.6714 38.4778 52.6714 38.5744C52.5748 38.5744 52.4782 38.6711 52.3816 38.6711C52.285 38.6711 52.1883 38.7677 52.0917 38.7677C51.9951 38.7677 51.8985 38.7677 51.8019 38.7677C51.7053 38.7677 51.6086 38.7677 51.512 38.7677C51.1255 38.7677 50.8357 38.6711 50.6425 38.5744C50.3526 38.4778 50.1594 38.3812 50.0627 38.188C49.8695 37.9947 49.7729 37.8015 49.7729 37.6083C49.6763 37.415 49.6763 37.2218 49.6763 37.0286C49.6763 36.5455 49.7729 36.159 49.8695 35.8691C49.9661 35.4827 50.1594 35.1928 50.3526 34.903C50.5458 34.6131 50.8357 34.4199 51.2222 34.3232C51.512 34.2266 51.8985 34.13 52.285 34.13C52.5748 34.13 52.7681 34.13 52.9613 34.2266C53.1545 34.2266 53.3478 34.3232 53.4444 34.4199C53.4444 34.5165 53.4444 34.6131 53.3478 34.6131C53.3478 34.7097 53.2511 34.8063 53.2511 34.903C53.2511 34.9996 53.1545 35.0962 53.1545 35.1928C53.1545 35.2894 53.0579 35.386 53.0579 35.4827H52.8647L52.7681 34.5165C52.6714 34.5165 52.6714 34.5165 52.4782 34.4199C52.3816 34.4199 52.285 34.4199 52.1883 34.4199C51.8985 34.4199 51.6086 34.5165 51.4154 34.6131C51.2222 34.7097 50.9323 34.903 50.8357 35.0962C50.6425 35.2894 50.5458 35.5793 50.4492 35.8691C50.3526 36.159 50.256 36.5455 50.256 37.0286C50.256 37.3184 50.256 37.5116 50.3526 37.7049C50.4492 37.8981 50.5458 37.9947 50.7391 38.188C50.8357 38.2846 51.0289 38.3812 51.2222 38.3812C51.4154 38.3812 51.512 38.4778 51.7053 38.4778C51.8019 38.4778 51.9951 38.4778 52.0917 38.4778C52.1883 38.4778 52.285 38.3812 52.285 38.3812L52.5748 37.6083Z" fill="white"/>
<path fill-rule="evenodd" clip-rule="evenodd" d="M53.5411 34.3233V34.1301C53.6377 34.1301 53.6377 34.0334 53.7343 34.0334C53.8309 34.0334 53.9275 33.9368 54.0242 33.9368C54.1208 33.9368 54.2174 33.9368 54.314 33.8402C54.4106 33.8402 54.5073 33.8402 54.5073 33.8402L54.6039 33.9368L54.0242 36.6421C54.1208 36.4489 54.2174 36.3523 54.314 36.1591C54.4106 35.9658 54.5073 35.8692 54.6039 35.7726C54.7005 35.676 54.7971 35.5793 54.9903 35.4827C55.1836 35.4827 55.2802 35.4827 55.3768 35.4827C55.5701 35.4827 55.6667 35.5793 55.7633 35.676C55.8599 35.7726 55.8599 35.9658 55.8599 36.0624C55.8599 36.1591 55.8599 36.2557 55.8599 36.4489C55.8599 36.5455 55.8599 36.7388 55.7633 36.8354L55.4734 38.3813H55.9565V38.5745C55.8599 38.6711 55.7633 38.6711 55.6667 38.7677C55.5701 38.7677 55.4734 38.8644 55.2802 38.8644C55.1836 38.8644 55.087 38.8644 54.9903 38.7677C54.8937 38.6711 54.8937 38.6711 54.8937 38.5745C54.8937 38.4779 54.8937 38.3813 54.8937 38.2847C54.8937 38.188 54.8937 38.0914 54.9903 37.9948L55.1836 36.932C55.1836 36.8354 55.2802 36.6421 55.2802 36.5455C55.2802 36.4489 55.2802 36.3523 55.2802 36.2557C55.2802 36.159 55.2802 36.0624 55.1836 35.9658C55.1836 35.8692 55.087 35.8692 54.9903 35.8692C54.8937 35.8692 54.7005 35.8692 54.6039 35.9658C54.5073 36.0624 54.4106 36.159 54.2174 36.3523C54.1208 36.4489 54.0242 36.6421 53.9275 36.7388C53.8309 36.8354 53.8309 37.0286 53.7343 37.1252L53.4445 38.7677H52.8647L53.7343 34.4199L53.5411 34.3233Z" fill="white"/>
<path fill-rule="evenodd" clip-rule="evenodd" d="M58.082 35.7726C57.8887 35.7726 57.6955 35.8692 57.5989 35.9658C57.5023 36.0624 57.4056 36.2557 57.309 36.4489C57.2124 36.6421 57.2124 36.8354 57.1158 37.1252C57.1158 37.3185 57.1158 37.5117 57.1158 37.7049C57.1158 37.9948 57.2124 38.188 57.309 38.2847C57.4056 38.4779 57.5989 38.4779 57.7921 38.4779C57.9853 38.4779 58.082 38.3813 58.1786 38.2847C58.2752 38.188 58.3718 37.9948 58.4684 37.8016C58.5651 37.6083 58.6617 37.4151 58.6617 37.1252C58.6617 36.932 58.7583 36.6421 58.7583 36.4489C58.7583 36.1591 58.7583 35.9658 58.6617 35.8692C58.3718 35.8692 58.2752 35.7726 58.082 35.7726ZM56.4395 37.6083C56.4395 37.4151 56.4395 37.1252 56.5361 36.932C56.6327 36.6421 56.7293 36.4489 56.8259 36.2557C56.9225 36.0624 57.1158 35.8692 57.4056 35.7726C57.5989 35.676 57.8887 35.5793 58.1786 35.5793C58.4684 35.5793 58.7583 35.676 58.9515 35.8692C59.1448 36.0624 59.2414 36.3523 59.2414 36.7388C59.2414 37.0286 59.2414 37.3185 59.1448 37.5117C59.0482 37.8016 58.9515 37.9948 58.8549 38.188C58.7583 38.3813 58.5651 38.5745 58.3718 38.6711C58.1786 38.7678 57.9853 38.8644 57.6955 38.8644C57.4056 38.8644 57.1158 38.7678 56.9225 38.5745C56.5361 38.2847 56.4395 37.9948 56.4395 37.6083Z" fill="white"/>
<path fill-rule="evenodd" clip-rule="evenodd" d="M60.2076 34.4199C60.2076 34.3233 60.2076 34.2267 60.3043 34.1301C60.4009 34.0334 60.4975 34.0334 60.5941 34.0334C60.6907 34.0334 60.7873 34.0334 60.884 34.1301C60.9806 34.2267 60.9806 34.3233 60.9806 34.4199C60.9806 34.5165 60.9806 34.6132 60.884 34.7098C60.7873 34.8064 60.6907 34.8064 60.5941 34.8064C60.4975 34.8064 60.4009 34.8064 60.3043 34.7098C60.2076 34.6132 60.2076 34.5165 60.2076 34.4199ZM59.7245 35.8692V35.676C59.8212 35.676 59.8212 35.5793 59.9178 35.5793C60.0144 35.5793 60.111 35.4827 60.2076 35.4827C60.3043 35.4827 60.4009 35.4827 60.4975 35.3861C60.5941 35.3861 60.5941 35.3861 60.6907 35.3861L60.7873 35.4827L60.2076 38.3813H60.6907V38.5745C60.5941 38.6711 60.4975 38.6711 60.4009 38.7677C60.3043 38.7677 60.2076 38.8644 60.0144 38.8644C59.9178 38.8644 59.8212 38.8644 59.7245 38.7677C59.6279 38.6711 59.6279 38.6711 59.6279 38.5745C59.6279 38.4779 59.6279 38.3813 59.6279 38.2847C59.6279 38.188 59.6279 38.0914 59.7245 37.9948L60.2076 35.9658L59.7245 35.8692Z" fill="white"/>
<path fill-rule="evenodd" clip-rule="evenodd" d="M63.2994 38.188C63.2994 38.2846 63.2028 38.3812 63.1061 38.3812C63.0095 38.4778 62.9129 38.5745 62.8163 38.5745C62.7197 38.6711 62.623 38.6711 62.5264 38.7677C62.4298 38.7677 62.2366 38.8643 62.1399 38.8643C61.8501 38.8643 61.5602 38.7677 61.367 38.5745C61.1738 38.3812 61.0771 38.0914 61.0771 37.7049C61.0771 37.415 61.1738 37.1252 61.2704 36.8353C61.367 36.5455 61.4636 36.3522 61.6569 36.159C61.8501 35.9658 62.0433 35.7725 62.2366 35.6759C62.4298 35.5793 62.7197 35.4827 63.0095 35.4827C63.2028 35.4827 63.2994 35.4827 63.396 35.4827C63.4926 35.4827 63.5892 35.5793 63.5892 35.5793C63.5892 35.5793 63.5892 35.6759 63.5892 35.7725C63.5892 35.8691 63.5892 35.8691 63.4926 35.9658C63.4926 36.0624 63.396 36.0624 63.396 36.159L63.2994 36.2556L62.9129 35.7725C62.8163 35.7725 62.623 35.8691 62.5264 35.8691C62.4298 35.9658 62.2366 36.0624 62.1399 36.2556C62.0433 36.4488 61.9467 36.6421 61.8501 36.8353C61.7535 37.0286 61.7535 37.3184 61.7535 37.6083C61.7535 37.8981 61.8501 38.0914 61.9467 38.2846C62.0433 38.3812 62.2366 38.4778 62.4298 38.4778C62.5264 38.4778 62.623 38.4778 62.7197 38.4778C62.8163 38.4778 62.9129 38.3812 62.9129 38.3812C63.0095 38.3812 63.0095 38.2846 63.1061 38.2846C63.2028 38.2846 63.2028 38.188 63.2994 38.188Z" fill="white"/>
<path fill-rule="evenodd" clip-rule="evenodd" d="M65.2319 35.7725C65.0387 35.7725 64.8455 35.8691 64.7488 36.0624C64.5556 36.2556 64.459 36.5455 64.3624 36.9319C64.7488 36.9319 65.1353 36.8353 65.3285 36.7387C65.5218 36.6421 65.715 36.4489 65.715 36.159C65.715 36.0624 65.715 35.9658 65.6184 35.8691C65.4252 35.7725 65.3285 35.7725 65.2319 35.7725ZM65.9083 38.188C65.9083 38.2846 65.8116 38.3812 65.715 38.3812C65.6184 38.4778 65.5218 38.5745 65.4252 38.5745C65.3286 38.6711 65.2319 38.6711 65.1353 38.7677C65.0387 38.7677 64.8455 38.8643 64.7488 38.8643C64.3624 38.8643 64.1691 38.7677 63.9759 38.5745C63.7827 38.3812 63.686 38.0914 63.686 37.7049C63.686 37.415 63.686 37.1252 63.7827 36.8353C63.8793 36.5455 63.9759 36.3522 64.1691 36.159C64.3624 35.9658 64.459 35.7725 64.7488 35.6759C64.9421 35.5793 65.2319 35.4827 65.5218 35.4827C65.715 35.4827 65.9083 35.5793 66.0049 35.6759C66.1981 35.7725 66.1981 35.9658 66.1981 36.159C66.1981 36.4489 66.0049 36.7387 65.715 36.8353C65.4252 37.0286 64.9421 37.1252 64.2657 37.2218C64.2657 37.3184 64.2657 37.3184 64.2657 37.415C64.2657 37.5117 64.2657 37.5117 64.2657 37.6083C64.2657 37.8981 64.3624 38.0914 64.459 38.2846C64.5556 38.4778 64.7488 38.5745 65.0387 38.5745C65.1353 38.5745 65.2319 38.5745 65.2319 38.5745C65.3285 38.5745 65.4252 38.4778 65.4252 38.4778C65.5218 38.4778 65.5218 38.3812 65.6184 38.3812C65.715 38.3812 65.715 38.2846 65.8116 38.2846L65.9083 38.188Z" fill="white"/>
<path fill-rule="evenodd" clip-rule="evenodd" d="M66.8744 36.932C66.8744 36.932 66.971 36.932 66.971 37.0286C67.0676 37.0286 67.0676 37.0286 67.1642 37.0286C67.2609 37.0286 67.2609 37.0286 67.3575 37.0286C67.4541 37.0286 67.4541 37.0286 67.5507 36.932C67.6473 36.932 67.6473 36.8354 67.6473 36.8354C67.6473 36.7388 67.6473 36.7388 67.6473 36.6421C67.6473 36.5455 67.6473 36.4489 67.5507 36.4489C67.4541 36.4489 67.4541 36.3523 67.3575 36.2557C67.2609 36.2557 67.2609 36.1591 67.1642 36.1591C67.0676 36.1591 67.0676 36.0624 66.971 36.0624C66.8744 35.9658 66.8744 35.9658 66.7778 35.8692C66.7778 35.7726 66.6812 35.676 66.6812 35.5793C66.6812 35.4827 66.6812 35.3861 66.7778 35.2895C66.7778 35.1929 66.8744 35.1929 66.971 35.0963C67.0676 34.9996 67.1642 34.9996 67.2609 34.9996C67.3575 34.9996 67.4541 34.9996 67.5507 34.9996C67.6473 34.9996 67.744 34.9996 67.8406 34.9996C67.9372 34.9996 68.0338 34.9996 68.0338 35.0963V35.1929V35.2895C68.0338 35.3861 68.0338 35.3861 67.9372 35.3861V35.4827V35.0963H67.8406C67.744 35.0963 67.744 35.0963 67.6473 35.0963C67.5507 35.0963 67.5507 35.0963 67.4541 35.0963C67.3575 35.0963 67.3575 35.0963 67.3575 35.1929L67.2609 35.2895C67.2609 35.2895 67.2609 35.3861 67.2609 35.4827C67.2609 35.5793 67.2609 35.676 67.3575 35.676C67.3575 35.7726 67.4541 35.7726 67.5507 35.8692C67.6473 35.8692 67.6473 35.9658 67.744 35.9658C67.8406 35.9658 67.8406 36.0624 67.9372 36.0624C68.0338 36.0624 68.0338 36.1591 68.1304 36.2557C68.1304 36.3523 68.227 36.4489 68.227 36.5455C68.227 36.6421 68.227 36.7388 68.1304 36.8354C68.1304 36.932 68.0338 36.932 67.9372 37.0286C67.8406 37.1252 67.744 37.1252 67.6473 37.1252C67.5507 37.1252 67.4541 37.1252 67.2609 37.1252C67.1642 37.1252 67.1642 37.1252 67.0676 37.1252C66.971 37.1252 66.971 37.1252 66.8744 37.1252C66.7778 37.1252 66.7778 37.1252 66.7778 37.1252C66.7778 37.1252 66.6812 37.1252 66.6812 37.0286V36.932C66.6812 36.8354 66.6812 36.8354 66.7778 36.7388C66.7778 36.6421 66.7778 36.6421 66.8744 36.5455C66.8744 36.5455 66.8744 36.4489 66.971 36.4489H67.0676L66.8744 36.932Z" fill="white"/>
<path fill-rule="evenodd" clip-rule="evenodd" d="M70.4491 37.1252H69.6761V37.0286H69.7728H69.8694L70.1592 35.6759L70.2559 35.2894L70.0626 35.5793L69.0964 37.1252H68.9998L68.71 35.5793V35.1928L68.6133 35.5793L68.3235 36.9319H68.4201H68.5167V37.0286H67.937V36.9319C68.0336 36.9319 68.1302 36.8353 68.2269 36.8353L68.6133 34.9996H68.5167H68.4201V34.903H69.0964L69.2897 36.3522V36.6421L69.4829 36.3522L70.3525 34.9996H70.8356V35.0962C70.7389 35.0962 70.6423 35.1928 70.5457 35.1928L70.1592 37.0286H70.2559C70.3525 37.0286 70.4491 37.0286 70.4491 37.1252Z" fill="white"/>
<path fill-rule="evenodd" clip-rule="evenodd" d="M5.52197 2.63245L6.97124 3.79187L8.90361 3.11554L8.3239 4.95129L9.3867 6.49718H7.45434L6.29492 8.04307L5.81182 6.20733L3.97607 5.62762L5.61859 4.66143L5.52197 2.63245Z" fill="white"/>
<path fill-rule="evenodd" clip-rule="evenodd" d="M3.97601 7.94641L5.42528 9.20245L7.26103 8.52612L6.77794 10.3619L7.84074 11.9078L5.90838 11.8111L4.74896 13.4537L4.16924 11.6179L2.3335 11.0382L3.97601 10.072V7.94641Z" fill="white"/>
<path fill-rule="evenodd" clip-rule="evenodd" d="M2.14013 13.4908L3.58941 14.7469L5.52177 14.0706L4.94206 15.9063L6.00487 17.3556H4.0725L2.91308 18.9015L2.42999 17.0657L0.594238 16.486L2.23675 15.5198L2.14013 13.4908Z" fill="white"/>
<path fill-rule="evenodd" clip-rule="evenodd" d="M33.0579 28.6227C32.7681 28.5261 32.5748 28.4295 32.285 28.3329C32.285 28.2363 32.285 28.2363 32.3816 28.1397H33.1545C33.1545 28.3329 33.0579 28.4295 33.0579 28.6227ZM27.6473 29.8788C27.6473 29.7822 27.6473 29.7822 27.6473 29.8788C27.6473 29.7822 27.7439 29.7822 27.6473 29.8788ZM22.3333 28.7194C22.1401 28.7194 22.0434 28.7194 21.8502 28.816C22.0434 28.816 22.2367 28.7194 22.3333 28.7194C22.5265 28.5261 22.7198 28.4295 22.8164 28.816C22.6231 29.1058 22.5265 29.1058 22.3333 28.7194ZM18.1787 28.7194C18.1787 28.6227 18.2753 28.6227 18.2753 28.6227L18.1787 28.7194ZM13.9275 25.3377C13.6376 25.1445 13.3478 24.9512 13.0579 24.758C13.3478 24.8546 13.7343 25.1445 13.9275 25.3377C14.4106 25.4343 14.7971 25.6276 15.2801 25.7242C14.8937 25.531 14.4106 25.4343 13.9275 25.3377ZM11.6086 23.1155C11.7053 23.2121 11.7053 23.2121 11.8019 23.3087C11.7053 23.2121 11.6086 23.1155 11.6086 23.1155ZM34.0241 27.7532C33.7343 27.7532 33.541 27.7532 33.2512 27.7532C32.9613 27.7532 32.6715 27.9464 32.4782 27.9464C32.285 28.043 32.0917 28.043 31.8985 28.1397C31.6087 28.2363 31.3188 28.3329 31.1256 28.3329C30.6425 28.4295 30.256 28.2363 29.9661 28.7194C29.9661 28.7194 29.8695 28.7194 29.7729 28.7194C29.2898 28.7194 28.8067 28.6227 28.3236 28.6227C27.6473 28.7194 27.0676 28.5261 26.4879 28.9126C26.3913 29.0092 26.198 28.9126 26.1014 28.9126C24.942 28.7194 23.7826 28.4295 22.6231 28.3329C21.4637 28.3329 20.4975 28.2363 19.628 27.4633C19.2415 27.1735 18.855 27.0769 18.4686 26.787C18.1787 27.1735 17.8888 27.1735 17.6956 26.787C17.599 26.6904 17.4058 26.4971 17.2125 26.4005C16.6328 26.1107 16.0531 25.8208 15.3768 25.4343C15.2801 25.3377 15.0869 25.2411 14.9903 25.2411C14.2173 25.3377 13.7343 24.758 13.2512 24.3715C12.7681 23.9851 12.3816 23.3087 11.8019 22.9223C11.8019 22.9223 11.8019 22.8256 11.7053 22.8256C11.3188 22.5358 10.8357 22.2459 10.4492 21.9561C10.4492 22.0527 10.4492 22.0527 10.4492 22.1493C10.3526 22.1493 10.3526 22.1493 10.256 22.0527C10.3526 22.0527 10.3526 22.0527 10.4492 22.1493C10.4492 22.0527 10.4492 22.0527 10.4492 21.9561C10.3526 21.8595 10.3526 21.8595 10.256 21.7628C10.256 21.3764 10.0628 21.1831 9.7729 20.9899C9.38643 20.7 8.90334 20.4102 8.7101 20.0237C8.51686 19.6372 8.22701 19.3474 7.93715 19.0575C7.55068 18.7677 6.97097 18.6711 6.48788 18.5744C6.29464 18.4778 6.1014 18.5744 5.90817 18.5744C5.61831 18.5744 5.42507 18.6711 5.61831 19.0575C5.61831 19.1541 5.61831 19.2508 5.61831 19.3474C5.61831 19.5406 5.61831 19.8305 5.71493 19.9271C6.29464 20.7 7.1642 21.2797 7.74391 22.1493C8.03377 22.5358 8.51686 22.729 8.99995 23.0189C8.99995 23.0189 8.90334 23.2121 8.99995 23.3087C9.09657 23.5986 9.28981 23.9851 9.48305 24.1783C9.7729 24.4682 10.1594 24.758 10.5458 25.0479C10.7391 25.2411 10.9323 25.3377 11.1256 25.531C11.6086 26.3039 12.3816 26.6904 13.1545 26.9802C13.7343 27.1735 14.4106 27.1735 14.7004 27.7532C14.7971 27.8498 14.9903 27.9464 15.1835 28.043C15.3768 28.043 15.6666 28.1397 15.7632 28.2363C15.7632 28.5261 15.6666 28.7194 15.7632 28.9126C15.8599 29.2025 16.1497 29.2025 16.4396 29.0092C16.4396 29.1058 16.6328 29.1058 16.7294 29.2025C16.826 29.2991 16.9227 29.3957 17.0193 29.3957C17.2125 29.3957 17.4058 29.3957 17.599 29.3957C17.8888 29.4923 18.1787 29.9754 18.5652 29.5889C18.7584 29.4923 18.9516 29.3957 19.0483 29.2991C19.1449 29.4923 19.2415 29.6855 19.4347 29.8788C19.5314 29.8788 19.5314 29.8788 19.628 29.8788C19.9178 29.8788 20.2077 29.8788 20.4975 29.7822C20.6908 29.9754 20.9806 30.1686 21.2705 30.4585C21.3671 30.5551 21.3671 30.6517 21.4637 30.6517C21.7536 30.5551 22.1401 30.4585 22.4299 30.2653C22.1401 30.1686 21.9468 30.1686 21.657 30.072C22.0434 29.8788 22.3333 29.8788 22.6231 30.1686C22.7198 30.1686 22.8164 30.1686 22.913 30.1686C22.913 30.1686 22.913 30.1686 23.0096 30.1686C23.2029 30.1686 23.2995 30.1686 23.4927 30.072C23.5893 30.072 23.5893 29.9754 23.6859 29.8788C23.5893 29.8788 23.5893 29.9754 23.4927 30.072C23.2995 30.072 23.2029 30.072 23.0096 30.1686V30.2653C23.2029 30.5551 23.4927 30.5551 23.7826 30.6517C23.9758 30.6517 24.169 30.6517 24.3623 30.7483C24.4589 30.7483 24.6521 30.7483 24.6521 30.7483C24.7487 30.5551 24.8454 30.2653 25.0386 30.072C25.2318 30.072 25.4251 30.072 25.6183 30.072C25.7149 30.1686 25.9082 30.2653 26.0048 30.3619C26.5845 30.9416 27.0676 30.9416 27.7439 30.3619C27.8405 30.2653 27.9372 30.1686 28.0338 30.2653C28.7101 30.6517 28.9033 30.072 29.1932 29.6855C29.2898 29.6855 29.2898 29.6855 29.3864 29.6855C29.3864 29.8788 29.483 30.072 29.7729 29.9754C29.9661 29.8788 30.1594 29.7822 30.4492 29.6855C30.5458 29.6855 30.6425 29.5889 30.6425 29.5889C30.6425 29.4923 30.5458 29.4923 30.5458 29.3957C30.5458 29.3957 30.5458 29.3957 30.5458 29.2991C30.6425 29.2991 30.7391 29.2025 30.8357 29.2025V29.1058C30.9323 29.1058 31.0289 29.0092 31.1256 29.0092C31.3188 29.0092 31.6087 29.0092 31.8019 28.9126C32.0917 28.9126 32.3816 28.9126 32.6715 28.9126C33.0579 29.0092 33.3478 28.9126 33.3478 28.4295C33.541 28.2363 33.9275 28.1397 34.2173 27.9464C34.314 27.9464 34.2173 27.7532 34.0241 27.7532Z" fill="white"/>
<path fill-rule="evenodd" clip-rule="evenodd" d="M10.7392 18.4779C10.6426 18.5745 10.5459 18.5745 10.4493 18.6711C10.4493 18.7677 10.4493 18.7677 10.4493 18.8644C10.6426 19.1542 10.8358 19.4441 11.1257 19.7339C10.9324 19.4441 10.7392 19.1542 10.4493 18.8644C10.4493 18.7677 10.4493 18.7677 10.4493 18.6711C10.5459 18.6711 10.7392 18.5745 10.7392 18.4779ZM13.4445 19.3475C13.3479 19.2508 13.2513 19.2508 13.1546 19.1542C13.2513 19.2508 13.3479 19.3475 13.4445 19.3475ZM16.3431 23.4054C16.3431 23.502 16.4397 23.502 16.4397 23.5987C16.4397 23.502 16.4397 23.4054 16.3431 23.4054ZM21.6571 23.9851C21.4638 23.9851 21.174 24.0818 21.174 23.6953C21.2706 23.8885 21.4638 23.9851 21.6571 23.9851ZM22.7199 25.8209C22.8165 25.6276 22.9131 25.6276 23.0097 25.8209C22.9131 25.8209 22.8165 25.8209 22.7199 25.8209ZM26.1015 25.2412C26.1015 25.1446 26.1981 25.0479 26.1981 25.0479C26.1981 25.1446 26.1015 25.2412 26.1015 25.2412C26.0049 25.2412 25.8116 25.1446 25.715 25.2412C25.8116 25.2412 26.0049 25.2412 26.1015 25.2412ZM27.2609 25.1446C27.2609 25.2412 27.2609 25.3378 27.3575 25.3378C27.2609 25.3378 27.1643 25.3378 27.1643 25.2412C27.0677 25.2412 27.1643 25.1446 27.2609 25.1446ZM30.0629 23.7919C30.1595 23.7919 30.2561 23.7919 30.3527 23.7919C30.3527 23.7919 30.1595 23.7919 30.0629 23.7919ZM7.74402 15.4827C7.74402 15.676 7.84063 15.7726 7.84063 15.7726C8.13049 16.159 8.42034 16.6421 8.7102 17.0286C9.00005 17.3185 9.28991 17.8016 9.773 17.7049H9.86962C9.96624 17.9948 10.0629 18.3813 10.1595 18.6711C10.2561 19.3475 10.6426 19.8305 11.3189 20.1204C11.4155 20.217 11.6088 20.3136 11.7054 20.4103C12.1885 21.0866 12.4783 21.8595 13.3479 21.9561C13.831 22.0528 14.3141 22.246 14.7005 22.4392C14.7972 23.1156 15.3769 23.3088 15.9566 23.4054C15.7633 24.1784 15.7633 24.1784 16.4397 24.4682C16.5363 24.4682 16.6329 24.5648 16.7295 24.5648C17.116 24.6615 17.5991 24.8547 17.9856 24.9513L18.0822 24.8547C18.1788 24.8547 18.2754 24.8547 18.372 24.8547C18.7585 25.1446 19.145 25.4344 19.7247 25.3378C19.9179 25.2412 20.2078 25.3378 20.401 25.3378V25.4344C20.5943 25.6276 20.7875 25.8209 20.9807 25.9175C20.9807 25.9175 21.174 25.7243 21.3672 25.6276C21.4638 25.6276 21.4638 25.6276 21.5604 25.531C21.7537 25.531 21.8503 25.531 22.0435 25.531C22.1402 25.531 22.1402 25.6276 22.2368 25.6276H22.3334C22.3334 25.8209 22.43 25.8209 22.43 25.9175C22.6232 26.0141 22.8165 26.0141 23.0097 26.0141C23.1063 26.0141 23.2996 25.9175 23.3962 25.9175C23.4928 25.9175 23.4928 25.9175 23.5894 25.9175C23.686 26.0141 23.8793 26.1107 23.9759 26.0141C24.1691 25.6276 24.5556 25.531 24.9421 25.4344C25.0387 25.4344 25.1353 25.531 25.2319 25.531C25.2319 25.8209 25.4252 26.1107 25.6184 26.1107C25.9083 26.1107 26.2947 26.304 26.488 25.8209C26.7778 25.6276 26.8745 25.4344 27.2609 25.8209C27.2609 25.8209 27.5508 25.7243 27.6474 25.6276C27.744 25.3378 27.9373 25.3378 28.1305 25.3378C28.2271 25.3378 28.4203 25.3378 28.517 25.3378C28.6136 25.3378 28.7102 25.3378 28.8068 25.3378C28.8068 25.1446 28.9034 24.9513 29.0967 24.8547C28.9034 24.9513 28.8068 25.1446 28.7102 25.2412C28.8068 25.2412 29.0001 25.1446 29.0967 25.0479C29.4831 24.5648 30.0629 24.3716 30.6426 24.3716C30.9324 24.3716 31.3189 24.275 31.5121 24.0818C31.7054 23.8885 31.802 23.6953 32.0918 23.5987C32.2851 23.502 32.3817 23.3088 32.4783 23.1156C32.4783 23.1156 32.3817 22.8257 32.2851 22.8257C31.9952 22.8257 31.7054 22.8257 31.5121 22.8257C30.9324 23.019 30.4493 23.2122 29.8696 23.4054C29.773 23.5987 29.5798 23.7919 29.4831 23.6953C29.0001 23.502 28.7102 23.6953 28.6136 23.9851C28.3237 23.9851 28.1305 23.8885 27.9373 23.8885C27.1643 23.8885 26.3914 23.6953 25.6184 24.0818C25.4252 24.1784 25.0387 24.0818 24.6522 24.0818C24.3624 23.9851 23.9759 23.9851 23.5894 23.8885C23.4928 23.9851 23.3962 23.9851 23.2996 23.9851C23.203 23.9851 23.1063 23.9851 23.0097 23.9851C22.9131 23.9851 22.7199 23.9851 22.5266 23.8885C22.5266 23.502 22.2368 23.5987 21.9469 23.5987C20.9807 23.6953 20.2078 23.502 19.5315 22.7291C19.3382 22.5359 18.9517 22.3426 18.6619 22.1494C18.5653 22.0528 18.372 22.0528 18.372 22.1494C18.0822 22.4392 17.8889 22.246 17.7923 21.9561C17.7923 21.8595 17.6957 21.7629 17.5991 21.7629C16.5363 21.4731 15.86 20.3136 14.7972 20.1204C14.6039 20.1204 14.4107 19.9272 14.3141 19.7339C14.0242 19.5407 13.831 19.3475 13.6377 19.1542C13.4445 18.7677 13.1546 18.3813 12.7682 18.0914C12.3817 17.8016 12.0918 17.5117 11.7054 17.1252C11.2223 16.5455 10.7392 15.9658 10.2561 15.2895C10.1595 15.1929 9.96624 14.9996 9.86962 14.8064C9.67638 13.9368 8.13049 13.3571 7.35754 13.4537C6.97107 13.4537 6.87445 13.647 6.77783 14.0334C6.77783 14.5165 7.26092 15.1929 7.74402 15.4827Z" fill="white"/>
<path fill-rule="evenodd" clip-rule="evenodd" d="M11.8984 11.1349C11.995 11.618 12.2848 12.0044 12.5747 12.3909C12.2848 12.1011 11.995 11.7146 11.8984 11.1349C11.7051 10.845 11.4153 10.6518 11.1254 10.3619C11.3187 10.6518 11.7051 10.845 11.8984 11.1349ZM17.0191 18.8643C16.8259 18.7677 16.6327 18.5745 16.536 18.4779C16.6327 18.6711 16.8259 18.7677 17.0191 18.8643ZM18.2752 17.8015C18.0819 17.8015 17.8887 17.7049 17.6955 17.6083C17.8887 17.7049 18.0819 17.7049 18.2752 17.8015ZM18.6617 19.7339C18.6617 19.6373 18.6617 19.6373 18.6617 19.5407C18.6617 19.6373 18.6617 19.7339 18.6617 19.7339C18.6617 19.8305 18.565 19.8305 18.565 19.9272C18.565 19.8305 18.565 19.8305 18.6617 19.7339ZM19.2414 20.1204C19.1447 20.3136 18.9515 20.4102 18.8549 20.4102C18.9515 20.4102 19.0481 20.3136 19.2414 20.1204ZM22.5264 19.5407C22.623 19.5407 22.623 19.5407 22.7196 19.5407C22.7196 19.5407 22.623 19.5407 22.5264 19.5407ZM23.0095 21.2798C22.8162 21.2798 22.623 21.3764 22.4298 21.3764C22.3331 21.2798 22.2365 21.2798 22.1399 21.1832C22.1399 21.0866 22.1399 21.0866 22.1399 20.99C22.4298 21.0866 22.8162 20.7967 23.0095 21.2798ZM23.1061 21.3764C23.2027 21.3764 23.2027 21.3764 23.2993 21.3764C23.2993 21.3764 23.2027 21.3764 23.1061 21.3764ZM23.7824 21.0866C23.7824 20.99 23.879 20.8933 23.879 20.7967C24.0723 20.7967 24.3621 20.7967 24.5554 20.7967C24.8452 20.7967 25.1351 20.7967 25.4249 20.7001C25.1351 20.7967 24.8452 20.7967 24.5554 20.8933C24.3621 20.8933 24.0723 20.8933 23.879 20.8933C23.879 20.8933 23.879 20.99 23.7824 21.0866C23.7824 21.1832 23.6858 21.1832 23.6858 21.2798C23.7824 21.1832 23.7824 21.1832 23.7824 21.0866ZM25.8114 19.7339C26.2945 19.7339 26.8742 19.8305 27.3573 19.8305C26.8742 19.7339 26.2945 19.7339 25.8114 19.7339ZM26.4877 20.5069C26.3911 20.6035 26.3911 20.7001 26.2945 20.7001C26.2945 20.6035 26.2945 20.6035 26.2945 20.5069C26.1979 20.4102 26.1013 20.3136 26.1013 20.217C26.1979 20.3136 26.1979 20.4102 26.2945 20.5069C26.3911 20.5069 26.3911 20.5069 26.4877 20.5069C26.5844 20.5069 26.5844 20.4102 26.681 20.4102C26.5844 20.5069 26.5844 20.5069 26.4877 20.5069ZM25.5216 20.7001L25.6182 20.7967C25.6182 20.7967 25.5216 20.7967 25.5216 20.7001ZM8.80658 9.68561C8.70996 9.97546 8.9032 10.3619 9.28967 10.4586C9.28967 10.5552 9.28967 10.5552 9.28967 10.6518C9.28967 11.0383 9.48291 11.3281 9.966 11.4247C10.0626 12.0044 10.2559 12.4875 10.7389 12.874C10.9322 12.9706 11.1254 13.0672 11.1254 13.2605C11.4153 13.5503 11.5119 13.9368 11.6085 14.2267C11.7051 14.5165 11.8984 14.7098 12.0916 14.9996C12.1882 14.9996 12.1882 15.0962 12.2848 15.0962C12.5747 15.4827 12.9612 15.7726 13.1544 16.159C13.3476 16.5455 13.5409 16.7387 13.8307 16.932H13.9274C13.9274 16.932 14.024 16.932 14.024 17.0286C14.2172 17.1252 14.3138 17.3185 14.5071 17.4151C14.8935 17.6083 15.4732 17.7049 15.5699 17.8982C15.7631 18.5745 16.4394 18.6711 16.9225 18.961C16.9225 19.0576 16.9225 19.0576 16.9225 19.1542C16.536 19.3474 16.536 19.6373 16.8259 19.8305C17.1158 20.0238 17.5022 20.1204 17.8887 20.217C17.9853 20.217 18.1786 20.217 18.1786 20.3136C18.4684 20.6035 18.7583 20.6035 19.0481 20.6035C19.1447 20.6035 19.2414 20.6035 19.338 20.7001C19.6278 21.1832 20.1109 20.8933 20.4008 20.7967C20.4974 20.8933 20.6906 21.0866 20.6906 21.1832C20.8839 21.5697 21.1737 21.473 21.4636 21.473C21.6568 21.3764 21.9467 21.3764 22.1399 21.3764L22.2365 21.473C22.3331 21.473 22.3331 21.473 22.4298 21.473C22.623 21.6663 22.8162 21.7629 23.1061 21.5697C23.2027 21.5697 23.2993 21.6663 23.396 21.6663C23.4926 21.9561 23.5892 21.8595 23.7824 21.6663C24.0723 21.473 24.2655 21.2798 24.5554 21.0866C24.652 21.0866 24.7486 21.0866 24.8452 21.0866C25.1351 21.8595 25.7148 22.0528 26.1013 21.473C26.2945 21.1832 26.4877 21.0866 26.8742 21.3764C26.9708 20.7967 27.3573 20.7967 27.8404 20.8933C27.937 20.8933 28.1303 20.8933 28.2269 20.7967C28.5167 20.5069 28.71 20.217 28.9998 19.9272C29.0964 19.9272 29.1931 19.9272 29.2897 19.9272C30.3525 20.217 30.7389 19.2508 31.4153 18.6711C31.222 18.5745 30.9322 18.4779 30.7389 18.3813C30.4491 18.3813 30.2559 18.4779 30.2559 18.7677C30.1592 18.7677 30.1592 18.7677 30.0626 18.7677C29.7728 18.3813 29.5795 18.7677 29.3863 18.8643C28.8066 19.0576 28.3235 19.3474 27.7438 19.4441C27.2607 19.5407 26.7776 19.4441 26.2945 19.4441C25.908 19.4441 25.6182 19.6373 25.2317 19.6373C25.1351 19.6373 25.0385 19.6373 24.9418 19.6373C24.652 19.6373 24.3621 19.5407 24.0723 19.4441C23.5892 19.3474 23.1061 19.2508 22.5264 19.2508C22.1399 19.2508 21.6568 19.2508 21.2703 19.1542C21.1737 19.1542 21.0771 19.1542 20.9805 19.1542C20.9805 19.0576 20.8839 18.961 20.7873 18.8643C20.4008 18.5745 20.1109 18.3813 19.7245 18.0914C19.4346 17.8015 19.1447 17.4151 18.6617 17.6083C18.565 17.6083 18.4684 17.5117 18.3718 17.5117C18.1786 17.3185 17.9853 17.1252 17.7921 17.0286C17.5022 16.8354 17.1158 16.7387 16.9225 16.4489C16.536 15.9658 16.1496 15.6759 15.5699 15.5793C15.4732 15.3861 15.3766 15.1929 15.1834 15.0962C14.8935 14.903 14.7003 14.7098 14.6037 14.3233C14.4104 13.9368 14.3138 13.3571 13.6375 13.3571C13.6375 13.3571 13.6375 13.2605 13.5409 13.2605C13.5409 12.6808 13.0578 12.3909 12.6713 12.1011V12.0044C12.5747 11.9078 12.4781 11.8112 12.3815 11.7146V11.618C12.4781 11.4247 12.4781 11.1349 12.0916 11.1349V11.0383C11.8017 10.4586 11.222 9.97546 11.1254 9.29913C11.1254 9.29913 10.9322 9.20251 10.8356 9.20251H10.7389C10.5457 8.6228 9.38629 8.13971 8.80658 8.33295C8.70996 8.33295 8.70996 8.52619 8.70996 8.71942C8.80658 9.1059 8.80658 9.39575 8.80658 9.68561C8.9032 9.78222 8.99982 9.78222 9.09643 9.87884C8.99982 9.78222 8.9032 9.68561 8.80658 9.68561Z" fill="white"/>
</g>
</g>
<defs>
<clipPath id="clip0_189_3317">
<rect width="98.3575" height="40" fill="white" transform="translate(0.570312)"/>
</clipPath>
</defs>
</svg>
